<svg width="24" height="24" viewBox="0 0 24 24" fill="currentColor" xmlns="http://www.w3.org/2000/svg">
    <path
        d="M7.30461 16.7311C7.67896 17.1055 8.12898 17.2926 8.65466 17.2926H11.4728C12.0006 17.2926 12.4286 16.8647 12.4286 16.3369C12.4286 15.809 12.0006 15.3811 11.4728 15.3811H8.65466V3.91158H17.2568V10.8601C17.2568 11.2407 17.4825 11.585 17.8315 11.7367C18.4628 12.0111 19.1684 11.5484 19.1684 10.8601V3.91158C19.1684 3.3859 18.9812 2.93588 18.6068 2.56153C18.2325 2.18718 17.7825 2 17.2568 2H8.65466C8.12898 2 7.67896 2.18718 7.30461 2.56153C6.93026 2.93588 6.74308 3.3859 6.74308 3.91158V15.3811C6.74308 15.9067 6.93026 16.3568 7.30461 16.7311Z"
        fill="currentColor" />
    <path
        d="M12.274 19.2042C12.6072 19.2042 12.9006 19.4182 13.0397 19.7209C13.316 20.3225 12.9218 21.1158 12.2598 21.1158H4.8315C4.30582 21.1158 3.8558 20.9286 3.48145 20.5543C3.1071 20.1799 2.91992 19.7299 2.91992 19.2042V6.77895C2.91992 6.50814 3.01152 6.28114 3.19471 6.09795C3.3779 5.91476 3.6049 5.82316 3.87571 5.82316C4.14652 5.82316 4.37352 5.91476 4.55671 6.09795C4.73991 6.28114 4.8315 6.50814 4.8315 6.77895V19.2042H12.274Z"
        fill="currentColor" />
    <path
        d="M13.4336 16.8626V15.0227C13.4336 14.8475 13.4774 14.6803 13.565 14.521C13.6526 14.3617 13.7841 14.2422 13.9593 14.1625L16.8266 12.7288C16.9541 12.6492 17.0975 12.6094 17.2568 12.6094C17.4161 12.6094 17.5594 12.6492 17.6869 12.7288L20.5542 14.1625C20.7295 14.2422 20.8609 14.3617 20.9485 14.521C21.0361 14.6803 21.0799 14.8475 21.0799 15.0227V16.8626C21.0799 18.0574 20.7693 19.0888 20.148 19.957C19.5268 20.8252 18.6825 21.4823 17.6152 21.9283C17.5833 21.9443 17.4638 21.9682 17.2568 22C17.2249 22 17.1054 21.9761 16.8983 21.9283C15.831 21.4823 14.9868 20.8252 14.3655 19.957C13.7442 19.0888 13.4336 18.0574 13.4336 16.8626ZM16.5638 17.1733L16.1337 16.7432C15.9903 16.5998 15.8231 16.5321 15.6319 16.5401C15.4408 16.548 15.2735 16.6237 15.1301 16.7671C14.9868 16.9104 14.9151 17.0777 14.9151 17.2689C14.9151 17.46 14.9868 17.6273 15.1301 17.7706L15.8948 18.5353C16.0859 18.7264 16.3089 18.822 16.5638 18.822C16.8187 18.822 17.0417 18.7264 17.2329 18.5353L19.3834 16.4086C19.5268 16.2653 19.5984 16.098 19.5984 15.9069C19.5984 15.7157 19.5268 15.5484 19.3834 15.4051C19.24 15.2617 19.0728 15.194 18.8816 15.202C18.6904 15.2099 18.5232 15.2776 18.3798 15.4051L16.5638 17.1733Z"
        fill="currentColor" />
    <path
        d="M12.9341 11.5503C13.4619 11.5503 13.8901 11.9785 13.8901 12.5063C13.8901 13.0342 13.4619 13.4624 12.9341 13.4624H11.5005C10.9726 13.4624 10.5444 13.0342 10.5444 12.5063C10.5445 11.9785 10.9727 11.5503 11.5005 11.5503H12.9341ZM14.3677 8.68311C14.8955 8.68311 15.3237 9.11129 15.3237 9.63916C15.3237 10.167 14.8955 10.5952 14.3677 10.5952H11.5005C10.9726 10.5952 10.5445 10.167 10.5444 9.63916C10.5444 9.11129 10.9726 8.68311 11.5005 8.68311H14.3677ZM14.3677 5.81494C14.8955 5.81499 15.3237 6.24316 15.3237 6.771C15.3236 7.29872 14.8954 7.72603 14.3677 7.72607H11.5005C10.9727 7.72607 10.5446 7.29874 10.5444 6.771C10.5444 6.24313 10.9726 5.81494 11.5005 5.81494H14.3677Z"
        fill="currentColor" />
</svg>