<?xml version="1.0" encoding="UTF-8"?>
<svg id="svg" version="1.1" xmlns="http://www.w3.org/2000/svg" style="display: block;" viewBox="0 0 200 200">
    <path
        d="M0 0 C1.50715324 -0.00956978 1.50715324 -0.00956978 3.04475403 -0.01933289 C4.13430893 -0.02044571 5.22386383 -0.02155853 6.34643555 -0.02270508 C7.46374557 -0.02603348 8.5810556 -0.02936188 9.73222351 -0.03279114 C12.10028674 -0.03786167 14.46835713 -0.04019942 16.83642578 -0.04003906 C20.45772121 -0.042221 24.07870987 -0.06036309 27.69995117 -0.0793457 C29.99877825 -0.0822805 32.29760678 -0.08426472 34.59643555 -0.08520508 C35.67991776 -0.09239059 36.76339996 -0.09957611 37.87971497 -0.10697937 C39.40105293 -0.10236443 39.40105293 -0.10236443 40.953125 -0.09765625 C41.84199905 -0.09908127 42.73087311 -0.10050629 43.64668274 -0.10197449 C46.45358555 0.17297849 48.61216238 0.98622117 51.1706543 2.14526367 C50.59431291 6.90008013 48.61996909 10.11574579 46.1706543 14.14526367 C45.1806543 13.81526367 44.1906543 13.48526367 43.1706543 13.14526367 C41.71454764 13.03963442 40.25424865 12.9868127 38.79443359 12.96826172 C37.47242195 12.94900887 37.47242195 12.94900887 36.123703 12.92936707 C35.17368912 12.92198013 34.22367523 12.9145932 33.24487305 12.90698242 C31.77435234 12.8948748 31.77435234 12.8948748 30.27412415 12.88252258 C28.1987179 12.86869087 26.12328899 12.85796463 24.04785156 12.85009766 C20.88066322 12.83288599 17.71451915 12.78899144 14.54760742 12.74487305 C12.53003696 12.73474568 10.51245764 12.72622971 8.49487305 12.71948242 C7.55093185 12.70197433 6.60699066 12.68446625 5.63444519 12.66642761 C-0.17943764 12.68552163 -3.37239172 13.32978365 -7.8293457 17.14526367 C-10.39448729 20.53344534 -11.68036658 24.08112707 -12.2668457 28.27026367 C-11.50511589 33.27591674 -9.62820213 36.66920139 -5.8293457 39.95776367 C-2.3549976 42.4911425 -0.00955138 43.2657426 4.1796875 43.30639648 C4.98094559 43.31600403 5.78220367 43.32561157 6.60774231 43.33551025 C7.47026108 43.33976013 8.33277985 43.34401001 9.22143555 43.34838867 C10.55877998 43.35693878 10.55877998 43.35693878 11.92314148 43.36566162 C13.81023982 43.37510717 15.69735462 43.38164384 17.58447266 43.38549805 C20.4618025 43.39519174 23.33841431 43.42621422 26.21557617 43.45776367 C28.0508584 43.46429525 29.88614572 43.46954511 31.72143555 43.47338867 C32.57788162 43.48573547 33.4343277 43.49808228 34.31672668 43.51080322 C39.33442034 43.49222875 42.8604882 43.0046344 47.1706543 40.14526367 C50.22311656 35.38701367 51.62294874 30.70812784 53.1081543 25.27026367 C55.69345417 15.91107731 58.61107609 7.51313475 67.1706543 2.14526367 C70.67596817 0.53531431 73.44385252 -0.1115649 77.29296875 -0.14526367 C78.28782791 -0.15802338 79.28268707 -0.17078308 80.30769348 -0.18392944 C81.37235336 -0.18615509 82.43701324 -0.18838074 83.53393555 -0.19067383 C85.19286079 -0.20065903 85.19286079 -0.20065903 86.88529968 -0.21084595 C89.22283264 -0.22096001 91.5603944 -0.22566335 93.89794922 -0.2253418 C97.46004267 -0.229708 101.02088985 -0.2660235 104.58276367 -0.30395508 C106.85815008 -0.30982498 109.13354235 -0.31379321 111.40893555 -0.31567383 C112.46752274 -0.33004486 113.52610992 -0.34441589 114.61677551 -0.35922241 C122.59144051 -0.31036309 127.92445817 1.26795347 133.9206543 6.58276367 C134.6631543 7.42838867 135.4056543 8.27401367 136.1706543 9.14526367 C136.8719043 9.90838867 137.5731543 10.67151367 138.2956543 11.45776367 C143.26759009 18.58420498 144.160667 25.62890439 143.1706543 34.14526367 C141.05341757 42.17311961 135.64729721 49.28155075 128.5456543 53.58276367 C122.43055872 56.41382644 116.71219142 56.30535759 110.0847168 56.31323242 C109.10957123 56.31656082 108.13442566 56.31988922 107.12973022 56.32331848 C105.0704597 56.32837222 103.01118102 56.33072729 100.9519043 56.33056641 C97.81374515 56.33275108 94.67593873 56.35091843 91.5378418 56.36987305 C89.53263466 56.37280771 87.52742586 56.37479202 85.5222168 56.37573242 C84.589711 56.38291794 83.6572052 56.39010345 82.69644165 56.39750671 C77.45869516 56.37928302 73.12884917 55.85810234 68.1706543 54.14526367 C67.51831055 52.41088867 67.51831055 52.41088867 67.1706543 50.14526367 C68.16674805 48.00463867 68.16674805 48.00463867 69.6081543 45.89526367 C70.3177832 44.8356543 70.3177832 44.8356543 71.04174805 43.75463867 C71.41428711 43.22354492 71.78682617 42.69245117 72.1706543 42.14526367 C73.1299585 42.38647949 73.1299585 42.38647949 74.10864258 42.63256836 C78.14202238 43.30790703 82.07980356 43.32741101 86.1628418 43.34838867 C87.02700714 43.35408875 87.89117249 43.35978882 88.78152466 43.36566162 C90.60539536 43.37508391 92.42928288 43.38163455 94.25317383 43.38549805 C97.02935716 43.39520668 99.80480059 43.42625726 102.58081055 43.45776367 C104.35814993 43.4642944 106.13549457 43.4695446 107.9128418 43.47338867 C108.7359787 43.48573547 109.5591156 43.49808228 110.40719604 43.51080322 C117.19240197 43.48483531 121.89636568 42.22178806 127.0456543 37.52026367 C129.69509226 33.31233278 130.58987545 30.10045765 130.1706543 25.14526367 C128.73705164 20.12765436 126.52574071 16.87653621 122.08906555 14.00047302 C118.21015333 12.27129113 114.05450539 12.64182573 109.8815918 12.71948242 C108.90074615 12.72277054 107.91990051 12.72605865 106.90933228 12.72944641 C104.84337695 12.73983858 102.77745016 12.75973964 100.71166992 12.78857422 C97.54939728 12.83271143 94.38788465 12.8500254 91.2253418 12.86206055 C89.21491417 12.87548315 87.20449589 12.89040571 85.1940918 12.90698242 C83.7768129 12.91806282 83.7768129 12.91806282 82.3309021 12.92936707 C81.00900375 12.94861992 81.00900375 12.94861992 79.66040039 12.96826172 C78.8879599 12.97810593 78.11551941 12.98795013 77.31967163 12.99809265 C75.16248672 13.14582301 73.24667055 13.55491394 71.1706543 14.14526367 C71.1706543 14.80526367 71.1706543 15.46526367 71.1706543 16.14526367 C70.5106543 16.14526367 69.8506543 16.14526367 69.1706543 16.14526367 C69.00049805 16.86069336 68.8303418 17.57612305 68.6550293 18.31323242 C61.73578455 46.76310576 61.73578455 46.76310576 52.1081543 53.14526367 C46.19353953 56.62871777 39.85556484 56.33043909 33.19018555 56.38354492 C32.222155 56.39161667 31.25412445 56.39968842 30.25675964 56.40800476 C28.21009086 56.42181086 26.16339939 56.43254848 24.11669922 56.44042969 C22.03655183 56.45193654 19.95643366 56.47236771 17.87646484 56.50195312 C14.85583626 56.54488226 11.83608233 56.56083428 8.81518555 56.57104492 C7.8981636 56.58855301 6.98114166 56.6060611 6.03633118 56.62409973 C-2.79548311 56.59487247 -10.73688848 54.00325594 -17.29418945 47.92651367 C-23.14571029 41.13696277 -25.19580296 34.16059485 -25.1105957 25.35229492 C-24.45218558 17.84459062 -21.27624731 11.35008076 -15.8293457 6.14526367 C-12.91765268 4.28501535 -9.92675305 2.67266887 -6.8293457 1.14526367 C-4.3713614 -0.08372848 -2.74839927 0.01181782 0 0 Z "
        transform="translate(40.829345703125,49.854736328125)" style="fill: #000000;" />
    <path
        d="M0 0 C0.99112793 -0.00953201 1.98225586 -0.01906403 3.00341797 -0.02888489 C4.07221191 -0.02797348 5.14100586 -0.02706207 6.2421875 -0.02612305 C7.88985107 -0.03255074 7.88985107 -0.03255074 9.57080078 -0.03910828 C11.89419871 -0.04485364 14.21761463 -0.04535033 16.54101562 -0.04101562 C20.10317516 -0.03785423 23.66450562 -0.06131808 27.2265625 -0.08666992 C29.48176978 -0.08894267 31.7369793 -0.08964652 33.9921875 -0.08862305 C35.59537842 -0.10243767 35.59537842 -0.10243767 37.23095703 -0.11653137 C38.71764893 -0.10718819 38.71764893 -0.10718819 40.234375 -0.09765625 C41.10690918 -0.09828568 41.97944336 -0.0989151 42.87841797 -0.0995636 C45.60922888 0.35690544 46.49557006 1.05941585 48.1171875 3.2746582 C48.75727919 8.39539171 48.75727919 8.39539171 46.90565491 10.93888855 C44.53390293 12.7103015 43.07184938 12.64904779 40.12670898 12.64697266 C38.60514442 12.65631584 38.60514442 12.65631584 37.05284119 12.66584778 C35.95903641 12.65663803 34.86523163 12.64742828 33.73828125 12.63793945 C32.0537661 12.63868721 32.0537661 12.63868721 30.33522034 12.63945007 C27.96052278 12.63710864 25.58582278 12.62737612 23.21118164 12.61083984 C19.56569364 12.58722949 15.92093572 12.5902808 12.27539062 12.59692383 C9.97134978 12.5913479 7.66731204 12.58423855 5.36328125 12.57543945 C3.71953773 12.57680656 3.71953773 12.57680656 2.04258728 12.57820129 C1.03136307 12.56866928 0.02013885 12.55913727 -1.02172852 12.54931641 C-1.9142482 12.54470901 -2.80676788 12.54010162 -3.72633362 12.53535461 C-5.8828125 12.2746582 -5.8828125 12.2746582 -7.8828125 10.2746582 C-8.18359375 8.3996582 -8.18359375 8.3996582 -8.1953125 6.2746582 C-8.21207031 5.5734082 -8.22882812 4.8721582 -8.24609375 4.1496582 C-8.12621094 3.5309082 -8.00632813 2.9121582 -7.8828125 2.2746582 C-4.64476576 0.11596037 -3.73920458 0.01974476 0 0 Z "
        transform="translate(68.8828125,140.725341796875)" style="fill: #000000;" />
    <path
        d="M0 0 C0.71873795 -0.00524185 1.43747589 -0.0104837 2.17799377 -0.0158844 C3.69685577 -0.02230231 5.21576748 -0.0209705 6.73461914 -0.01245117 C9.05510311 -0.00394767 11.37311911 -0.03268925 13.69335938 -0.06445312 C15.17057218 -0.06606549 16.64778933 -0.06548694 18.125 -0.0625 C18.81677841 -0.07373398 19.50855682 -0.08496796 20.22129822 -0.09654236 C23.58623101 -0.04803108 25.36984457 0.24128604 28.10180664 2.26928711 C29.62890625 4.43359375 29.62890625 4.43359375 29.56640625 7.55859375 C28.62890625 10.43359375 28.62890625 10.43359375 25.62890625 12.43359375 C23.12239311 12.6408121 20.72960461 12.73765341 18.22265625 12.734375 C17.14099182 12.74080269 17.14099182 12.74080269 16.03747559 12.74736023 C14.51441497 12.75309756 12.99132696 12.75360817 11.46826172 12.74926758 C9.13722097 12.74610503 6.80744657 12.76958083 4.4765625 12.79492188 C2.99609535 12.79719468 1.51562479 12.79789845 0.03515625 12.796875 C-1.0102533 12.81068962 -1.0102533 12.81068962 -2.07678223 12.82478333 C-4.94840447 12.79729805 -6.90707266 12.75304634 -9.31054688 11.09838867 C-10.97889498 8.47949693 -10.74861202 6.45373987 -10.37109375 3.43359375 C-7.87421942 -0.46744975 -4.19915293 -0.01776758 0 0 Z "
        transform="translate(43.37109375,118.56640625)" style="fill: #000000;" />
    <path
        d="M0 0 C1.24072266 -0.02449219 2.48144531 -0.04898438 3.75976562 -0.07421875 C4.95150391 -0.07808594 6.14324219 -0.08195313 7.37109375 -0.0859375 C8.46220459 -0.09415527 9.55331543 -0.10237305 10.67749023 -0.11083984 C14.22574199 0.48669092 15.39368562 1.55705842 17.5625 4.375 C18.04528933 7.20276608 18.07989442 8.62011305 16.44555664 11.00463867 C13.65693735 13.03400728 11.41298063 12.74686581 7.99609375 12.73828125 C6.0615332 12.73731445 6.0615332 12.73731445 4.08789062 12.73632812 C3.41733643 12.72802979 2.74678223 12.71973145 2.0559082 12.71118164 C0.00367112 12.68754229 -2.04727033 12.69062852 -4.09960938 12.69726562 C-14.17065282 12.64184718 -14.17065282 12.64184718 -16.4375 10.375 C-16.73828125 8.5 -16.73828125 8.5 -16.75 6.375 C-16.76675781 5.67375 -16.78351563 4.9725 -16.80078125 4.25 C-16.68089844 3.63125 -16.56101563 3.0125 -16.4375 2.375 C-11.47711994 -0.93192004 -5.827835 0.00603608 0 0 Z "
        transform="translate(166.4375,140.625)" style="fill: #000000;" />
    <path
        d="M0 0 C1.50336914 -0.0299707 1.50336914 -0.0299707 3.03710938 -0.06054688 C10.33693031 -0.05567708 10.33693031 -0.05567708 13.7578125 2.26953125 C15.0625 4.4375 15.0625 4.4375 15 7.5625 C14.0625 10.4375 14.0625 10.4375 11.0625 12.4375 C7.41012211 12.87129699 3.73786522 12.76171991 0.0625 12.75 C-0.948125 12.76611328 -1.95875 12.78222656 -3 12.79882812 C-4.4540625 12.79979492 -4.4540625 12.79979492 -5.9375 12.80078125 C-6.824375 12.80376221 -7.71125 12.80674316 -8.625 12.80981445 C-11.40846406 12.36167439 -12.29349412 11.69767664 -13.9375 9.4375 C-14.57793134 4.31404931 -14.57793134 4.31404931 -12.72436523 1.77709961 C-9.14107172 -0.90926895 -4.30617506 -0.0303446 0 0 Z "
        transform="translate(157.9375,118.5625)" style="fill: #000000;" />
    <path
        d="M0 0 C1.01449219 0.00322266 2.02898437 0.00644531 3.07421875 0.00976562 C4.08097656 -0.00634766 5.08773437 -0.02246094 6.125 -0.0390625 C7.09566406 -0.03970703 8.06632812 -0.04035156 9.06640625 -0.04101562 C9.95440918 -0.04399658 10.84241211 -0.04697754 11.75732422 -0.05004883 C14.7044019 0.39929065 16.07403915 1.25381005 18.19921875 3.32226562 C18.69921875 6.32226562 18.69921875 6.32226562 18.19921875 9.32226562 C13.80277666 13.5845896 8.91013905 12.80060654 3.13671875 12.75976562 C2.13060547 12.77974609 1.12449219 12.79972656 0.08789062 12.8203125 C-0.87697266 12.81966797 -1.84183594 12.81902344 -2.8359375 12.81835938 C-4.15670288 12.82113892 -4.15670288 12.82113892 -5.50415039 12.82397461 C-7.80078125 12.32226562 -7.80078125 12.32226562 -9.62280273 10.48657227 C-11.28426429 7.43395947 -10.72660755 5.59826638 -9.80078125 2.32226562 C-6.82152409 -0.65699154 -4.07475972 0.02984178 0 0 Z "
        transform="translate(115.80078125,118.677734375)" style="fill: #000000;" />
    <path
        d="M0 0 C0.969375 0.00064453 1.93875 0.00128906 2.9375 0.00195312 C4.4534375 0.02612305 4.4534375 0.02612305 6 0.05078125 C7.010625 0.04755859 8.02125 0.04433594 9.0625 0.04101562 C16.59928571 0.09613839 16.59928571 0.09613839 20 2.36328125 C20.36328125 4.23828125 20.36328125 4.23828125 20.3125 6.36328125 C20.30863281 7.06453125 20.30476563 7.76578125 20.30078125 8.48828125 C20 10.36328125 20 10.36328125 18 12.36328125 C15.6015625 12.62207031 15.6015625 12.62207031 12.625 12.62890625 C11.55765625 12.63148438 10.4903125 12.6340625 9.390625 12.63671875 C7.71226563 12.62511719 7.71226563 12.62511719 6 12.61328125 C4.88109375 12.62101563 3.7621875 12.62875 2.609375 12.63671875 C1.54203125 12.63414062 0.4746875 12.6315625 -0.625 12.62890625 C-1.60726563 12.62665039 -2.58953125 12.62439453 -3.6015625 12.62207031 C-6 12.36328125 -6 12.36328125 -8 10.36328125 C-8.56413517 4.15779443 -8.56413517 4.15779443 -6.79296875 1.66333008 C-4.41825092 -0.05853436 -2.91711704 -0.00980499 0 0 Z "
        transform="translate(30,140.63671875)" style="fill: #000000;" />
    <path
        d="M0 0 C3.5625 0.375 3.5625 0.375 5.5625 2.0625 C6.83227481 4.99885424 6.56450587 6.36898239 5.5625 9.375 C4.5725 10.86 4.5725 10.86 3.5625 12.375 C-0.49195642 12.80632515 -1.98720958 12.67519361 -5.4375 10.375 C-5.80078125 8.5 -5.80078125 8.5 -5.75 6.375 C-5.74419922 5.323125 -5.74419922 5.323125 -5.73828125 4.25 C-5.14681817 0.56295742 -3.48722365 0.3804244 0 0 Z "
        transform="translate(155.4375,71.625)" style="fill: #000000;" />
    <path
        d="M0 0 C3.5 0.25 3.5 0.25 5.5 2.25 C5.80078125 4.125 5.80078125 4.125 5.8125 6.25 C5.82925781 6.95125 5.84601562 7.6525 5.86328125 8.375 C5.68345703 9.303125 5.68345703 9.303125 5.5 10.25 C2.02957297 12.56361802 0.58165827 12.76020728 -3.5 12.25 C-5.4375 10.625 -5.4375 10.625 -6.5 8.25 C-6.18385334 2.98088898 -5.67193396 0.40513814 0 0 Z "
        transform="translate(44.5,71.75)" style="fill: #000000;" />
    <path
        d="M0 0 C1.8125 1.0625 1.8125 1.0625 3 3 C3.3125 6.5625 3.3125 6.5625 3 10 C1 12 1 12 -2.4375 12.3125 C-6 12 -6 12 -8 10.9375 C-9.63378851 7.77203476 -8.85267564 5.34979714 -8 2 C-4.76746204 -0.15502531 -3.74849077 -0.46856135 0 0 Z "
        transform="translate(136,141)" style="fill: #000000;" />
    <path
        d="M0 0 C0.99 0.66 1.98 1.32 3 2 C3.37331109 5.42201828 3.63763183 7.90185629 1.875 10.9375 C-0.88980433 12.50422245 -2.88188517 12.38976435 -6 12 C-7.875 10.875 -7.875 10.875 -9 9 C-9.39365568 5.85075452 -9.52854531 3.88090884 -7.875 1.125 C-5.14747535 -0.51151479 -3.12026907 -0.32502803 0 0 Z "
        transform="translate(125,72)" style="fill: #000000;" />
    <path
        d="M0 0 C6.32597793 -0.35807422 6.32597793 -0.35807422 9 1.0625 C10.61647822 4.19442656 9.78665296 6.67185286 9 10 C7 12 7 12 4.0625 12.3125 C1 12 1 12 -0.875 10.9375 C-2.58196395 7.99772876 -2.18799766 5.32129197 -2 2 C-1.34 2 -0.68 2 0 2 C0 1.34 0 0.68 0 0 Z "
        transform="translate(74,72)" style="fill: #000000;" />
    <path
        d="M0 0 C2 3 2 3 1.75 6.0625 C1 9 1 9 -1 11 C-4.10347254 11.33015665 -6.15781176 11.50531294 -8.875 9.875 C-10.52854531 7.11909116 -10.39365568 5.14924548 -10 2 C-7.65569181 -2.27491494 -4.20074737 -1.06928115 0 0 Z "
        transform="translate(93,120)" style="fill: #000000;" />
</svg>