<svg width="32" height="11" viewBox="0 0 32 11" fill="none" xmlns="http://www.w3.org/2000/svg">
<path d="M5.16234 10.3335H0V5.42927H10.3182C10.1837 8.16043 7.92684 10.3335 5.16234 10.3335Z" fill="#7BCD54"/>
<path d="M5.16234 0.00889587H0V4.91309H10.3182C10.1837 2.18196 7.92684 0.00889587 5.16234 0.00889587Z" fill="#7BCD54"/>
<path d="M26.8438 0.00889587C24.0794 0.00889587 21.8225 2.18196 21.688 4.91309H31.9998C31.8653 2.18196 29.6084 0.00889587 26.8438 0.00889587Z" fill="#7BCD54"/>
<path d="M26.8438 10.3335C24.0794 10.3335 21.8225 8.16043 21.688 5.42927H31.9998C31.8653 8.16043 29.6084 10.3335 26.8438 10.3335Z" fill="#7BCD54"/>
<path d="M10.8408 0.00892258V5.17125C10.8408 7.93575 13.0139 10.1926 15.745 10.3271V0.00892258H10.8408Z" fill="#7BCD54"/>
<path d="M21.1655 10.3335H16.2612V0.00882816H21.1655V5.17116V10.3335Z" fill="#7BCD54"/>
</svg>
