<svg width="275" height="196" viewBox="0 0 275 196" fill="none" xmlns="http://www.w3.org/2000/svg">
    <path fill-rule="evenodd" clip-rule="evenodd"
        d="M275 0L178.514 195.039H0.0152733V68.2293C0.0152733 68.2293 -1.36311 48.2431 22.0692 24.1215C45.5015 -0.000168258 70.3121 0 70.3121 0H275ZM167.487 163.336V32.3913C167.487 32.3913 130.96 31.0129 104.771 33.0804C93.087 34.0029 84.0958 39.2831 78.5824 50.3103C70.7064 66.0624 42.0555 163.336 42.0555 163.336H86.8525L95.8119 130.945H124.068V163.336H167.487ZM124.068 64.7829V99.2422H104.771C104.771 99.2422 109.596 74.4315 113.731 68.918C117.866 63.4046 124.068 64.7829 124.068 64.7829Z"
        fill="#187ADC" />
</svg>