<svg width="1913" height="228" viewBox="0 0 1913 228" fill="none" xmlns="http://www.w3.org/2000/svg">
<g clip-path="url(#clip0_2272_111)">
<path d="M208.49 212.74C208.49 210.66 207.97 209.09 206.93 208.05C206.1 207.2 205.02 206.78 203.68 206.78C202.13 206.78 200.9 207.34 199.98 208.47C199.11 209.55 198.67 210.98 198.67 212.74C198.67 214.87 199.19 216.49 200.23 217.62C201.1 218.6 202.25 219.09 203.67 219.09C205.26 219.09 206.48 218.51 207.3 217.34C208.09 216.26 208.48 214.73 208.48 212.75L208.49 212.74ZM198.29 221.22H195.77V198.27H198.83V206.94C200.13 205.09 201.98 204.17 204.38 204.17C206.78 204.17 208.61 205.02 209.93 206.72C211.1 208.25 211.68 210.28 211.68 212.81C211.68 215.81 210.88 218.1 209.29 219.7C207.95 221.04 206.24 221.71 204.16 221.71C201.8 221.71 200.01 220.82 198.77 219.03L198.29 221.23V221.22Z" fill="#00BCEB"/>
<path d="M228.38 204.64L222.61 221.44C221.85 223.67 221.11 225.19 220.41 226C219.58 226.96 218.51 227.43 217.19 227.43C216.64 227.43 215.98 227.33 215.21 227.14V224.65C215.8 224.8 216.34 224.87 216.8 224.87C217.46 224.87 217.97 224.64 218.33 224.18C218.69 223.72 219.15 222.73 219.7 221.2H218.71L212.62 204.62H215.94L220.63 218.71L225.32 204.62H228.38V204.64Z" fill="#00BCEB"/>
<path d="M265.88 198.26V221.39H271.66V198.26H265.88ZM257.72 204.79C257.72 202.92 257.66 201.23 257.74 199.56C257.78 198.71 257.38 198.37 256.69 198.31C254.67 198.14 252.61 197.75 250.62 197.97C240.93 199.05 237.5 209.17 241.61 216.16C244.81 221.62 251.58 222.99 257.06 221.26C257.31 221.18 257.66 220.88 257.67 220.67C257.72 218.79 257.7 216.91 257.7 215.3C255.75 215.55 253.98 215.97 252.2 215.96C249.08 215.95 246.68 213.65 246.39 210.72C246.06 207.37 247.79 204.77 250.92 203.89C253.23 203.24 255.39 203.87 257.72 204.79ZM319.08 198.62C312.61 196.62 306.53 198.34 303.39 203.01C300.43 207.41 300.71 213.54 304.06 217.64C307.31 221.62 313.92 223.13 319.06 221.03C319.08 220.78 319.11 220.51 319.11 220.24C319.11 218.51 319.11 216.79 319.11 214.95C318.64 215.12 318.28 215.35 317.9 215.39C316.11 215.59 314.27 216.09 312.54 215.84C309.3 215.38 307.55 212.53 307.87 208.94C308.13 206.05 310.65 203.65 313.68 203.7C315.48 203.73 317.27 204.19 319.08 204.45V198.62ZM279.55 216.41C279.55 217.58 279.51 219.07 279.59 220.57C279.61 220.87 280.06 221.37 280.34 221.39C283.18 221.53 286.07 221.94 288.86 221.61C293.84 221.02 296.75 216.49 295.31 212.08C294.51 209.61 292.58 208.34 290.27 207.5C289.25 207.13 288.15 206.93 287.23 206.39C286.61 206.03 285.83 205.18 285.89 204.64C285.95 204.07 286.87 203.34 287.53 203.16C288.59 202.88 289.77 202.93 290.89 202.99C291.9 203.04 292.9 203.3 293.94 203.47V198.23C291.42 198.13 288.93 197.83 286.47 197.98C282.64 198.21 280.18 200.66 279.62 204.36C279.16 207.44 280.95 210.12 284.47 211.54C285.56 211.98 286.71 212.27 287.79 212.73C288.7 213.11 289.66 213.77 289.26 214.84C289 215.53 288.08 216.4 287.41 216.44C284.87 216.6 282.31 216.44 279.54 216.41H279.55Z" fill="#00BCEB"/>
<mask id="mask0_2272_111" style="mask-type:luminance" maskUnits="userSpaceOnUse" x="0" y="0" width="553" height="228">
<path d="M552.73 0H0V227.44H552.73V0Z" fill="white"/>
</mask>
<g mask="url(#mask0_2272_111)">
<path d="M337.55 215.98C334.15 215.98 331.41 213.21 331.48 209.84C331.55 206.43 334.16 203.89 337.6 203.9C341.13 203.9 343.75 206.51 343.74 209.96C343.72 213.37 341.04 215.98 337.56 215.98H337.55ZM337.63 197.87C330.53 197.87 325.3 203.02 325.3 209.98C325.3 216.8 330.6 221.97 337.6 221.97C344.64 221.97 349.96 216.75 349.95 209.85C349.95 203 344.66 197.86 337.63 197.86V197.87Z" fill="#00BCEB"/>
<path d="M8.00556e-05 120.66C0.0200801 125.21 3.78008 128.86 8.34008 128.84L90.7101 128.66C95.3301 128.64 98.9901 124.96 98.9701 120.4C98.9501 115.87 95.2501 112.19 90.6301 112.21L8.26008 112.39C3.71008 112.41 -0.0199199 116.12 8.00556e-05 120.66Z" fill="#00BCEB"/>
</g>
<path d="M55.92 186.93C58.21 190.86 63.29 192.14 67.23 189.85L102.06 169.53C106.05 167.2 107.38 162.18 105.09 158.25C102.81 154.33 97.77 153 93.78 155.33L58.95 175.65C55.01 177.95 53.64 183.02 55.92 186.94V186.93Z" fill="#00BCEB"/>
<mask id="mask1_2272_111" style="mask-type:luminance" maskUnits="userSpaceOnUse" x="0" y="0" width="553" height="228">
<path d="M552.73 0H0V227.44H552.73V0Z" fill="white"/>
</mask>
<g mask="url(#mask1_2272_111)">
<path d="M110.53 210.93C114.48 213.19 119.52 211.76 121.78 207.8L132.61 192.36C134.9 188.35 133.54 183.33 129.59 181.07C125.65 178.82 120.62 180.19 118.33 184.2L107.5 199.65C105.24 203.61 106.59 208.69 110.52 210.94L110.53 210.93Z" fill="#00BCEB"/>
<path d="M230.64 1.07C226.69 -1.19 221.65 0.24 219.38 4.2L178.35 75.63C176.06 79.64 177.42 84.66 181.37 86.91C185.31 89.16 190.34 87.79 192.63 83.78L233.66 12.36C235.92 8.4 234.57 3.32 230.64 1.07Z" fill="#74BF4B"/>
</g>
<path d="M92.2301 65.39C88.7401 68.31 88.3301 73.53 91.2501 77.03L101.97 92.56C104.93 96.1 110.11 96.57 113.6 93.65C117.08 90.74 117.55 85.55 114.58 82.01L103.86 66.48C100.93 62.98 95.7001 62.48 92.2301 65.39Z" fill="#FF6D2D"/>
<path d="M146.46 21.06C141.91 21.08 138.26 24.84 138.28 29.4L138.46 69.73C138.48 74.35 142.16 78.01 146.72 77.99C151.25 77.97 154.93 74.27 154.91 69.65L154.73 29.32C154.71 24.76 151 21.04 146.47 21.06H146.46Z" fill="#0051AF"/>
<path d="M195.81 99.71H210.62V141.92C210.62 150.15 214.65 154.26 222.71 154.26C227.4 154.26 231.06 152.57 233.69 149.2C235.83 146.32 236.9 142.78 236.9 138.59V99.72H251.71V163.89H239.49L237.89 156.73C233.28 162.74 226.86 165.74 218.64 165.74C211.07 165.74 205.27 163.44 201.24 158.83C197.62 154.63 195.81 148.88 195.81 141.55V99.71Z" fill="white"/>
<path d="M299.9 153.02V164.25C296.44 165.24 293.15 165.73 290.03 165.73C283.69 165.73 278.88 163.84 275.59 160.05C272.79 156.84 271.39 152.52 271.39 147.09V111.05H261.76V99.7H271.39L272.38 84.27H286.2V99.7H299.78V111.05H286.2V147.58C286.2 151.86 288.38 154 292.74 154C294.63 154 297.02 153.67 299.9 153.01V153.02Z" fill="white"/>
<path d="M321.19 145.61C322.34 151.78 326.99 154.87 335.13 154.87C339.65 154.87 343.07 154.01 345.37 152.28C347.26 150.8 348.21 148.87 348.21 146.48C348.21 143.44 346.56 141.17 343.27 139.69C341.38 138.87 337.22 137.72 330.81 136.24C322.91 134.43 317.28 131.96 313.9 128.84C310.52 125.8 308.84 121.81 308.84 116.87C308.84 110.62 311.39 105.8 316.49 102.43C321.01 99.39 327.23 97.86 335.12 97.86C343.01 97.86 349.81 99.79 354.74 103.66C359.02 106.95 361.69 111.39 362.76 116.99H347.7C346.47 111.48 342.19 108.72 334.87 108.72C327.55 108.72 323.76 110.98 323.76 115.51C323.76 117.81 324.7 119.54 326.6 120.69C328.49 121.84 332.32 123.12 338.08 124.52C346.97 126.58 353.13 128.88 356.59 131.43C360.95 134.64 363.13 139.16 363.13 145C363.13 151.66 360.42 156.89 354.98 160.67C350.04 164.04 343.38 165.73 334.99 165.73C326.19 165.73 319.15 163.63 313.89 159.44C309.45 155.9 306.86 151.3 306.11 145.62H321.17L321.19 145.61Z" fill="white"/>
<path d="M388.51 163.88H373.7V75.03H388.51V106.38C393.12 100.7 399.33 97.86 407.14 97.86C414.95 97.86 420.76 100.25 424.79 105.02C428.41 109.22 430.22 114.94 430.22 122.17V163.88H415.41V122.54C415.41 113.74 411.34 109.33 403.19 109.33C398.66 109.33 395.04 110.89 392.33 114.02C389.78 116.9 388.51 120.56 388.51 125V163.87V163.88Z" fill="white"/>
<path d="M457.52 163.88H442.71V99.71H457.52V163.88Z" fill="white"/>
<path d="M509.41 74.9V86.5C505.38 85.43 502.17 84.9 499.79 84.9C495.02 84.9 492.63 87.16 492.63 91.69V99.71H506.58V111.06H492.63V163.88H477.82V111.06H468.19V99.71H477.82V92.43C477.82 86.01 479.79 81.08 483.74 77.62C487.2 74.66 491.72 73.18 497.32 73.18C500.94 73.18 504.97 73.76 509.41 74.91V74.9Z" fill="white"/>
<path d="M552.73 153.02V164.25C549.28 165.24 545.98 165.73 542.86 165.73C536.52 165.73 531.71 163.84 528.42 160.05C525.62 156.84 524.22 152.52 524.22 147.09V111.05H514.59V99.7H524.22L525.21 84.27H539.03V99.7H552.61V111.05H539.03V147.58C539.03 151.86 541.21 154 545.57 154C547.46 154 549.85 153.67 552.73 153.01V153.02Z" fill="white"/>
<path d="M460.46 78.18C460.46 83.77 455.92 88.31 450.33 88.31C444.74 88.31 440.2 83.77 440.2 78.18C440.2 72.59 444.73 68.05 450.33 68.05C455.93 68.05 460.46 72.59 460.46 78.18Z" fill="white"/>
<path d="M151.94 152.04C140.84 152.04 131.84 143.04 131.84 131.94C131.84 120.84 140.84 111.84 151.94 111.84C163.04 111.84 172.04 120.84 172.04 131.94C172.04 143.04 163.04 152.04 151.94 152.04ZM151.94 97.76C133.06 97.76 117.76 113.06 117.76 131.94C117.76 150.82 133.06 166.12 151.94 166.12C170.82 166.12 186.12 150.82 186.12 131.94C186.12 113.06 170.82 97.76 151.94 97.76Z" fill="white"/>
</g>
<path d="M705.995 163.375H691.708L682.731 140.364H639.362L630.259 163.375H616.73L654.156 72.3398H668.696L705.995 163.375ZM661.236 85.2365L643.535 129.869H678.558L661.236 85.2365ZM712.86 167.801H725.883C726.473 171.172 728.159 173.786 730.94 175.64C733.806 177.494 737.557 178.422 742.193 178.422C748.684 178.422 753.531 176.736 756.734 173.364C759.431 170.498 760.78 166.494 760.78 161.352V152.881C755.891 158.613 748.6 161.479 738.906 161.479C730.14 161.479 723.017 158.318 717.538 151.996C712.396 146.096 709.825 138.425 709.825 128.984C709.825 118.026 712.944 109.555 719.182 103.57C724.492 98.344 731.32 95.7309 739.665 95.7309C749.105 95.7309 756.228 99.2712 761.033 106.352L762.929 97.6275H772.918V161.985C772.918 170.245 769.925 176.736 763.941 181.456C758.546 185.839 751.423 188.031 742.573 188.031C733.385 188.031 726.178 185.966 720.952 181.835C716.569 178.379 713.871 173.701 712.86 167.801ZM722.469 129.237C722.469 136.402 724.576 142.007 728.791 146.053C732.247 149.425 736.504 151.111 741.561 151.111C748.22 151.111 753.32 148.919 756.86 144.536C759.895 140.827 761.412 135.854 761.412 129.616C761.412 121.609 759.347 115.497 755.217 111.283C751.761 107.827 747.209 106.099 741.561 106.099C735.324 106.099 730.519 108.248 727.147 112.547C724.028 116.593 722.469 122.157 722.469 129.237ZM835.426 144.41H848.575C846.721 151.069 843.054 156.295 837.575 160.088C832.433 163.544 826.28 165.272 819.115 165.272C808.747 165.272 800.655 161.985 794.839 155.41C789.529 149.256 786.873 140.954 786.873 130.501C786.873 118.616 790.245 109.597 796.989 103.444C802.552 98.3018 809.717 95.7309 818.483 95.7309C828.767 95.7309 836.522 99.0605 841.748 105.72C846.805 112.126 849.334 121.271 849.334 133.157H799.264C799.77 140.912 802.13 146.686 806.345 150.479C809.801 153.513 814.184 155.03 819.495 155.03C823.625 155.03 827.207 153.893 830.242 151.617C832.771 149.678 834.499 147.276 835.426 144.41ZM818.736 105.467C813.341 105.467 809 107.153 805.713 110.524C802.594 113.643 800.613 117.984 799.77 123.547H836.943C836.522 117.225 834.414 112.505 830.621 109.386C827.587 106.773 823.625 105.467 818.736 105.467ZM876.025 163.375H863.887V97.6275H873.876L875.267 105.972C880.156 99.1448 886.815 95.7309 895.244 95.7309C902.999 95.7309 908.941 98.1332 913.072 102.938C916.696 107.237 918.509 113.095 918.509 120.513V163.375H906.371V120.639C906.371 110.946 901.692 106.099 892.336 106.099C887.447 106.099 883.443 107.785 880.324 111.156C877.458 114.191 876.025 118.068 876.025 122.789V163.375ZM964.96 153.64V164.008C961.841 164.851 958.849 165.272 955.983 165.272C949.914 165.272 945.362 163.375 942.327 159.582C939.714 156.463 938.408 152.291 938.408 147.065V107.995H928.672V97.6275H938.408L939.167 81.8227H950.546V97.6275H964.707V107.995H950.546V147.318C950.546 152.207 952.864 154.651 957.5 154.651C959.692 154.651 962.178 154.314 964.96 153.64ZM1014.91 72.3398H1027.81V163.375H1014.91V72.3398ZM1105.44 163.375H1095.45L1093.3 154.145C1088.24 161.563 1080.95 165.272 1071.42 165.272C1062.24 165.272 1054.99 161.942 1049.68 155.283C1044.79 149.13 1042.34 140.996 1042.34 130.881C1042.34 118.658 1045.46 109.471 1051.7 103.317C1056.93 98.2597 1063.75 95.7309 1072.18 95.7309C1081.29 95.7309 1088.32 99.1448 1093.3 105.972V72.3398H1105.44V163.375ZM1054.99 131.134C1054.99 139.31 1057.01 145.505 1061.06 149.72C1064.43 153.176 1068.77 154.904 1074.08 154.904C1080.65 154.904 1085.75 152.417 1089.38 147.444C1092.41 143.145 1093.93 137.751 1093.93 131.26C1093.93 122.747 1091.91 116.256 1087.86 111.789C1084.4 107.995 1079.81 106.099 1074.08 106.099C1067.67 106.099 1062.83 108.417 1059.54 113.053C1056.5 117.268 1054.99 123.294 1054.99 131.134ZM1167.94 144.41H1181.09C1179.24 151.069 1175.57 156.295 1170.09 160.088C1164.95 163.544 1158.8 165.272 1151.63 165.272C1141.27 165.272 1133.17 161.985 1127.36 155.41C1122.05 149.256 1119.39 140.954 1119.39 130.501C1119.39 118.616 1122.76 109.597 1129.51 103.444C1135.07 98.3018 1142.23 95.7309 1151 95.7309C1161.28 95.7309 1169.04 99.0605 1174.27 105.72C1179.32 112.126 1181.85 121.271 1181.85 133.157H1131.78C1132.29 140.912 1134.65 146.686 1138.86 150.479C1142.32 153.513 1146.7 155.03 1152.01 155.03C1156.14 155.03 1159.73 153.893 1162.76 151.617C1165.29 149.678 1167.02 147.276 1167.94 144.41ZM1151.25 105.467C1145.86 105.467 1141.52 107.153 1138.23 110.524C1135.11 113.643 1133.13 117.984 1132.29 123.547H1169.46C1169.04 117.225 1166.93 112.505 1163.14 109.386C1160.1 106.773 1156.14 105.467 1151.25 105.467ZM1208.54 163.375H1196.41V97.6275H1206.39L1207.78 105.972C1212.67 99.1448 1219.33 95.7309 1227.76 95.7309C1235.52 95.7309 1241.46 98.1332 1245.59 102.938C1249.21 107.237 1251.03 113.095 1251.03 120.513V163.375H1238.89V120.639C1238.89 110.946 1234.21 106.099 1224.85 106.099C1219.96 106.099 1215.96 107.785 1212.84 111.156C1209.98 114.191 1208.54 118.068 1208.54 122.789V163.375ZM1297.48 153.64V164.008C1294.36 164.851 1291.37 165.272 1288.5 165.272C1282.43 165.272 1277.88 163.375 1274.85 159.582C1272.23 156.463 1270.93 152.291 1270.93 147.065V107.995H1261.19V97.6275H1270.93L1271.68 81.8227H1283.06V97.6275H1297.23V107.995H1283.06V147.318C1283.06 152.207 1285.38 154.651 1290.02 154.651C1292.21 154.651 1294.7 154.314 1297.48 153.64ZM1321.79 86.6274H1308.13V72.3398H1321.79V86.6274ZM1321.03 163.375H1308.89V97.6275H1321.03V163.375ZM1368.11 153.64V164.008C1364.99 164.851 1361.99 165.272 1359.13 165.272C1353.06 165.272 1348.51 163.375 1345.47 159.582C1342.86 156.463 1341.55 152.291 1341.55 147.065V107.995H1331.82V97.6275H1341.55L1342.31 81.8227H1353.69V97.6275H1367.85V107.995H1353.69V147.318C1353.69 152.207 1356.01 154.651 1360.65 154.651C1362.84 154.651 1365.32 154.314 1368.11 153.64ZM1434.39 97.6275L1411.51 164.26C1408.47 173.111 1405.56 179.138 1402.78 182.341C1399.5 186.134 1395.24 188.031 1390.01 188.031C1387.82 188.031 1385.21 187.652 1382.17 186.893V177.031C1384.53 177.621 1386.64 177.916 1388.5 177.916C1391.11 177.916 1393.13 176.989 1394.56 175.134C1396 173.364 1397.81 169.444 1400 163.375H1396.08L1371.93 97.6275H1385.08L1403.67 153.513L1422.25 97.6275H1434.39ZM1537.5 138.72C1537.5 135.685 1536.83 133.283 1535.48 131.513C1533.96 129.406 1531.18 127.467 1527.13 125.697C1523.09 123.927 1516.98 121.904 1508.8 119.628C1497.84 116.593 1490.3 112.842 1486.17 108.375C1482.79 104.75 1481.11 99.9034 1481.11 93.8343C1481.11 86.5009 1484.31 80.6848 1490.72 76.3859C1496.62 72.4241 1504.29 70.4433 1513.73 70.4433C1524.27 70.4433 1532.82 72.9299 1539.4 77.9031C1545.3 82.2863 1548.75 88.0182 1549.76 95.0987H1536.49C1535.73 90.2941 1533.2 86.7117 1528.9 84.3515C1525.11 82.1599 1520.05 81.0641 1513.73 81.0641C1506.65 81.0641 1501.42 82.4127 1498.05 85.1101C1495.35 87.2174 1494.01 89.9569 1494.01 93.3286C1494.01 95.5202 1494.34 97.3325 1495.02 98.7654C1495.78 100.114 1497.04 101.336 1498.81 102.432C1502.1 104.624 1508.46 107.026 1517.9 109.639C1531.05 113.348 1539.94 117.563 1544.58 122.283C1548.46 126.16 1550.4 131.471 1550.4 138.214C1550.4 146.222 1546.9 152.839 1539.9 158.065C1533.33 162.87 1524.98 165.272 1514.87 165.272C1504.33 165.272 1495.61 162.448 1488.7 156.801C1482.71 151.912 1479.13 145.59 1477.95 137.835H1491.22C1492.07 143.398 1494.72 147.655 1499.19 150.605C1503.24 153.303 1508.38 154.651 1514.61 154.651C1522.37 154.651 1528.31 152.881 1532.44 149.341C1535.81 146.475 1537.5 142.935 1537.5 138.72ZM1609.74 144.41H1622.89C1621.03 151.069 1617.37 156.295 1611.89 160.088C1606.74 163.544 1600.59 165.272 1593.43 165.272C1583.06 165.272 1574.97 161.985 1569.15 155.41C1563.84 149.256 1561.18 140.954 1561.18 130.501C1561.18 118.616 1564.56 109.597 1571.3 103.444C1576.86 98.3018 1584.03 95.7309 1592.79 95.7309C1603.08 95.7309 1610.83 99.0605 1616.06 105.72C1621.12 112.126 1623.65 121.271 1623.65 133.157H1573.58C1574.08 140.912 1576.44 146.686 1580.66 150.479C1584.11 153.513 1588.5 155.03 1593.81 155.03C1597.94 155.03 1601.52 153.893 1604.55 151.617C1607.08 149.678 1608.81 147.276 1609.74 144.41ZM1593.05 105.467C1587.65 105.467 1583.31 107.153 1580.02 110.524C1576.91 113.643 1574.92 117.984 1574.08 123.547H1611.25C1610.83 117.225 1608.73 112.505 1604.93 109.386C1601.9 106.773 1597.94 105.467 1593.05 105.467ZM1650.34 163.375H1638.2V97.6275H1648.19L1649.83 107.363C1653.54 99.6084 1659.1 95.7309 1666.52 95.7309C1668.97 95.7309 1671.37 96.0259 1673.73 96.616V108.754C1670.86 107.995 1668.29 107.616 1666.02 107.616C1661.13 107.616 1657.29 109.597 1654.51 113.559C1651.73 117.52 1650.34 123.126 1650.34 130.375V163.375ZM1725.5 97.6275H1738.14L1715 163.375H1698.57L1675.68 97.6275H1688.96L1707.16 153.513L1725.5 97.6275ZM1761.11 86.6274H1747.46V72.3398H1761.11V86.6274ZM1760.35 163.375H1748.21V97.6275H1760.35V163.375ZM1820.96 142.26H1834.23C1833.22 149.341 1829.89 155.03 1824.25 159.329C1819.1 163.291 1812.82 165.272 1805.41 165.272C1795.71 165.272 1788 161.942 1782.27 155.283C1776.96 149.13 1774.3 141.038 1774.3 131.007C1774.3 119.375 1777.51 110.356 1783.91 103.949C1789.39 98.4704 1796.51 95.7309 1805.28 95.7309C1813.37 95.7309 1820.03 97.8804 1825.26 102.179C1829.89 105.972 1832.72 110.946 1833.73 117.099H1820.33C1819.48 113.559 1817.76 110.819 1815.14 108.881C1812.61 106.942 1809.41 105.972 1805.53 105.972C1799.55 105.972 1794.95 108.333 1791.75 113.053C1788.72 117.436 1787.2 123.547 1787.2 131.387C1787.2 139.563 1789.22 145.758 1793.27 149.973C1796.47 153.345 1800.6 155.03 1805.66 155.03C1810.04 155.03 1813.62 153.766 1816.41 151.237C1818.85 149.046 1820.37 146.053 1820.96 142.26ZM1892.87 144.41H1906.01C1904.16 151.069 1900.49 156.295 1895.01 160.088C1889.87 163.544 1883.72 165.272 1876.55 165.272C1866.19 165.272 1858.09 161.985 1852.28 155.41C1846.97 149.256 1844.31 140.954 1844.31 130.501C1844.31 118.616 1847.68 109.597 1854.43 103.444C1859.99 98.3018 1867.16 95.7309 1875.92 95.7309C1886.21 95.7309 1893.96 99.0605 1899.19 105.72C1904.24 112.126 1906.77 121.271 1906.77 133.157H1856.7C1857.21 140.912 1859.57 146.686 1863.78 150.479C1867.24 153.513 1871.62 155.03 1876.93 155.03C1881.06 155.03 1884.65 153.893 1887.68 151.617C1890.21 149.678 1891.94 147.276 1892.87 144.41ZM1876.18 105.467C1870.78 105.467 1866.44 107.153 1863.15 110.524C1860.03 113.643 1858.05 117.984 1857.21 123.547H1894.38C1893.96 117.225 1891.85 112.505 1888.06 109.386C1885.03 106.773 1881.06 105.467 1876.18 105.467Z" fill="white"/>
<defs>
<clipPath id="clip0_2272_111">
<rect width="552.73" height="227.44" fill="white"/>
</clipPath>
</defs>
</svg>
