<svg width="25" height="18" viewBox="0 0 25 18" fill="none" xmlns="http://www.w3.org/2000/svg">
<path d="M16.2772 17.5122H0.700083V6.4458C0.700083 6.4458 0.579171 4.70124 2.62391 2.59619C4.66891 0.49103 6.83485 0.490723 6.83485 0.490723H24.6981L16.2772 17.5122ZM15.3153 3.31787C15.3049 3.31748 12.1235 3.19827 9.84168 3.37842C8.82222 3.45899 8.03767 3.91929 7.55653 4.88135C6.87137 6.25168 4.38492 14.6917 4.36903 14.7456H8.27821L9.06043 11.9185H11.5263V14.7456H15.3153V3.31787ZM10.6239 6.50537C10.9848 6.02439 11.5263 6.14502 11.5263 6.14502V9.15186H9.84168C9.84588 9.13029 10.2648 6.98413 10.6239 6.50537Z" fill="#187ADC"/>
</svg>
