<svg width="32" height="32" viewBox="0 0 32 32" fill="none" xmlns="http://www.w3.org/2000/svg">
<mask id="mask0_762_122226" style="mask-type:luminance" maskUnits="userSpaceOnUse" x="10" y="4" width="12" height="24">
<path d="M21.7583 4.05322H10.2383V27.9466H21.7583V4.05322Z" fill="white"/>
</mask>
<g mask="url(#mask0_762_122226)">
<path d="M15.9983 10.24C12.8165 10.24 10.2383 12.8182 10.2383 16C10.2383 19.1818 12.8165 21.76 15.9983 21.76C19.18 21.76 21.7583 19.1818 21.7583 16C21.7583 12.8182 19.18 10.24 15.9983 10.24Z" fill="#5528FF"/>
<path d="M15.9983 4.05322L21.7583 6.79797V9.17322L15.9983 6.42848L10.2383 9.17322V6.79797L15.9983 4.05322Z" fill="#5528FF"/>
<path d="M15.9983 27.9467L10.2383 25.2019V22.8267L15.9983 25.5714L21.7583 22.8267V25.2019L15.9983 27.9467Z" fill="#5528FF"/>
</g>
</svg>
