<svg width="108" height="96" viewBox="0 0 108 96" fill="none" xmlns="http://www.w3.org/2000/svg">
    <path
        d="M0.00456373 54.6826C0.0136098 56.7405 1.7143 58.3914 3.77679 58.3824L41.0328 58.301C43.1224 58.2919 44.7778 56.6275 44.7688 54.565C44.7597 52.5161 43.0863 50.8516 40.9967 50.8606L3.73605 50.942C1.67355 50.9511 -0.00900971 52.6291 3.63058e-05 54.6781L0.00456373 54.6826Z"
        fill="#04BBE9" />
    <path
        d="M25.298 84.6611C26.3337 86.4386 28.6315 87.0176 30.4135 85.9818L46.1672 76.791C47.9719 75.7372 48.5735 73.4666 47.5377 71.6891C46.5064 69.9161 44.2268 69.3145 42.4221 70.3684L26.6685 79.5591C24.8864 80.5994 24.2667 82.8926 25.298 84.6656V84.6611Z"
        fill="#04BBE9" />
    <path
        d="M49.9926 95.5162C51.7792 96.5384 54.0588 95.8916 55.0855 94.1005L59.984 87.1124C61.0197 85.2987 60.4046 83.0282 58.618 82.006C56.8359 80.9883 54.5609 81.6079 53.5251 83.4217L48.6266 90.4097C47.6044 92.2008 48.2105 94.4985 49.9926 95.5162Z"
        fill="#04BBE9" />
    <path
        d="M104.323 0.596294C102.537 -0.425906 100.257 0.220886 99.2351 2.012L80.6771 34.3199C79.6414 36.1336 80.252 38.4041 82.0431 39.4263C83.8252 40.444 86.1002 39.8289 87.136 38.0106L105.694 5.70278C106.716 3.91166 106.106 1.61397 104.328 0.596294H104.323Z"
        fill="#77C049" />
    <path
        d="M41.7152 29.6878C40.1366 31.0086 39.9512 33.3741 41.2719 34.9526L46.1206 41.9769C47.4594 43.578 49.8024 43.7906 51.3809 42.4699C52.9549 41.1537 53.1675 38.8062 51.8241 37.2051L46.9755 30.1808C45.6548 28.5978 43.2846 28.3716 41.7152 29.6878Z"
        fill="#F36D33" />
    <path
        d="M66.2482 9.63773C64.1902 9.64678 62.5393 11.3474 62.5484 13.4099L62.6298 31.6512C62.6388 33.7408 64.3033 35.3963 66.3658 35.3872C68.4147 35.3782 70.0792 33.7047 70.0702 31.615L69.9887 13.3737C69.9797 11.3112 68.3016 9.62869 66.2527 9.63773H66.2482Z"
        fill="#1B55A3" />
    <path
        d="M68.7262 68.8756C63.7057 68.8756 59.635 64.8049 59.635 59.7844C59.635 54.7638 63.7057 50.6931 68.7262 50.6931C73.7468 50.6931 77.8175 54.7638 77.8175 59.7844C77.8175 64.8049 73.7468 68.8756 68.7262 68.8756ZM68.7262 44.3247C60.1868 44.3247 53.2666 51.2449 53.2666 59.7844C53.2666 68.3238 60.1868 75.244 68.7262 75.244C77.2657 75.244 84.1859 68.3238 84.1859 59.7844C84.1859 51.2449 77.2657 44.3247 68.7262 44.3247Z"
        fill="#0F294F" />
</svg>