<svg width="110" height="45" viewBox="0 0 110 45" fill="none" xmlns="http://www.w3.org/2000/svg">
    <mask id="mask0_1183_157005" style="mask-type:luminance" maskUnits="userSpaceOnUse" x="0" y="0" width="110"
        height="45">
        <path d="M109.091 0.0561523H0V44.9456H109.091V0.0561523Z" fill="white" />
    </mask>
    <g mask="url(#mask0_1183_157005)">
        <path
            d="M41.1492 42.0444C41.1492 41.6339 41.0466 41.324 40.8413 41.1187C40.6775 40.951 40.4643 40.8681 40.1999 40.8681C39.8939 40.8681 39.6512 40.9786 39.4696 41.2016C39.2979 41.4148 39.211 41.697 39.211 42.0444C39.211 42.4648 39.3137 42.7845 39.5189 43.0076C39.6906 43.201 39.9176 43.2977 40.1979 43.2977C40.5117 43.2977 40.7525 43.1832 40.9143 42.9523C41.0703 42.7391 41.1472 42.4372 41.1472 42.0464L41.1492 42.0444ZM39.136 43.7181H38.6387V39.1885H39.2426V40.8997C39.4992 40.5345 39.8643 40.353 40.338 40.353C40.8117 40.353 41.1729 40.5207 41.4334 40.8562C41.6643 41.1582 41.7788 41.5589 41.7788 42.0582C41.7788 42.6503 41.6209 43.1023 41.3071 43.4181C41.0426 43.6826 40.7051 43.8148 40.2946 43.8148C39.8288 43.8148 39.4755 43.6391 39.2308 43.2858L39.136 43.7201V43.7181Z"
            fill="#00BCEB" />
        <path
            d="M45.0749 40.4456L43.9361 43.7614C43.7861 44.2015 43.64 44.5015 43.5019 44.6614C43.338 44.8509 43.1269 44.9436 42.8663 44.9436C42.7578 44.9436 42.6275 44.9239 42.4755 44.8864V44.3949C42.592 44.4245 42.6986 44.4384 42.7894 44.4384C42.9196 44.4384 43.0203 44.393 43.0913 44.3022C43.1624 44.2114 43.2532 44.016 43.3617 43.714H43.1663L41.9644 40.4417H42.6196L43.5453 43.2226L44.4709 40.4417H45.0749V40.4456Z"
            fill="#00BCEB" />
        <path
            d="M52.4762 39.1864V43.7515H53.617V39.1864H52.4762ZM50.8657 40.4752C50.8657 40.1061 50.8538 39.7726 50.8696 39.443C50.8775 39.2752 50.7986 39.2081 50.6624 39.1963C50.2637 39.1627 49.8571 39.0858 49.4643 39.1292C47.5518 39.3423 46.8749 41.3397 47.6861 42.7193C48.3176 43.7969 49.6538 44.0673 50.7354 43.7259C50.7847 43.7101 50.8538 43.6509 50.8558 43.6094C50.8657 43.2384 50.8617 42.8673 50.8617 42.5496C50.4768 42.5989 50.1275 42.6818 49.7762 42.6798C49.1604 42.6779 48.6867 42.2239 48.6295 41.6456C48.5643 40.9844 48.9058 40.4713 49.5235 40.2976C49.9795 40.1693 50.4058 40.2936 50.8657 40.4752ZM62.9762 39.2575C61.6992 38.8627 60.4992 39.2022 59.8795 40.1239C59.2953 40.9923 59.3505 42.2022 60.0117 43.0114C60.6532 43.7969 61.9578 44.095 62.9722 43.6805C62.9762 43.6312 62.9821 43.5779 62.9821 43.5246C62.9821 43.1831 62.9821 42.8437 62.9821 42.4805C62.8893 42.514 62.8183 42.5594 62.7433 42.5673C62.39 42.6068 62.0268 42.7055 61.6854 42.6562C61.0459 42.5654 60.7005 42.0029 60.7637 41.2943C60.815 40.7239 61.3124 40.2502 61.9104 40.2601C62.2657 40.266 62.6189 40.3568 62.9762 40.4081V39.2575ZM55.1742 42.7687C55.1742 42.9996 55.1663 43.2936 55.1821 43.5897C55.186 43.6489 55.2749 43.7476 55.3301 43.7515C55.8907 43.7792 56.461 43.8601 57.0117 43.795C57.9946 43.6785 58.5689 42.7844 58.2847 41.914C58.1268 41.4265 57.7459 41.1759 57.29 41.0101C57.0887 40.9371 56.8716 40.8976 56.69 40.791C56.5676 40.72 56.4137 40.5522 56.4255 40.4456C56.4374 40.3331 56.6189 40.189 56.7492 40.1535C56.9584 40.0983 57.1913 40.1081 57.4124 40.12C57.6117 40.1298 57.8091 40.1812 58.0143 40.2147V39.1805C57.517 39.1608 57.0255 39.1015 56.54 39.1311C55.7841 39.1765 55.2985 39.6601 55.188 40.3904C55.0972 40.9983 55.4505 41.5272 56.1453 41.8075C56.3604 41.8943 56.5874 41.9515 56.8005 42.0423C56.9801 42.1173 57.1696 42.2476 57.0907 42.4588C57.0393 42.595 56.8578 42.7667 56.7255 42.7746C56.2242 42.8062 55.7189 42.7746 55.1722 42.7687H55.1742Z"
            fill="#00BCEB" />
        <mask id="mask1_1183_157005" style="mask-type:luminance" maskUnits="userSpaceOnUse" x="0" y="0" width="110"
            height="45">
            <path d="M109.091 0.0561523H0V44.9456H109.091V0.0561523Z" fill="white" />
        </mask>
        <g mask="url(#mask1_1183_157005)">
            <path
                d="M66.6219 42.6837C65.9508 42.6837 65.41 42.137 65.4238 41.4719C65.4377 40.7989 65.9528 40.2976 66.6317 40.2995C67.3284 40.2995 67.8455 40.8147 67.8436 41.4956C67.8396 42.1686 67.3107 42.6837 66.6238 42.6837H66.6219ZM66.6377 39.1094C65.2363 39.1094 64.2041 40.1258 64.2041 41.4995C64.2041 42.8456 65.2502 43.866 66.6317 43.866C68.0212 43.866 69.0712 42.8357 69.0692 41.4739C69.0692 40.1219 68.0252 39.1074 66.6377 39.1074V39.1094Z"
                fill="#00BCEB" />
            <path
                d="M1.58004e-05 23.8707C0.00396318 24.7687 0.746069 25.4891 1.64607 25.4851L17.9033 25.4496C18.8152 25.4457 19.5375 24.7193 19.5336 23.8193C19.5296 22.9253 18.7994 22.1989 17.8875 22.2029L1.63028 22.2384C0.732253 22.2424 -0.00393156 22.9746 1.58004e-05 23.8707Z"
                fill="#00BCEB" />
        </g>
        <path
            d="M11.0367 36.9503C11.4886 37.726 12.4913 37.9786 13.2689 37.5266L20.1432 33.5161C20.9307 33.0562 21.1932 32.0655 20.7413 31.2898C20.2913 30.5161 19.2965 30.2536 18.509 30.7135L11.6347 34.724C10.8571 35.1779 10.5867 36.1786 11.0367 36.9523V36.9503Z"
            fill="#00BCEB" />
        <mask id="mask2_1183_157005" style="mask-type:luminance" maskUnits="userSpaceOnUse" x="0" y="0" width="110"
            height="45">
            <path d="M109.091 0.0561523H0V44.9456H109.091V0.0561523Z" fill="white" />
        </mask>
        <g mask="url(#mask2_1183_157005)">
            <path
                d="M21.8151 41.6872C22.5947 42.1333 23.5895 41.851 24.0355 41.0694L26.173 38.0221C26.625 37.2306 26.3566 36.2398 25.577 35.7938C24.7993 35.3497 23.8066 35.6201 23.3546 36.4115L21.2171 39.4609C20.7711 40.2425 21.0375 41.2451 21.8132 41.6892L21.8151 41.6872Z"
                fill="#00BCEB" />
            <path
                d="M45.521 0.267415C44.7414 -0.178637 43.7466 0.1036 43.2986 0.885178L35.2006 14.9832C34.7486 15.7746 35.017 16.7654 35.7966 17.2095C36.5743 17.6536 37.567 17.3832 38.019 16.5918L46.117 2.4957C46.5631 1.71413 46.2966 0.711494 45.521 0.267415Z"
                fill="#74BF4B" />
        </g>
        <path
            d="M18.2032 12.962C17.5144 13.5383 17.4334 14.5686 18.0097 15.2594L20.1255 18.3245C20.7097 19.0232 21.7321 19.116 22.4209 18.5397C23.1078 17.9653 23.2005 16.941 22.6143 16.2423L20.4985 13.1772C19.9203 12.4864 18.888 12.3877 18.2032 12.962Z"
            fill="#FF6D2D" />
        <path
            d="M28.9065 4.21266C28.0085 4.21661 27.2881 4.95871 27.292 5.85871L27.3275 13.8186C27.3315 14.7304 28.0578 15.4528 28.9578 15.4488C29.8519 15.4449 30.5782 14.7146 30.5742 13.8028L30.5387 5.84293C30.5348 4.94293 29.8025 4.20871 28.9085 4.21266H28.9065Z"
            fill="#0051AF" />
        <path
            d="M38.6465 19.7358H41.5695V28.0668C41.5695 29.6911 42.3649 30.5023 43.9557 30.5023C44.8814 30.5023 45.6037 30.1687 46.1228 29.5036C46.5452 28.9352 46.7564 28.2365 46.7564 27.4095V19.7378H49.6794V32.4029H47.2675L46.9517 30.9898C46.0419 32.176 44.7748 32.7681 43.1524 32.7681C41.6583 32.7681 40.5136 32.3141 39.7182 31.4043C39.0037 30.5753 38.6465 29.4404 38.6465 27.9937V19.7358Z"
            fill="#0F294F" />
        <path
            d="M59.1907 30.2576V32.474C58.5078 32.6694 57.8585 32.7661 57.2427 32.7661C55.9914 32.7661 55.042 32.3931 54.3927 31.6451C53.8401 31.0115 53.5637 30.1589 53.5637 29.0872V21.974H51.6631V19.7339H53.5637L53.7591 16.6885H56.4868V19.7339H59.167V21.974H56.4868V29.1839C56.4868 30.0286 56.917 30.451 57.7776 30.451C58.1506 30.451 58.6223 30.3858 59.1907 30.2556V30.2576Z"
            fill="#0F294F" />
        <path
            d="M63.3928 28.7949C63.6198 30.0127 64.5376 30.6226 66.1441 30.6226C67.0362 30.6226 67.7112 30.4528 68.1652 30.1114C68.5382 29.8193 68.7257 29.4384 68.7257 28.9667C68.7257 28.3667 68.4001 27.9186 67.7507 27.6265C67.3777 27.4647 66.5566 27.2377 65.2915 26.9456C63.7323 26.5884 62.6211 26.1009 61.954 25.4851C61.2869 24.8851 60.9553 24.0976 60.9553 23.1226C60.9553 21.889 61.4586 20.9377 62.4652 20.2726C63.3573 19.6726 64.5849 19.3706 66.1422 19.3706C67.6994 19.3706 69.0415 19.7515 70.0145 20.5153C70.8593 21.1647 71.3862 22.041 71.5974 23.1463H68.6251C68.3823 22.0588 67.5376 21.514 66.0928 21.514C64.6481 21.514 63.9001 21.9601 63.9001 22.8542C63.9001 23.3081 64.0856 23.6496 64.4606 23.8765C64.8336 24.1035 65.5895 24.3561 66.7264 24.6324C68.481 25.039 69.6968 25.493 70.3797 25.9963C71.2402 26.6298 71.6705 27.5219 71.6705 28.6746C71.6705 29.989 71.1356 31.0213 70.0619 31.7673C69.0869 32.4324 67.7724 32.766 66.1165 32.766C64.3797 32.766 62.9902 32.3515 61.952 31.5246C61.0757 30.8259 60.5645 29.918 60.4165 28.7969H63.3889L63.3928 28.7949Z"
            fill="#0F294F" />
        <path
            d="M76.6794 32.4009H73.7563V14.8647H76.6794V21.0522C77.5892 19.9312 78.8149 19.3707 80.3563 19.3707C81.8978 19.3707 83.0445 19.8424 83.8399 20.7838C84.5544 21.6128 84.9116 22.7417 84.9116 24.1687V32.4009H81.9886V24.2417C81.9886 22.5049 81.1853 21.6345 79.5767 21.6345C78.6827 21.6345 77.9682 21.9424 77.4333 22.5601C76.93 23.1286 76.6794 23.8509 76.6794 24.7272V32.399V32.4009Z"
            fill="#0F294F" />
        <path d="M90.3 32.401H87.377V19.7358H90.3V32.401Z" fill="#0F294F" />
        <path
            d="M100.541 14.839V17.1285C99.7459 16.9173 99.1123 16.8127 98.6426 16.8127C97.7012 16.8127 97.2294 17.2587 97.2294 18.1528V19.7357H99.9827V21.9758H97.2294V32.4008H94.3064V21.9758H92.4058V19.7357H94.3064V18.2989C94.3064 17.0317 94.6952 16.0587 95.4748 15.3758C96.1577 14.7916 97.0498 14.4995 98.1551 14.4995C98.8696 14.4995 99.665 14.614 100.541 14.841V14.839Z"
            fill="#0F294F" />
        <path
            d="M109.092 30.2576V32.474C108.411 32.6694 107.759 32.7661 107.144 32.7661C105.892 32.7661 104.943 32.3931 104.294 31.6451C103.741 31.0115 103.465 30.1589 103.465 29.0872V21.974H101.564V19.7339H103.465L103.66 16.6885H106.388V19.7339H109.068V21.974H106.388V29.1839C106.388 30.0286 106.818 30.451 107.678 30.451C108.051 30.451 108.523 30.3858 109.092 30.2556V30.2576Z"
            fill="#0F294F" />
        <path
            d="M90.88 15.4864C90.88 16.5897 89.984 17.4857 88.8807 17.4857C87.7774 17.4857 86.8813 16.5897 86.8813 15.4864C86.8813 14.3831 87.7754 13.4871 88.8807 13.4871C89.9859 13.4871 90.88 14.3831 90.88 15.4864Z"
            fill="#0F294F" />
        <path
            d="M29.9882 30.064C27.7975 30.064 26.0211 28.2877 26.0211 26.0969C26.0211 23.9061 27.7975 22.1298 29.9882 22.1298C32.179 22.1298 33.9553 23.9061 33.9553 26.0969C33.9553 28.2877 32.179 30.064 29.9882 30.064ZM29.9882 19.3508C26.2619 19.3508 23.2422 22.3706 23.2422 26.0969C23.2422 29.8232 26.2619 32.8429 29.9882 32.8429C33.7146 32.8429 36.7343 29.8232 36.7343 26.0969C36.7343 22.3706 33.7146 19.3508 29.9882 19.3508Z"
            fill="#0F294F" />
    </g>
</svg>