<svg width="1076" height="116" viewBox="0 0 1076 116" fill="none" xmlns="http://www.w3.org/2000/svg">
    <path
        d="M0 44.47H6.1L7.2 52.77C9.2 49.57 11.8 47.1 15 45.37C18.07 43.77 21.5 42.97 25.3 42.97C32.57 42.97 38.2 45.57 42.2 50.77C45.87 55.57 47.7 61.97 47.7 69.97C47.7 79.44 45.23 86.67 40.3 91.67C36.17 95.87 30.93 97.97 24.6 97.97C20.87 97.97 17.5 97.15 14.5 95.52C11.5 93.89 9.13 91.54 7.4 88.47V114.47H0V44.47ZM39.9 69.76C39.9 62.56 38.17 57.16 34.7 53.56C31.9 50.69 28.2 49.26 23.6 49.26C18.53 49.26 14.47 51.16 11.4 54.96C8.4 58.63 6.9 63.69 6.9 70.16C6.9 77.43 8.67 82.99 12.2 86.86C15.07 90.06 18.83 91.66 23.5 91.66C28.83 91.66 32.93 89.63 35.8 85.56C38.53 81.76 39.9 76.49 39.9 69.76Z"
        fill="white" />
    <path
        d="M56.3999 70.47C56.3999 61 59.0999 53.8 64.4999 48.87C68.8999 44.94 74.4699 42.97 81.1999 42.97C89.0699 42.97 95.2299 45.57 99.6999 50.77C103.83 55.64 105.9 62.21 105.9 70.47C105.9 79.87 103.27 87.04 97.9999 91.97C93.6699 95.97 88.0699 97.97 81.1999 97.97C73.3299 97.97 67.1299 95.3 62.5999 89.97C58.4699 85.1 56.3999 78.6 56.3999 70.47ZM64.0999 70.47C64.0999 77.74 65.9699 83.3 69.6999 87.17C72.6999 90.3 76.5699 91.87 81.2999 91.87C86.7699 91.87 90.9999 89.8 93.9999 85.67C96.7999 81.94 98.1999 76.87 98.1999 70.47C98.1999 63.07 96.3999 57.47 92.7999 53.67C89.7999 50.6 85.9299 49.07 81.1999 49.07C75.7299 49.07 71.4699 51.1 68.3999 55.17C65.5299 58.97 64.0999 64.07 64.0999 70.47Z"
        fill="white" />
    <path
        d="M178.7 44.47H186.2L171.1 96.47H162.3L148.7 52.57L135.5 96.47H126.5L111 44.47H118.7L131.2 88.67L144.3 44.47H153.4L166.7 88.47L178.7 44.47Z"
        fill="white" />
    <path
        d="M230.7 81.86H238.7C237.3 87.06 234.43 91.13 230.1 94.06C226.23 96.66 221.6 97.96 216.2 97.96C208.2 97.96 201.93 95.29 197.4 89.96C193.27 85.09 191.2 78.59 191.2 70.46C191.2 61.13 193.8 53.99 199 49.06C203.33 44.99 208.83 42.96 215.5 42.96C223.3 42.96 229.3 45.59 233.5 50.86C237.43 55.93 239.4 63.03 239.4 72.16H198.8C199.13 79.03 201.17 84.16 204.9 87.56C207.97 90.29 211.83 91.66 216.5 91.66C220.23 91.66 223.43 90.66 226.1 88.66C228.37 86.86 229.9 84.59 230.7 81.86ZM215.6 48.97C210.8 48.97 206.93 50.6 204 53.87C201.2 56.87 199.53 60.97 199 66.17H231.8C231.47 60.24 229.6 55.74 226.2 52.67C223.4 50.21 219.87 48.97 215.6 48.97Z"
        fill="white" />
    <path
        d="M259.1 96.47H251.7V44.47H257.8L258.8 53.37C261.6 46.44 266.23 42.97 272.7 42.97C274.5 42.97 276.33 43.2 278.2 43.67V51.07C276.07 50.47 274.13 50.17 272.4 50.17C268.33 50.17 265.07 51.97 262.6 55.57C260.27 58.97 259.1 63.5 259.1 69.17V96.47Z"
        fill="white" />
    <path
        d="M322 81.86H330C328.6 87.06 325.73 91.13 321.4 94.06C317.53 96.66 312.9 97.96 307.5 97.96C299.5 97.96 293.23 95.29 288.7 89.96C284.57 85.09 282.5 78.59 282.5 70.46C282.5 61.13 285.1 53.99 290.3 49.06C294.63 44.99 300.13 42.96 306.8 42.96C314.6 42.96 320.6 45.59 324.8 50.86C328.73 55.93 330.7 63.03 330.7 72.16H290.1C290.43 79.03 292.47 84.16 296.2 87.56C299.27 90.29 303.13 91.66 307.8 91.66C311.53 91.66 314.73 90.66 317.4 88.66C319.67 86.86 321.2 84.59 322 81.86ZM306.9 48.97C302.1 48.97 298.23 50.6 295.3 53.87C292.5 56.87 290.83 60.97 290.3 66.17H323.1C322.77 60.24 320.9 55.74 317.5 52.67C314.7 50.21 311.17 48.97 306.9 48.97Z"
        fill="white" />
    <path
        d="M387.7 96.47H381.6L380.3 87.87C378.37 91.2 375.83 93.74 372.7 95.47C369.7 97.14 366.3 97.97 362.5 97.97C355.43 97.97 349.83 95.37 345.7 90.17C341.9 85.3 340 78.87 340 70.87C340 61.27 342.47 53.97 347.4 48.97C351.4 44.97 356.57 42.97 362.9 42.97C370.7 42.97 376.47 46.1 380.2 52.37V24.47H387.7V96.47ZM347.7 70.97C347.7 78.1 349.47 83.5 353 87.17C355.87 90.17 359.53 91.67 364 91.67C369.27 91.67 373.43 89.64 376.5 85.57C379.3 81.84 380.7 76.9 380.7 70.77C380.7 63.44 378.97 57.87 375.5 54.07C372.57 50.87 368.77 49.27 364.1 49.27C358.77 49.27 354.67 51.27 351.8 55.27C349.07 59.07 347.7 64.31 347.7 70.97Z"
        fill="white" />
    <path
        d="M438.5 96.47H432.4V24.47H439.8V52.97C443.73 46.3 449.7 42.97 457.7 42.97C464.97 42.97 470.6 45.57 474.6 50.77C478.27 55.57 480.1 61.97 480.1 69.97C480.1 79.44 477.63 86.67 472.7 91.67C468.63 95.87 463.43 97.97 457.1 97.97C449.17 97.97 443.33 94.74 439.6 88.27L438.5 96.47ZM472.3 69.76C472.3 62.56 470.57 57.16 467.1 53.56C464.3 50.69 460.6 49.26 456 49.26C450.93 49.26 446.87 51.16 443.8 54.96C440.8 58.63 439.3 63.69 439.3 70.16C439.3 77.43 441.07 82.99 444.6 86.86C447.53 90.06 451.33 91.66 456 91.66C461.33 91.66 465.43 89.63 468.3 85.56C470.97 81.76 472.3 76.49 472.3 69.76Z"
        fill="white" />
    <path
        d="M531.6 44.47L513.3 97.07C510.63 104.67 508.33 109.64 506.4 111.97C504.2 114.64 501.23 115.97 497.5 115.97C495.9 115.97 493.97 115.67 491.7 115.07V108.97C493.7 109.5 495.4 109.77 496.8 109.77C498.8 109.77 500.38 108.97 501.55 107.37C502.72 105.77 504.27 102.14 506.2 96.47H503.6L483.8 44.47H491.8L508.4 90.57L524.1 44.47H531.6Z"
        fill="white" />
    <path
        d="M1017.3 115.97H565.715V46.9591C565.715 21.0451 586.73 0.0300293 612.644 0.0300293H1075.12L1017.29 115.97H1017.3ZM608.014 40.6308L590.852 97.5443H617.844L623.26 77.7825H640.081V97.5443H666.057V18.4971H633.307C618.848 18.4971 613.203 23.3547 608.014 40.6308ZM628.574 58.5904L632.302 45.2708C634.105 38.725 634.902 37.8136 638.848 37.8136H640.091V58.5904H628.574ZM715.637 99.8022C724.338 99.8022 733.255 98.1036 740.143 95.2864V50.5738H715.296V78.3522H713.939C704.907 78.3522 698.921 70.8949 698.921 58.9322C698.921 45.043 707.051 38.2693 720.599 38.2693C728.957 38.2693 735.845 40.9829 740.246 45.8301V19.9679C734.374 17.4821 726.015 16.2392 717.999 16.2392C689.547 16.2392 671.132 33.0596 671.132 59.6054C671.132 82.9819 686.72 99.8022 715.627 99.8022H715.637ZM747.03 97.5443H772.437V57.4614C788.356 73.1528 793.328 83.3237 793.328 97.5443H817.605V18.4971H792.199V45.1466L769.278 18.4971H747.03V97.5443ZM843.354 97.5443H869.889V39.9575H872.489C880.733 39.9575 886.948 41.7597 890.552 45.8301V18.5075H822.691V45.8301C826.305 41.7701 832.52 39.9575 840.754 39.9575H843.354V97.5443ZM892.82 58.0207C892.82 82.754 910.096 99.8022 934.943 99.8022C942.059 99.8022 948.605 98.3314 952.22 96.0735V70.2113C949.392 74.6132 944.431 76.8711 938.216 76.8711C927.258 76.8711 920.599 69.6416 920.599 58.0104C920.599 46.3791 927.258 39.1497 938.216 39.1497C944.431 39.1497 949.392 41.4076 952.22 45.8094V19.9472C948.605 17.6893 942.059 16.2185 934.943 16.2185C910.096 16.2185 892.82 33.2667 892.82 58V58.0207ZM967.352 97.5443H995.586L1034.77 18.4971H1006.32L994.685 44.9187L983.167 18.4971H954.488L980.681 71.5681L967.362 97.5443H967.352Z"
        fill="#187ADC" />
</svg>