<svg width="20" height="20" viewBox="0 0 20 20" fill="none" xmlns="http://www.w3.org/2000/svg">
<path d="M10 0C15.5228 0 20 4.47715 20 10C20 15.5228 15.5228 20 10 20C4.47715 20 0 15.5228 0 10C0 4.47715 4.47715 0 10 0ZM9.92676 13.9951C8.55957 13.995 7.15586 14.5245 6.05078 15.0986C5.5074 15.381 5.05498 15.6646 4.74023 15.876C4.70661 15.8986 4.67486 15.9216 4.64453 15.9424C6.06254 17.2212 7.94019 18 10 18C12.0563 18 13.9305 17.2231 15.3477 15.9482C15.3171 15.928 15.2857 15.9057 15.252 15.8838C14.9242 15.6715 14.4545 15.3871 13.8926 15.1035C12.7499 14.5269 11.3074 13.9953 9.92676 13.9951ZM10 2C5.58172 2 2 5.58172 2 10C2 11.7259 2.54814 13.3229 3.47754 14.6299C3.55903 14.572 3.65642 14.503 3.76855 14.4277C4.1252 14.1883 4.63404 13.8693 5.24707 13.5508C5.72379 13.3031 6.27676 13.0485 6.87988 12.8311C5.82375 11.958 5.15149 10.6374 5.15137 9.16016C5.15161 6.53134 7.28228 4.39951 9.91113 4.39941C12.5399 4.39958 14.6716 6.53138 14.6719 9.16016C14.6718 10.6282 14.0057 11.9403 12.9609 12.8135C13.594 13.0338 14.1761 13.2938 14.6777 13.5469C15.307 13.8644 15.832 14.1814 16.2002 14.4199C16.3246 14.5005 16.4308 14.5737 16.5186 14.6338C17.4499 13.326 18 11.7278 18 10C18 5.58172 14.4183 2 10 2ZM9.91113 6.14355C8.24559 6.14365 6.89575 7.49465 6.89551 9.16016C6.89573 10.8257 8.24558 12.1757 9.91113 12.1758C11.5766 12.1756 12.9275 10.8256 12.9277 9.16016C12.9275 7.49469 11.5766 6.14372 9.91113 6.14355Z" fill="#187ADC"/>
</svg>
