<svg width="180" height="180" viewBox="0 0 180 180" fill="none" xmlns="http://www.w3.org/2000/svg">
<rect opacity="0.3" x="56.2217" y="8.83936" width="21.6964" height="96.4286" rx="10.8482" transform="rotate(25 56.2217 8.83936)" fill="#00B285"/>
<rect opacity="0.3" x="156.926" y="52.8347" width="21.6964" height="72.3214" rx="10.8482" transform="rotate(25 156.926 52.8347)" fill="#00B285"/>
<rect opacity="0.3" x="22.7939" y="118.527" width="21.6964" height="38.7246" rx="10.8482" transform="rotate(25 22.7939 118.527)" fill="#00B285"/>
<circle cx="89.9996" cy="90.0001" r="50.9263" fill="url(#paint0_linear_1679_198209)"/>
<path d="M111.908 75.4733C112.413 75.977 112.814 76.5755 113.088 77.2345C113.361 77.8935 113.502 78.6 113.502 79.3135C113.502 80.0271 113.361 80.7336 113.088 81.3926C112.814 82.0516 112.413 82.6501 111.908 83.1538L86.6072 108.454C86.1036 108.96 85.5051 109.361 84.8461 109.634C84.1871 109.908 83.4806 110.049 82.767 110.049C82.0535 110.049 81.347 109.908 80.688 109.634C80.029 109.361 79.4305 108.96 78.9268 108.454L68.0838 97.6111C67.5795 97.1068 67.1795 96.5081 66.9066 95.8492C66.6336 95.1903 66.4932 94.4841 66.4932 93.7709C66.4932 93.0577 66.6336 92.3515 66.9066 91.6926C67.1795 91.0337 67.5795 90.435 68.0838 89.9307C68.5881 89.4264 69.1868 89.0263 69.8457 88.7534C70.5046 88.4805 71.2109 88.34 71.9241 88.34C72.6372 88.34 73.3435 88.4805 74.0024 88.7534C74.6613 89.0263 75.26 89.4264 75.7643 89.9307L82.7715 96.9289L104.236 75.4598C104.741 74.9566 105.339 74.5577 105.998 74.2861C106.656 74.0144 107.362 73.8752 108.075 73.8765C108.787 73.8777 109.492 74.0194 110.15 74.2934C110.808 74.5674 111.405 74.9683 111.908 75.4733Z" fill="white"/>
<defs>
<linearGradient id="paint0_linear_1679_198209" x1="39.0732" y1="90.0001" x2="137.488" y2="71.605" gradientUnits="userSpaceOnUse">
<stop stop-color="#1AC1E5"/>
<stop offset="0.496062" stop-color="#4CC9B2"/>
<stop offset="1" stop-color="#A7D755"/>
</linearGradient>
</defs>
</svg>
