<svg width="378" height="45" viewBox="0 0 378 45" fill="none" xmlns="http://www.w3.org/2000/svg">
    <mask id="mask0_1183_157004" style="mask-type:luminance" maskUnits="userSpaceOnUse" x="0" y="0" width="110"
        height="45">
        <path d="M109.091 0.0561523H0V44.9456H109.091V0.0561523Z" fill="white" />
    </mask>
    <g mask="url(#mask0_1183_157004)">
        <path
            d="M41.1492 42.0444C41.1492 41.6339 41.0466 41.324 40.8413 41.1187C40.6775 40.951 40.4643 40.8681 40.1999 40.8681C39.8939 40.8681 39.6512 40.9786 39.4696 41.2016C39.2979 41.4148 39.211 41.697 39.211 42.0444C39.211 42.4648 39.3137 42.7845 39.5189 43.0076C39.6906 43.201 39.9176 43.2977 40.1979 43.2977C40.5117 43.2977 40.7525 43.1832 40.9143 42.9523C41.0703 42.7391 41.1472 42.4372 41.1472 42.0464L41.1492 42.0444ZM39.136 43.7181H38.6387V39.1885H39.2426V40.8997C39.4992 40.5345 39.8643 40.353 40.338 40.353C40.8117 40.353 41.1729 40.5207 41.4334 40.8562C41.6643 41.1582 41.7788 41.5589 41.7788 42.0582C41.7788 42.6503 41.6209 43.1023 41.3071 43.4181C41.0426 43.6826 40.7051 43.8148 40.2946 43.8148C39.8288 43.8148 39.4755 43.6391 39.2308 43.2858L39.136 43.7201V43.7181Z"
            fill="#00BCEB" />
        <path
            d="M45.0754 40.4456L43.9366 43.7614C43.7866 44.2015 43.6405 44.5015 43.5023 44.6614C43.3385 44.8509 43.1273 44.9436 42.8668 44.9436C42.7583 44.9436 42.628 44.9239 42.476 44.8864V44.3949C42.5925 44.4245 42.6991 44.4384 42.7898 44.4384C42.9201 44.4384 43.0208 44.393 43.0918 44.3022C43.1629 44.2114 43.2537 44.016 43.3622 43.714H43.1668L41.9648 40.4417H42.6201L43.5458 43.2226L44.4714 40.4417H45.0754V40.4456Z"
            fill="#00BCEB" />
        <path
            d="M52.4767 39.1864V43.7515H53.6175V39.1864H52.4767ZM50.8661 40.4752C50.8661 40.1061 50.8543 39.7726 50.8701 39.443C50.878 39.2752 50.799 39.2081 50.6629 39.1963C50.2642 39.1627 49.8576 39.0858 49.4648 39.1292C47.5523 39.3423 46.8754 41.3397 47.6865 42.7193C48.3181 43.7969 49.6543 44.0673 50.7359 43.7259C50.7852 43.7101 50.8543 43.6509 50.8563 43.6094C50.8661 43.2384 50.8622 42.8673 50.8622 42.5496C50.4773 42.5989 50.128 42.6818 49.7767 42.6798C49.1609 42.6779 48.6872 42.2239 48.63 41.6456C48.5648 40.9844 48.9063 40.4713 49.524 40.2976C49.98 40.1693 50.4063 40.2936 50.8661 40.4752ZM62.9767 39.2575C61.6997 38.8627 60.4997 39.2022 59.88 40.1239C59.2958 40.9923 59.351 42.2022 60.0122 43.0114C60.6536 43.7969 61.9582 44.095 62.9727 43.6805C62.9767 43.6312 62.9826 43.5779 62.9826 43.5246C62.9826 43.1831 62.9826 42.8437 62.9826 42.4805C62.8898 42.514 62.8188 42.5594 62.7438 42.5673C62.3905 42.6068 62.0273 42.7055 61.6859 42.6562C61.0464 42.5654 60.701 42.0029 60.7642 41.2943C60.8155 40.7239 61.3129 40.2502 61.9109 40.2601C62.2661 40.266 62.6194 40.3568 62.9767 40.4081V39.2575ZM55.1747 42.7687C55.1747 42.9996 55.1668 43.2936 55.1826 43.5897C55.1865 43.6489 55.2754 43.7476 55.3306 43.7515C55.8911 43.7792 56.4615 43.8601 57.0122 43.795C57.9951 43.6785 58.5694 42.7844 58.2852 41.914C58.1273 41.4265 57.7464 41.1759 57.2905 41.0101C57.0892 40.9371 56.8721 40.8976 56.6905 40.791C56.5681 40.72 56.4142 40.5522 56.426 40.4456C56.4379 40.3331 56.6194 40.189 56.7497 40.1535C56.9589 40.0983 57.1918 40.1081 57.4129 40.12C57.6122 40.1298 57.8096 40.1812 58.0148 40.2147V39.1805C57.5175 39.1608 57.026 39.1015 56.5405 39.1311C55.7846 39.1765 55.299 39.6601 55.1885 40.3904C55.0977 40.9983 55.451 41.5272 56.1457 41.8075C56.3609 41.8943 56.5879 41.9515 56.801 42.0423C56.9806 42.1173 57.1701 42.2476 57.0911 42.4588C57.0398 42.595 56.8582 42.7667 56.726 42.7746C56.2247 42.8062 55.7194 42.7746 55.1727 42.7687H55.1747Z"
            fill="#00BCEB" />
        <mask id="mask1_1183_157004" style="mask-type:luminance" maskUnits="userSpaceOnUse" x="0" y="0" width="110"
            height="45">
            <path d="M109.091 0.0561523H0V44.9456H109.091V0.0561523Z" fill="white" />
        </mask>
        <g mask="url(#mask1_1183_157004)">
            <path
                d="M66.6219 42.6837C65.9508 42.6837 65.41 42.137 65.4238 41.4719C65.4377 40.7989 65.9528 40.2976 66.6317 40.2995C67.3284 40.2995 67.8455 40.8147 67.8436 41.4956C67.8396 42.1686 67.3107 42.6837 66.6238 42.6837H66.6219ZM66.6377 39.1094C65.2363 39.1094 64.2041 40.1258 64.2041 41.4995C64.2041 42.8456 65.2502 43.866 66.6317 43.866C68.0212 43.866 69.0712 42.8357 69.0692 41.4739C69.0692 40.1219 68.0252 39.1074 66.6377 39.1074V39.1094Z"
                fill="#00BCEB" />
            <path
                d="M1.58004e-05 23.8707C0.00396318 24.7687 0.746069 25.4891 1.64607 25.4851L17.9033 25.4496C18.8152 25.4457 19.5375 24.7193 19.5336 23.8193C19.5296 22.9253 18.7994 22.1989 17.8875 22.2029L1.63028 22.2384C0.732253 22.2424 -0.00393156 22.9746 1.58004e-05 23.8707Z"
                fill="#00BCEB" />
        </g>
        <path
            d="M11.0371 36.9503C11.4891 37.726 12.4918 37.9786 13.2694 37.5266L20.1437 33.5161C20.9312 33.0562 21.1937 32.0655 20.7418 31.2898C20.2918 30.5161 19.297 30.2536 18.5095 30.7135L11.6352 34.724C10.8575 35.1779 10.5871 36.1786 11.0371 36.9523V36.9503Z"
            fill="#00BCEB" />
        <mask id="mask2_1183_157004" style="mask-type:luminance" maskUnits="userSpaceOnUse" x="0" y="0" width="110"
            height="45">
            <path d="M109.091 0.0561523H0V44.9456H109.091V0.0561523Z" fill="white" />
        </mask>
        <g mask="url(#mask2_1183_157004)">
            <path
                d="M21.8151 41.6872C22.5947 42.1333 23.5895 41.851 24.0355 41.0694L26.173 38.0221C26.625 37.2306 26.3566 36.2398 25.577 35.7938C24.7993 35.3497 23.8066 35.6201 23.3546 36.4115L21.2171 39.4609C20.7711 40.2425 21.0375 41.2451 21.8132 41.6892L21.8151 41.6872Z"
                fill="#00BCEB" />
            <path
                d="M45.5215 0.267415C44.7419 -0.178637 43.7471 0.1036 43.2991 0.885178L35.2011 14.9832C34.7491 15.7746 35.0175 16.7654 35.7971 17.2095C36.5747 17.6536 37.5675 17.3832 38.0195 16.5918L46.1175 2.4957C46.5636 1.71413 46.2971 0.711494 45.5215 0.267415Z"
                fill="#74BF4B" />
        </g>
        <path
            d="M18.2037 12.962C17.5148 13.5383 17.4339 14.5686 18.0102 15.2594L20.126 18.3245C20.7102 19.0232 21.7326 19.116 22.4214 18.5397C23.1082 17.9653 23.201 16.941 22.6148 16.2423L20.499 13.1772C19.9207 12.4864 18.8885 12.3877 18.2037 12.962Z"
            fill="#FF6D2D" />
        <path
            d="M28.9065 4.21266C28.0085 4.21661 27.2881 4.95871 27.292 5.85871L27.3275 13.8186C27.3315 14.7304 28.0578 15.4528 28.9578 15.4488C29.8519 15.4449 30.5782 14.7146 30.5742 13.8028L30.5387 5.84293C30.5348 4.94293 29.8025 4.20871 28.9085 4.21266H28.9065Z"
            fill="#0051AF" />
        <path
            d="M38.6465 19.7358H41.5695V28.0668C41.5695 29.6911 42.3649 30.5023 43.9557 30.5023C44.8814 30.5023 45.6037 30.1687 46.1228 29.5036C46.5452 28.9352 46.7564 28.2365 46.7564 27.4095V19.7378H49.6794V32.4029H47.2675L46.9517 30.9898C46.0419 32.176 44.7748 32.7681 43.1524 32.7681C41.6583 32.7681 40.5136 32.3141 39.7182 31.4043C39.0037 30.5753 38.6465 29.4404 38.6465 27.9937V19.7358Z"
            fill="#0F294F" />
        <path
            d="M59.1907 30.2576V32.474C58.5078 32.6694 57.8585 32.7661 57.2427 32.7661C55.9914 32.7661 55.042 32.3931 54.3927 31.6451C53.8401 31.0115 53.5637 30.1589 53.5637 29.0872V21.974H51.6631V19.7339H53.5637L53.7591 16.6885H56.4868V19.7339H59.167V21.974H56.4868V29.1839C56.4868 30.0286 56.917 30.451 57.7776 30.451C58.1506 30.451 58.6223 30.3858 59.1907 30.2556V30.2576Z"
            fill="#0F294F" />
        <path
            d="M63.3923 28.7949C63.6193 30.0127 64.5371 30.6226 66.1437 30.6226C67.0358 30.6226 67.7108 30.4528 68.1647 30.1114C68.5377 29.8193 68.7252 29.4384 68.7252 28.9667C68.7252 28.3667 68.3996 27.9186 67.7502 27.6265C67.3772 27.4647 66.5561 27.2377 65.291 26.9456C63.7318 26.5884 62.6206 26.1009 61.9535 25.4851C61.2864 24.8851 60.9548 24.0976 60.9548 23.1226C60.9548 21.889 61.4581 20.9377 62.4647 20.2726C63.3568 19.6726 64.5844 19.3706 66.1417 19.3706C67.6989 19.3706 69.041 19.7515 70.014 20.5153C70.8588 21.1647 71.3858 22.041 71.5969 23.1463H68.6246C68.3818 22.0588 67.5371 21.514 66.0923 21.514C64.6476 21.514 63.8996 21.9601 63.8996 22.8542C63.8996 23.3081 64.0851 23.6496 64.4601 23.8765C64.8331 24.1035 65.589 24.3561 66.7259 24.6324C68.4805 25.039 69.6963 25.493 70.3792 25.9963C71.2397 26.6298 71.67 27.5219 71.67 28.6746C71.67 29.989 71.1351 31.0213 70.0614 31.7673C69.0864 32.4324 67.7719 32.766 66.116 32.766C64.3792 32.766 62.9897 32.3515 61.9515 31.5246C61.0752 30.8259 60.564 29.918 60.416 28.7969H63.3884L63.3923 28.7949Z"
            fill="#0F294F" />
        <path
            d="M76.6799 32.4009H73.7568V14.8647H76.6799V21.0522C77.5897 19.9312 78.8154 19.3707 80.3568 19.3707C81.8983 19.3707 83.045 19.8424 83.8404 20.7838C84.5549 21.6128 84.9121 22.7417 84.9121 24.1687V32.4009H81.9891V24.2417C81.9891 22.5049 81.1858 21.6345 79.5772 21.6345C78.6832 21.6345 77.9687 21.9424 77.4338 22.5601C76.9305 23.1286 76.6799 23.8509 76.6799 24.7272V32.399V32.4009Z"
            fill="#0F294F" />
        <path d="M90.3 32.401H87.377V19.7358H90.3V32.401Z" fill="#0F294F" />
        <path
            d="M100.542 14.839V17.1285C99.7464 16.9173 99.1128 16.8127 98.6431 16.8127C97.7016 16.8127 97.2299 17.2587 97.2299 18.1528V19.7357H99.9832V21.9758H97.2299V32.4008H94.3069V21.9758H92.4062V19.7357H94.3069V18.2989C94.3069 17.0317 94.6957 16.0587 95.4753 15.3758C96.1582 14.7916 97.0503 14.4995 98.1556 14.4995C98.8701 14.4995 99.6655 14.614 100.542 14.841V14.839Z"
            fill="#0F294F" />
        <path
            d="M109.091 30.2576V32.474C108.41 32.6694 107.759 32.7661 107.143 32.7661C105.892 32.7661 104.942 32.3931 104.293 31.6451C103.74 31.0115 103.464 30.1589 103.464 29.0872V21.974H101.563V19.7339H103.464L103.66 16.6885H106.387V19.7339H109.067V21.974H106.387V29.1839C106.387 30.0286 106.817 30.451 107.678 30.451C108.051 30.451 108.523 30.3858 109.091 30.2556V30.2576Z"
            fill="#0F294F" />
        <path
            d="M90.8805 15.4864C90.8805 16.5897 89.9845 17.4857 88.8812 17.4857C87.7779 17.4857 86.8818 16.5897 86.8818 15.4864C86.8818 14.3831 87.7759 13.4871 88.8812 13.4871C89.9864 13.4871 90.8805 14.3831 90.8805 15.4864Z"
            fill="#0F294F" />
        <path
            d="M29.9882 30.064C27.7975 30.064 26.0211 28.2877 26.0211 26.0969C26.0211 23.9061 27.7975 22.1298 29.9882 22.1298C32.179 22.1298 33.9553 23.9061 33.9553 26.0969C33.9553 28.2877 32.179 30.064 29.9882 30.064ZM29.9882 19.3508C26.2619 19.3508 23.2422 22.3706 23.2422 26.0969C23.2422 29.8232 26.2619 32.8429 29.9882 32.8429C33.7146 32.8429 36.7343 29.8232 36.7343 26.0969C36.7343 22.3706 33.7146 19.3508 29.9882 19.3508Z"
            fill="#0F294F" />
    </g>
    <path
        d="M139.341 32.3013H136.521L134.749 27.7596H126.19L124.393 32.3013H121.723L129.109 14.3338H131.979L139.341 32.3013ZM130.507 16.8792L127.013 25.6882H133.926L130.507 16.8792ZM140.696 33.1748H143.266C143.382 33.8401 143.715 34.3561 144.264 34.722C144.83 35.0879 145.57 35.2711 146.485 35.2711C147.766 35.2711 148.723 34.9383 149.355 34.2728C149.887 33.7071 150.154 32.9168 150.154 31.902V30.2301C149.189 31.3614 147.75 31.927 145.836 31.927C144.106 31.927 142.7 31.3032 141.619 30.0554C140.604 28.8909 140.097 27.3769 140.097 25.5136C140.097 23.3508 140.712 21.6789 141.943 20.4976C142.991 19.4662 144.339 18.9505 145.986 18.9505C147.849 18.9505 149.255 19.6492 150.204 21.0467L150.578 19.3248H152.549V32.0269C152.549 33.6572 151.959 34.9383 150.777 35.8699C149.713 36.7349 148.307 37.1676 146.56 37.1676C144.747 37.1676 143.324 36.76 142.293 35.9447C141.428 35.2626 140.895 34.3393 140.696 33.1748ZM142.592 25.5635C142.592 26.9776 143.008 28.0839 143.84 28.8824C144.522 29.548 145.362 29.8807 146.36 29.8807C147.675 29.8807 148.681 29.4481 149.38 28.583C149.979 27.851 150.278 26.8695 150.278 25.6383C150.278 24.058 149.871 22.8517 149.056 22.0199C148.374 21.3378 147.475 20.9968 146.36 20.9968C145.129 20.9968 144.181 21.4209 143.515 22.2694C142.9 23.068 142.592 24.1661 142.592 25.5635ZM164.886 28.5582H167.482C167.116 29.8724 166.392 30.9039 165.31 31.6525C164.296 32.3346 163.081 32.6757 161.667 32.6757C159.621 32.6757 158.024 32.0269 156.876 30.7292C155.828 29.5148 155.304 27.8761 155.304 25.813C155.304 23.4672 155.969 21.6872 157.3 20.4728C158.398 19.4579 159.812 18.9505 161.542 18.9505C163.572 18.9505 165.103 19.6076 166.134 20.922C167.132 22.1863 167.631 23.9913 167.631 26.3372H157.749C157.849 27.8678 158.315 29.0074 159.147 29.756C159.829 30.3548 160.694 30.6544 161.742 30.6544C162.557 30.6544 163.264 30.4298 163.863 29.9806C164.362 29.5979 164.703 29.1238 164.886 28.5582ZM161.592 20.872C160.527 20.872 159.671 21.2048 159.022 21.8701C158.406 22.4857 158.015 23.3425 157.849 24.4405H165.186C165.103 23.1927 164.687 22.2611 163.938 21.6455C163.339 21.1298 162.557 20.872 161.592 20.872ZM172.899 32.3013H170.504V19.3248H172.475L172.75 20.9717C173.715 19.6242 175.029 18.9505 176.693 18.9505C178.223 18.9505 179.396 19.4246 180.211 20.3729C180.926 21.2214 181.284 22.3776 181.284 23.8417V32.3013H178.889V23.8665C178.889 21.9534 177.965 20.9968 176.119 20.9968C175.154 20.9968 174.363 21.3295 173.748 21.9949C173.182 22.5939 172.899 23.3591 172.899 24.2909V32.3013ZM190.452 30.3799V32.4262C189.837 32.5926 189.246 32.6757 188.68 32.6757C187.483 32.6757 186.584 32.3013 185.985 31.5526C185.47 30.937 185.212 30.1136 185.212 29.0822V21.371H183.29V19.3248H185.212L185.362 16.2054H187.607V19.3248H190.402V21.371H187.607V29.1321C187.607 30.097 188.065 30.5794 188.98 30.5794C189.413 30.5794 189.903 30.5129 190.452 30.3799ZM200.311 14.3338H202.857V32.3013H200.311V14.3338ZM218.179 32.3013H216.207L215.783 30.4795C214.784 31.9436 213.345 32.6757 211.464 32.6757C209.652 32.6757 208.221 32.0184 207.173 30.7042C206.208 29.4897 205.725 27.8843 205.725 25.888C205.725 23.4755 206.34 21.6623 207.572 20.4477C208.604 19.4496 209.95 18.9505 211.614 18.9505C213.412 18.9505 214.8 19.6242 215.783 20.9717V14.3338H218.179V32.3013ZM208.221 25.9379C208.221 27.5516 208.62 28.7745 209.419 29.6062C210.085 30.2883 210.941 30.6293 211.989 30.6293C213.286 30.6293 214.292 30.1385 215.009 29.157C215.607 28.3085 215.907 27.2439 215.907 25.9628C215.907 24.2826 215.508 23.0015 214.709 22.1198C214.026 21.371 213.12 20.9968 211.989 20.9968C210.724 20.9968 209.769 21.4543 209.119 22.3693C208.519 23.2012 208.221 24.3907 208.221 25.9379ZM230.514 28.5582H233.109C232.744 29.8724 232.02 30.9039 230.938 31.6525C229.924 32.3346 228.71 32.6757 227.295 32.6757C225.25 32.6757 223.652 32.0269 222.505 30.7292C221.457 29.5148 220.932 27.8761 220.932 25.813C220.932 23.4672 221.597 21.6872 222.929 20.4728C224.027 19.4579 225.44 18.9505 227.171 18.9505C229.2 18.9505 230.731 19.6076 231.763 20.922C232.76 22.1863 233.259 23.9913 233.259 26.3372H223.377C223.478 27.8678 223.944 29.0074 224.775 29.756C225.458 30.3548 226.322 30.6544 227.37 30.6544C228.185 30.6544 228.894 30.4298 229.492 29.9806C229.991 29.5979 230.333 29.1238 230.514 28.5582ZM227.22 20.872C226.156 20.872 225.3 21.2048 224.65 21.8701C224.034 22.4857 223.644 23.3425 223.478 24.4405H230.814C230.731 23.1927 230.315 22.2611 229.567 21.6455C228.967 21.1298 228.185 20.872 227.22 20.872ZM238.527 32.3013H236.133V19.3248H238.103L238.377 20.9717C239.342 19.6242 240.657 18.9505 242.321 18.9505C243.852 18.9505 245.025 19.4246 245.84 20.3729C246.554 21.2214 246.913 22.3776 246.913 23.8417V32.3013H244.517V23.8665C244.517 21.9534 243.594 20.9968 241.746 20.9968C240.781 20.9968 239.992 21.3295 239.376 21.9949C238.811 22.5939 238.527 23.3591 238.527 24.2909V32.3013ZM256.081 30.3799V32.4262C255.465 32.5926 254.875 32.6757 254.309 32.6757C253.111 32.6757 252.213 32.3013 251.615 31.5526C251.098 30.937 250.841 30.1136 250.841 29.0822V21.371H248.919V19.3248H250.841L250.989 16.2054H253.235V19.3248H256.032V21.371H253.235V29.1321C253.235 30.097 253.693 30.5794 254.609 30.5794C255.041 30.5794 255.533 30.5129 256.081 30.3799ZM260.879 17.1537H258.183V14.3338H260.879V17.1537ZM260.729 32.3013H258.333V19.3248H260.729V32.3013ZM270.021 30.3799V32.4262C269.406 32.5926 268.813 32.6757 268.249 32.6757C267.051 32.6757 266.153 32.3013 265.553 31.5526C265.038 30.937 264.779 30.1136 264.779 29.0822V21.371H262.859V19.3248H264.779L264.929 16.2054H267.175V19.3248H269.97V21.371H267.175V29.1321C267.175 30.097 267.633 30.5794 268.549 30.5794C268.981 30.5794 269.471 30.5129 270.021 30.3799ZM283.103 19.3248L278.587 32.4761C277.987 34.2228 277.413 35.4124 276.864 36.0445C276.217 36.7932 275.376 37.1676 274.344 37.1676C273.911 37.1676 273.396 37.0928 272.796 36.943V34.9965C273.262 35.113 273.679 35.1712 274.046 35.1712C274.561 35.1712 274.96 34.9882 275.242 34.6221C275.526 34.2728 275.883 33.4993 276.315 32.3013H275.542L270.775 19.3248H273.371L277.04 30.3548L280.707 19.3248H283.103ZM303.454 27.4351C303.454 26.8361 303.321 26.362 303.055 26.0127C302.755 25.5968 302.206 25.2142 301.407 24.8648C300.609 24.5155 299.404 24.1162 297.789 23.667C295.626 23.068 294.138 22.3276 293.323 21.446C292.656 20.7305 292.324 19.7739 292.324 18.5761C292.324 17.1288 292.956 15.9808 294.221 15.1324C295.385 14.3504 296.899 13.9595 298.762 13.9595C300.842 13.9595 302.53 14.4502 303.829 15.4318C304.993 16.2969 305.674 17.4282 305.873 18.8257H303.254C303.104 17.8774 302.605 17.1703 301.756 16.7045C301.008 16.272 300.009 16.0557 298.762 16.0557C297.365 16.0557 296.333 16.3219 295.667 16.8542C295.135 17.2702 294.87 17.8108 294.87 18.4763C294.87 18.9089 294.935 19.2666 295.069 19.5494C295.219 19.8155 295.468 20.0567 295.817 20.273C296.467 20.7057 297.722 21.1797 299.585 21.6955C302.181 22.4275 303.935 23.2594 304.851 24.191C305.617 24.9562 306 26.0044 306 27.3353C306 28.9158 305.309 30.2218 303.927 31.2532C302.631 32.2016 300.983 32.6757 298.987 32.6757C296.907 32.6757 295.186 32.1183 293.822 31.0038C292.64 30.0388 291.933 28.7911 291.7 27.2605H294.319C294.487 28.3584 295.01 29.1986 295.892 29.7809C296.692 30.3134 297.706 30.5794 298.936 30.5794C300.467 30.5794 301.64 30.2301 302.455 29.5314C303.12 28.9657 303.454 28.267 303.454 27.4351ZM317.711 28.5582H320.307C319.94 29.8724 319.217 30.9039 318.136 31.6525C317.119 32.3346 315.906 32.6757 314.492 32.6757C312.446 32.6757 310.849 32.0269 309.7 30.7292C308.652 29.5148 308.127 27.8761 308.127 25.813C308.127 23.4672 308.794 21.6872 310.125 20.4728C311.222 19.4579 312.637 18.9505 314.366 18.9505C316.397 18.9505 317.927 19.6076 318.959 20.922C319.958 22.1863 320.457 23.9913 320.457 26.3372H310.575C310.673 27.8678 311.139 29.0074 311.972 29.756C312.653 30.3548 313.519 30.6544 314.567 30.6544C315.383 30.6544 316.089 30.4298 316.687 29.9806C317.186 29.5979 317.528 29.1238 317.711 28.5582ZM314.417 20.872C313.352 20.872 312.495 21.2048 311.846 21.8701C311.232 22.4857 310.839 23.3425 310.673 24.4405H318.009C317.927 23.1927 317.512 22.2611 316.762 21.6455C316.164 21.1298 315.383 20.872 314.417 20.872ZM325.725 32.3013H323.329V19.3248H325.3L325.624 21.2463C326.356 19.7157 327.454 18.9505 328.918 18.9505C329.402 18.9505 329.875 19.0087 330.341 19.1251V21.5208C329.775 21.371 329.267 21.2962 328.819 21.2962C327.854 21.2962 327.096 21.6872 326.548 22.4692C325.999 23.2509 325.725 24.3574 325.725 25.7881V32.3013ZM340.559 19.3248H343.054L338.486 32.3013H335.244L330.726 19.3248H333.347L336.939 30.3548L340.559 19.3248ZM347.587 17.1537H344.893V14.3338H347.587V17.1537ZM347.437 32.3013H345.041V19.3248H347.437V32.3013ZM359.4 28.1338H362.019C361.819 29.5314 361.162 30.6544 360.049 31.5027C359.033 32.2847 357.793 32.6757 356.331 32.6757C354.416 32.6757 352.894 32.0184 351.763 30.7042C350.715 29.4897 350.19 27.8926 350.19 25.9128C350.19 23.617 350.824 21.837 352.087 20.5724C353.169 19.4911 354.574 18.9505 356.305 18.9505C357.902 18.9505 359.216 19.3747 360.248 20.2231C361.162 20.9717 361.721 21.9534 361.92 23.1678H359.275C359.108 22.4692 358.768 21.9284 358.251 21.5459C357.752 21.1632 357.12 20.9717 356.354 20.9717C355.174 20.9717 354.266 21.4377 353.634 22.3693C353.036 23.2343 352.736 24.4405 352.736 25.9878C352.736 27.6015 353.135 28.8242 353.934 29.6561C354.566 30.3217 355.381 30.6544 356.38 30.6544C357.244 30.6544 357.951 30.4047 358.502 29.9056C358.983 29.4732 359.283 28.8824 359.4 28.1338ZM373.592 28.5582H376.186C375.821 29.8724 375.096 30.9039 374.015 31.6525C373 32.3346 371.786 32.6757 370.371 32.6757C368.327 32.6757 366.728 32.0269 365.581 30.7292C364.533 29.5148 364.008 27.8761 364.008 25.813C364.008 23.4672 364.673 21.6872 366.006 20.4728C367.103 19.4579 368.518 18.9505 370.247 18.9505C372.278 18.9505 373.808 19.6076 374.84 20.922C375.836 22.1863 376.336 23.9913 376.336 26.3372H366.454C366.554 27.8678 367.02 29.0074 367.851 29.756C368.534 30.3548 369.398 30.6544 370.446 30.6544C371.261 30.6544 371.97 30.4298 372.568 29.9806C373.067 29.5979 373.409 29.1238 373.592 28.5582ZM370.298 20.872C369.233 20.872 368.376 21.2048 367.727 21.8701C367.111 22.4857 366.72 23.3425 366.554 24.4405H373.89C373.808 23.1927 373.391 22.2611 372.643 21.6455C372.045 21.1298 371.261 20.872 370.298 20.872Z"
        fill="black" />
</svg>