<svg width="255" height="45" viewBox="51 0 255 45" fill="none" xmlns="http://www.w3.org/2000/svg">
    <path
        d="M69.341 32.3013H66.521L64.749 27.7596H56.19L54.393 32.3013H51.723L59.109 14.3338H61.979L69.341 32.3013ZM60.507 16.8792L57.013 25.6882H63.926L60.507 16.8792ZM70.696 33.1748H73.266C73.382 33.8401 73.715 34.3561 74.264 34.722C74.83 35.0879 75.57 35.2711 76.485 35.2711C77.766 35.2711 78.723 34.9383 79.355 34.2728C79.887 33.7071 80.154 32.9168 80.154 31.902V30.2301C79.189 31.3614 77.75 31.927 75.836 31.927C74.106 31.927 72.7 31.3032 71.619 30.0554C70.604 28.8909 70.097 27.3769 70.097 25.5136C70.097 23.3508 70.712 21.6789 71.943 20.4976C72.991 19.4662 74.339 18.9505 75.986 18.9505C77.849 18.9505 79.255 19.6492 80.204 21.0467L80.578 19.3248H82.549V32.0269C82.549 33.6572 81.959 34.9383 80.777 35.8699C79.713 36.7349 78.307 37.1676 76.56 37.1676C74.747 37.1676 73.324 36.76 72.293 35.9447C71.428 35.2626 70.895 34.3393 70.696 33.1748ZM72.592 25.5635C72.592 26.9776 73.008 28.0839 73.84 28.8824C74.522 29.548 75.362 29.8807 76.36 29.8807C77.675 29.8807 78.681 29.4481 79.38 28.583C79.979 27.851 80.278 26.8695 80.278 25.6383C80.278 24.058 79.871 22.8517 79.056 22.0199C78.374 21.3378 77.475 20.9968 76.36 20.9968C75.129 20.9968 74.181 21.4209 73.515 22.2694C72.9 23.068 72.592 24.1661 72.592 25.5635ZM94.886 28.5582H97.482C97.116 29.8724 96.392 30.9039 95.31 31.6525C94.296 32.3346 93.081 32.6757 91.667 32.6757C89.621 32.6757 88.024 32.0269 86.876 30.7292C85.828 29.5148 85.304 27.8761 85.304 25.813C85.304 23.4672 85.969 21.6872 87.3 20.4728C88.398 19.4579 89.812 18.9505 91.542 18.9505C93.572 18.9505 95.103 19.6076 96.134 20.922C97.132 22.1863 97.631 23.9913 97.631 26.3372H87.749C87.849 27.8678 88.315 29.0074 89.147 29.756C89.829 30.3548 90.694 30.6544 91.742 30.6544C92.557 30.6544 93.264 30.4298 93.863 29.9806C94.362 29.5979 94.703 29.1238 94.886 28.5582ZM91.592 20.872C90.527 20.872 89.671 21.2048 89.022 21.8701C88.406 22.4857 88.015 23.3425 87.849 24.4405H95.186C95.103 23.1927 94.687 22.2611 93.938 21.6455C93.339 21.1298 92.557 20.872 91.592 20.872ZM102.899 32.3013H100.504V19.3248H102.475L102.75 20.9717C103.715 19.6242 105.029 18.9505 106.693 18.9505C108.223 18.9505 109.396 19.4246 110.211 20.3729C110.926 21.2214 111.284 22.3776 111.284 23.8417V32.3013H108.889V23.8665C108.889 21.9534 107.965 20.9968 106.119 20.9968C105.154 20.9968 104.363 21.3295 103.748 21.9949C103.182 22.5939 102.899 23.3591 102.899 24.2909V32.3013ZM120.452 30.3799V32.4262C119.837 32.5926 119.246 32.6757 118.68 32.6757C117.483 32.6757 116.584 32.3013 115.985 31.5526C115.47 30.937 115.212 30.1136 115.212 29.0822V21.371H113.29V19.3248H115.212L115.362 16.2054H117.607V19.3248H120.402V21.371H117.607V29.1321C117.607 30.097 118.065 30.5794 118.98 30.5794C119.413 30.5794 119.903 30.5129 120.452 30.3799ZM130.311 14.3338H132.857V32.3013H130.311V14.3338ZM148.179 32.3013H146.207L145.783 30.4795C144.784 31.9436 143.345 32.6757 141.464 32.6757C139.652 32.6757 138.221 32.0184 137.173 30.7042C136.208 29.4897 135.725 27.8843 135.725 25.888C135.725 23.4755 136.34 21.6623 137.572 20.4477C138.604 19.4496 139.95 18.9505 141.614 18.9505C143.412 18.9505 144.8 19.6242 145.783 20.9717V14.3338H148.179V32.3013ZM138.221 25.9379C138.221 27.5516 138.62 28.7745 139.419 29.6062C140.085 30.2883 140.941 30.6293 141.989 30.6293C143.286 30.6293 144.292 30.1385 145.009 29.157C145.607 28.3085 145.907 27.2439 145.907 25.9628C145.907 24.2826 145.508 23.0015 144.709 22.1198C144.026 21.371 143.12 20.9968 141.989 20.9968C140.724 20.9968 139.769 21.4543 139.119 22.3693C138.519 23.2012 138.221 24.3907 138.221 25.9379ZM160.514 28.5582H163.109C162.744 29.8724 162.02 30.9039 160.938 31.6525C159.924 32.3346 158.71 32.6757 157.295 32.6757C155.25 32.6757 153.652 32.0269 152.505 30.7292C151.457 29.5148 150.932 27.8761 150.932 25.813C150.932 23.4672 151.597 21.6872 152.929 20.4728C154.027 19.4579 155.44 18.9505 157.171 18.9505C159.2 18.9505 160.731 19.6076 161.763 20.922C162.76 22.1863 163.259 23.9913 163.259 26.3372H153.377C153.478 27.8678 153.944 29.0074 154.775 29.756C155.458 30.3548 156.322 30.6544 157.37 30.6544C158.185 30.6544 158.894 30.4298 159.492 29.9806C159.991 29.5979 160.333 29.1238 160.514 28.5582ZM157.22 20.872C156.156 20.872 155.3 21.2048 154.65 21.8701C154.034 22.4857 153.644 23.3425 153.478 24.4405H160.814C160.731 23.1927 160.315 22.2611 159.567 21.6455C158.967 21.1298 158.185 20.872 157.22 20.872ZM168.527 32.3013H166.133V19.3248H168.103L168.377 20.9717C169.342 19.6242 170.657 18.9505 172.321 18.9505C173.852 18.9505 175.025 19.4246 175.84 20.3729C176.554 21.2214 176.913 22.3776 176.913 23.8417V32.3013H174.517V23.8665C174.517 21.9534 173.594 20.9968 171.746 20.9968C170.781 20.9968 169.992 21.3295 169.376 21.9949C168.811 22.5939 168.527 23.3591 168.527 24.2909V32.3013ZM186.081 30.3799V32.4262C185.465 32.5926 184.875 32.6757 184.309 32.6757C183.111 32.6757 182.213 32.3013 181.615 31.5526C181.098 30.937 180.841 30.1136 180.841 29.0822V21.371H178.919V19.3248H180.841L180.989 16.2054H183.235V19.3248H186.032V21.371H183.235V29.1321C183.235 30.097 183.693 30.5794 184.609 30.5794C185.041 30.5794 185.533 30.5129 186.081 30.3799ZM190.879 17.1537H188.183V14.3338H190.879V17.1537ZM190.729 32.3013H188.333V19.3248H190.729V32.3013ZM200.021 30.3799V32.4262C199.406 32.5926 198.813 32.6757 198.249 32.6757C197.051 32.6757 196.153 32.3013 195.553 31.5526C195.038 30.937 194.779 30.1136 194.779 29.0822V21.371H192.859V19.3248H194.779L194.929 16.2054H197.175V19.3248H199.97V21.371H197.175V29.1321C197.175 30.097 197.633 30.5794 198.549 30.5794C198.981 30.5794 199.471 30.5129 200.021 30.3799ZM213.103 19.3248L208.587 32.4761C207.987 34.2228 207.413 35.4124 206.864 36.0445C206.217 36.7932 205.376 37.1676 204.344 37.1676C203.911 37.1676 203.396 37.0928 202.796 36.943V34.9965C203.262 35.113 203.679 35.1712 204.046 35.1712C204.561 35.1712 204.96 34.9882 205.242 34.6221C205.526 34.2728 205.883 33.4993 206.315 32.3013H205.542L200.775 19.3248H203.371L207.04 30.3548L210.707 19.3248H213.103ZM233.454 27.4351C233.454 26.8361 233.321 26.362 233.055 26.0127C232.755 25.5968 232.206 25.2142 231.407 24.8648C230.609 24.5155 229.404 24.1162 227.789 23.667C225.626 23.068 224.138 22.3276 223.323 21.446C222.656 20.7305 222.324 19.7739 222.324 18.5761C222.324 17.1288 222.956 15.9808 224.221 15.1324C225.385 14.3504 226.899 13.9595 228.762 13.9595C230.842 13.9595 232.53 14.4502 233.829 15.4318C234.993 16.2969 235.674 17.4282 235.873 18.8257H233.254C233.104 17.8774 232.605 17.1703 231.756 16.7045C231.008 16.272 230.009 16.0557 228.762 16.0557C227.365 16.0557 226.333 16.3219 225.667 16.8542C225.135 17.2702 224.87 17.8108 224.87 18.4763C224.87 18.9089 224.935 19.2666 225.069 19.5494C225.219 19.8155 225.468 20.0567 225.817 20.273C226.467 20.7057 227.722 21.1797 229.585 21.6955C232.181 22.4275 233.935 23.2594 234.851 24.191C235.617 24.9562 236 26.0044 236 27.3353C236 28.9158 235.309 30.2218 233.927 31.2532C232.631 32.2016 230.983 32.6757 228.987 32.6757C226.907 32.6757 225.186 32.1183 223.822 31.0038C222.64 30.0388 221.933 28.7911 221.7 27.2605H224.319C224.487 28.3584 225.01 29.1986 225.892 29.7809C226.692 30.3134 227.706 30.5794 228.936 30.5794C230.467 30.5794 231.64 30.2301 232.455 29.5314C233.12 28.9657 233.454 28.267 233.454 27.4351ZM247.711 28.5582H250.307C249.94 29.8724 249.217 30.9039 248.136 31.6525C247.119 32.3346 245.906 32.6757 244.492 32.6757C242.446 32.6757 240.849 32.0269 239.7 30.7292C238.652 29.5148 238.127 27.8761 238.127 25.813C238.127 23.4672 238.794 21.6872 240.125 20.4728C241.222 19.4579 242.637 18.9505 244.366 18.9505C246.397 18.9505 247.927 19.6076 248.959 20.922C249.958 22.1863 250.457 23.9913 250.457 26.3372H240.575C240.673 27.8678 241.139 29.0074 241.972 29.756C242.653 30.3548 243.519 30.6544 244.567 30.6544C245.383 30.6544 246.089 30.4298 246.687 29.9806C247.186 29.5979 247.528 29.1238 247.711 28.5582ZM244.417 20.872C243.352 20.872 242.495 21.2048 241.846 21.8701C241.232 22.4857 240.839 23.3425 240.673 24.4405H248.009C247.927 23.1927 247.512 22.2611 246.762 21.6455C246.164 21.1298 245.383 20.872 244.417 20.872ZM255.725 32.3013H253.329V19.3248H255.3L255.624 21.2463C256.356 19.7157 257.454 18.9505 258.918 18.9505C259.402 18.9505 259.875 19.0087 260.341 19.1251V21.5208C259.775 21.371 259.267 21.2962 258.819 21.2962C257.854 21.2962 257.096 21.6872 256.548 22.4692C255.999 23.2509 255.725 24.3574 255.725 25.7881V32.3013ZM270.559 19.3248H273.054L268.486 32.3013H265.244L260.726 19.3248H263.347L266.939 30.3548L270.559 19.3248ZM277.587 17.1537H274.893V14.3338H277.587V17.1537ZM277.437 32.3013H275.041V19.3248H277.437V32.3013ZM289.4 28.1338H292.019C291.819 29.5314 291.162 30.6544 290.049 31.5027C289.033 32.2847 287.793 32.6757 286.331 32.6757C284.416 32.6757 282.894 32.0184 281.763 30.7042C280.715 29.4897 280.19 27.8926 280.19 25.9128C280.19 23.617 280.824 21.837 282.087 20.5724C283.169 19.4911 284.574 18.9505 286.305 18.9505C287.902 18.9505 289.216 19.3747 290.248 20.2231C291.162 20.9717 291.721 21.9534 291.92 23.1678H289.275C289.108 22.4692 288.768 21.9284 288.251 21.5459C287.752 21.1632 287.12 20.9717 286.354 20.9717C285.174 20.9717 284.266 21.4377 283.634 22.3693C283.036 23.2343 282.736 24.4405 282.736 25.9878C282.736 27.6015 283.135 28.8242 283.934 29.6561C284.566 30.3217 285.381 30.6544 286.38 30.6544C287.244 30.6544 287.951 30.4047 288.502 29.9056C288.983 29.4732 289.283 28.8824 289.4 28.1338ZM303.592 28.5582H306.186C305.821 29.8724 305.096 30.9039 304.015 31.6525C303 32.3346 301.786 32.6757 300.371 32.6757C298.327 32.6757 296.728 32.0269 295.581 30.7292C294.533 29.5148 294.008 27.8761 294.008 25.813C294.008 23.4672 294.673 21.6872 296.006 20.4728C297.103 19.4579 298.518 18.9505 300.247 18.9505C302.278 18.9505 303.808 19.6076 304.84 20.922C305.836 22.1863 306.336 23.9913 306.336 26.3372H296.454C296.554 27.8678 297.02 29.0074 297.851 29.756C298.534 30.3548 299.398 30.6544 300.446 30.6544C301.261 30.6544 301.97 30.4298 302.568 29.9806C303.067 29.5979 303.409 29.1238 303.592 28.5582ZM300.298 20.872C299.233 20.872 298.376 21.2048 297.727 21.8701C297.111 22.4857 296.72 23.3425 296.554 24.4405H303.89C303.808 23.1927 303.391 22.2611 302.643 21.6455C302.045 21.1298 301.261 20.872 300.298 20.872Z"
        fill="black" />
</svg>