<svg width="914" height="145" viewBox="0 0 914 145" fill="none" xmlns="http://www.w3.org/2000/svg">
<g clip-path="url(#clip0_1184_157217)">
<mask id="mask0_1184_157217" style="mask-type:luminance" maskUnits="userSpaceOnUse" x="0" y="0" width="263" height="109">
<path d="M262.439 0.53125H0V108.521H262.439V0.53125Z" fill="white"/>
</mask>
<g mask="url(#mask0_1184_157217)">
<path d="M98.9917 101.541C98.9917 100.554 98.7448 99.8083 98.251 99.3145C97.8569 98.9109 97.3441 98.7115 96.7079 98.7115C95.9719 98.7115 95.3879 98.9774 94.9511 99.5139C94.538 100.027 94.3291 100.706 94.3291 101.541C94.3291 102.553 94.576 103.322 95.0698 103.858C95.4829 104.324 96.0289 104.556 96.7031 104.556C97.458 104.556 98.0373 104.281 98.4267 103.725C98.8017 103.213 98.9869 102.486 98.9869 101.546L98.9917 101.541ZM94.1487 105.568H92.9521V94.6709H94.4051V98.7875C95.0223 97.9091 95.9007 97.4722 97.0402 97.4722C98.1798 97.4722 99.0486 97.8758 99.6754 98.683C100.231 99.4095 100.506 100.373 100.506 101.575C100.506 102.999 100.126 104.086 99.3715 104.846C98.7353 105.482 97.9234 105.8 96.9358 105.8C95.8152 105.8 94.9653 105.378 94.3766 104.528L94.1487 105.572V105.568Z" fill="#00BCEB"/>
<path d="M108.436 97.6954L105.696 105.672C105.336 106.731 104.984 107.453 104.652 107.837C104.258 108.293 103.75 108.516 103.123 108.516C102.862 108.516 102.548 108.469 102.183 108.379V107.196C102.463 107.267 102.719 107.301 102.938 107.301C103.251 107.301 103.493 107.192 103.664 106.973C103.835 106.755 104.054 106.285 104.315 105.558H103.845L100.953 97.6859H102.529L104.756 104.376L106.983 97.6859H108.436V97.6954Z" fill="#00BCEB"/>
<path d="M126.241 94.6662V105.648H128.986V94.6662H126.241ZM122.367 97.7666C122.367 96.8788 122.338 96.0763 122.376 95.2834C122.395 94.8798 122.205 94.7184 121.878 94.6899C120.919 94.6092 119.941 94.424 118.996 94.5285C114.395 95.0413 112.766 99.8463 114.718 103.165C116.237 105.758 119.452 106.408 122.054 105.587C122.172 105.549 122.338 105.406 122.343 105.307C122.367 104.414 122.357 103.521 122.357 102.757C121.432 102.876 120.591 103.075 119.746 103.07C118.265 103.065 117.125 101.973 116.987 100.582C116.831 98.9916 117.652 97.7572 119.138 97.3393C120.235 97.0307 121.261 97.3298 122.367 97.7666ZM151.501 94.8371C148.429 93.8875 145.542 94.7042 144.051 96.9215C142.646 99.0106 142.779 101.921 144.369 103.868C145.912 105.758 149.051 106.475 151.491 105.477C151.501 105.359 151.515 105.231 151.515 105.102C151.515 104.281 151.515 103.464 151.515 102.591C151.292 102.671 151.121 102.781 150.941 102.8C150.091 102.895 149.217 103.132 148.396 103.013C146.857 102.795 146.026 101.442 146.178 99.7371C146.302 98.3649 147.498 97.2254 148.937 97.2491C149.792 97.2634 150.642 97.4818 151.501 97.6052V94.8371ZM132.732 103.284C132.732 103.839 132.713 104.547 132.751 105.259C132.76 105.402 132.974 105.639 133.107 105.648C134.455 105.715 135.828 105.91 137.152 105.753C139.517 105.473 140.899 103.322 140.215 101.228C139.835 100.055 138.919 99.4522 137.822 99.0534C137.337 98.8777 136.815 98.7827 136.378 98.5263C136.084 98.3554 135.714 97.9518 135.742 97.6954C135.771 97.4248 136.207 97.0782 136.521 96.9927C137.024 96.8598 137.584 96.8835 138.116 96.912C138.596 96.9357 139.071 97.0592 139.564 97.1399V94.6519C138.368 94.6044 137.186 94.462 136.018 94.5332C134.199 94.6424 133.031 95.8057 132.765 97.5625C132.547 99.0249 133.397 100.297 135.068 100.972C135.585 101.18 136.131 101.318 136.644 101.537C137.076 101.717 137.532 102.03 137.342 102.538C137.219 102.866 136.782 103.279 136.464 103.298C135.258 103.374 134.042 103.298 132.727 103.284H132.732Z" fill="#00BCEB"/>
<mask id="mask1_1184_157217" style="mask-type:luminance" maskUnits="userSpaceOnUse" x="0" y="0" width="263" height="109">
<path d="M262.439 0.53125H0V108.521H262.439V0.53125Z" fill="white"/>
</mask>
<g mask="url(#mask1_1184_157217)">
<path d="M160.27 103.08C158.656 103.08 157.355 101.764 157.388 100.164C157.422 98.5453 158.661 97.3393 160.294 97.344C161.97 97.344 163.214 98.5833 163.21 100.221C163.2 101.84 161.928 103.08 160.275 103.08H160.27ZM160.308 94.4809C156.937 94.4809 154.454 96.9262 154.454 100.231C154.454 103.469 156.971 105.924 160.294 105.924C163.637 105.924 166.163 103.445 166.158 100.169C166.158 96.9167 163.646 94.4762 160.308 94.4762V94.4809Z" fill="#00BCEB"/>
<path d="M3.80107e-05 57.8212C0.00953414 59.9816 1.7948 61.7146 3.95991 61.7051L43.0696 61.6197C45.2632 61.6102 47.001 59.8629 46.9915 57.6978C46.982 55.5469 45.2252 53.7996 43.0316 53.8091L3.92193 53.8946C1.76157 53.9041 -0.00945807 55.6656 3.80107e-05 57.8212Z" fill="#00BCEB"/>
</g>
<path d="M26.5513 89.2866C27.6386 91.1526 30.0506 91.7604 31.9214 90.6731L48.4588 81.025C50.3533 79.9187 50.9848 77.5352 49.8975 75.6692C48.8149 73.808 46.4219 73.1765 44.5275 74.2828L27.99 83.9308C26.1193 85.0229 25.4688 87.4302 26.5513 89.2914V89.2866Z" fill="#00BCEB"/>
<mask id="mask2_1184_157217" style="mask-type:luminance" maskUnits="userSpaceOnUse" x="0" y="0" width="263" height="109">
<path d="M262.439 0.53125H0V108.521H262.439V0.53125Z" fill="white"/>
</mask>
<g mask="url(#mask2_1184_157217)">
<path d="M52.4801 100.682C54.3556 101.755 56.7486 101.076 57.8216 99.1958L62.9638 91.8648C64.0511 89.9608 63.4053 87.5773 61.5299 86.5043C59.6591 85.436 57.2709 86.0864 56.1836 87.9904L51.0414 95.3261C49.9684 97.2064 50.6093 99.6184 52.4753 100.687L52.4801 100.682Z" fill="#00BCEB"/>
<path d="M109.509 1.03929C107.634 -0.03377 105.241 0.645201 104.163 2.52543L84.6817 36.4408C83.5944 38.3447 84.2401 40.7283 86.1156 41.7966C87.9863 42.8649 90.3746 42.2144 91.4619 40.3104L110.943 6.39984C112.016 4.51961 111.375 2.1076 109.509 1.03929Z" fill="#74BF4B"/>
</g>
<path d="M43.7917 31.5788C42.1346 32.9652 41.9399 35.4437 43.3264 37.1055L48.4162 44.4792C49.8216 46.16 52.2811 46.3832 53.9382 44.9968C55.5905 43.6151 55.8137 41.1508 54.4035 39.47L49.3136 32.0963C47.9224 30.4345 45.4392 30.1971 43.7917 31.5788Z" fill="#FF6D2D"/>
<path d="M69.5402 10.5306C67.3798 10.5401 65.6468 12.3253 65.6563 14.4904L65.7418 33.6393C65.7513 35.8329 67.4985 37.5707 69.6636 37.5612C71.8145 37.5517 73.5618 35.7949 73.5523 33.6013L73.4668 14.4524C73.4573 12.2873 71.6958 10.5211 69.5449 10.5306H69.5402Z" fill="#0051AF"/>
<path d="M92.9717 47.874H100.004V67.9156C100.004 71.8232 101.917 73.7746 105.744 73.7746C107.971 73.7746 109.709 72.9722 110.957 71.3721C111.973 70.0047 112.481 68.3239 112.481 66.3344V47.8788H119.513V78.347H113.711L112.951 74.9474C110.763 77.801 107.714 79.2254 103.811 79.2254C100.217 79.2254 97.4633 78.1334 95.5499 75.9445C93.8311 73.9503 92.9717 71.2202 92.9717 67.7399V47.874Z" fill="white"/>
<path d="M142.394 73.1858V78.5179C140.751 78.9879 139.189 79.2206 137.708 79.2206C134.698 79.2206 132.414 78.3232 130.852 76.5237C129.522 74.9996 128.858 72.9484 128.858 70.3702V53.2583H124.285V47.8692H128.858L129.328 40.543H135.889V47.8692H142.337V53.2583H135.889V70.6029C135.889 72.6351 136.924 73.6511 138.995 73.6511C139.892 73.6511 141.027 73.4944 142.394 73.1811V73.1858Z" fill="white"/>
<path d="M152.503 69.6676C153.049 72.5971 155.257 74.0642 159.122 74.0642C161.268 74.0642 162.892 73.6559 163.984 72.8345C164.881 72.1318 165.332 71.2154 165.332 70.0806C165.332 68.6372 164.549 67.5594 162.987 66.8567C162.089 66.4674 160.114 65.9213 157.07 65.2186C153.32 64.3592 150.646 63.1865 149.042 61.7051C147.437 60.2617 146.639 58.3672 146.639 56.0217C146.639 53.0541 147.85 50.7656 150.271 49.1655C152.417 47.7221 155.371 46.9956 159.117 46.9956C162.863 46.9956 166.092 47.912 168.433 49.7495C170.465 51.3116 171.732 53.4197 172.24 56.0786H165.09C164.506 53.4625 162.474 52.152 158.998 52.152C155.523 52.152 153.723 53.2251 153.723 55.3759C153.723 56.468 154.169 57.2894 155.072 57.8354C155.969 58.3814 157.787 58.9892 160.522 59.6539C164.743 60.632 167.668 61.7241 169.311 62.9348C171.381 64.4589 172.416 66.6051 172.416 69.3779C172.416 72.5401 171.129 75.0234 168.547 76.8181C166.201 78.4182 163.039 79.2206 159.055 79.2206C154.877 79.2206 151.534 78.2235 149.037 76.2341C146.929 74.5533 145.699 72.3692 145.343 69.6723H152.493L152.503 69.6676Z" fill="white"/>
<path d="M184.466 78.3422H177.435V36.1558H184.466V51.0409C186.655 48.344 189.604 46.9956 193.312 46.9956C197.02 46.9956 199.779 48.1303 201.692 50.3952C203.411 52.3894 204.271 55.1052 204.271 58.5381V78.3422H197.239V58.7138C197.239 54.5355 195.306 52.4416 191.437 52.4416C189.286 52.4416 187.567 53.1823 186.28 54.6684C185.069 56.0359 184.466 57.7736 184.466 59.8818V78.3375V78.3422Z" fill="white"/>
<path d="M217.233 78.3423H210.201V47.874H217.233V78.3423Z" fill="white"/>
<path d="M241.87 36.0943V41.602C239.957 41.094 238.433 40.8423 237.303 40.8423C235.038 40.8423 233.903 41.9154 233.903 44.0662V47.8742H240.527V53.2632H233.903V78.3424H226.871V53.2632H222.299V47.8742H226.871V44.4176C226.871 41.3693 227.807 39.0286 229.682 37.3857C231.325 35.9803 233.471 35.2776 236.13 35.2776C237.849 35.2776 239.762 35.553 241.87 36.099V36.0943Z" fill="white"/>
<path d="M262.439 73.1858V78.5179C260.801 78.9879 259.234 79.2206 257.753 79.2206C254.743 79.2206 252.459 78.3232 250.897 76.5237C249.567 74.9996 248.902 72.9484 248.902 70.3702V53.2583H244.33V47.8692H248.902L249.373 40.543H255.934V47.8692H262.382V53.2583H255.934V70.6029C255.934 72.6351 256.969 73.6511 259.04 73.6511C259.937 73.6511 261.072 73.4944 262.439 73.1811V73.1858Z" fill="white"/>
<path d="M218.628 37.6516C218.628 40.3057 216.473 42.4613 213.819 42.4613C211.164 42.4613 209.009 40.3057 209.009 37.6516C209.009 34.9974 211.16 32.8418 213.819 32.8418C216.477 32.8418 218.628 34.9974 218.628 37.6516Z" fill="white"/>
<path d="M72.1419 72.7207C66.8716 72.7207 62.5983 68.4474 62.5983 63.1771C62.5983 57.9067 66.8716 53.6335 72.1419 53.6335C77.4123 53.6335 81.6855 57.9067 81.6855 63.1771C81.6855 68.4474 77.4123 72.7207 72.1419 72.7207ZM72.1419 46.9482C63.1776 46.9482 55.9131 54.2128 55.9131 63.1771C55.9131 72.1414 63.1776 79.4059 72.1419 79.4059C81.1063 79.4059 88.3708 72.1414 88.3708 63.1771C88.3708 54.2128 81.1063 46.9482 72.1419 46.9482Z" fill="white"/>
</g>
<path d="M335.21 78.1025H328.426L324.164 67.1767H303.572L299.25 78.1025H292.826L310.596 34.8785H317.5L335.21 78.1025ZM313.958 41.0019L305.553 62.1937H322.182L313.958 41.0019ZM338.469 80.204H344.653C344.933 81.8045 345.733 83.0457 347.054 83.926C348.414 84.8063 350.195 85.2469 352.397 85.2469C355.479 85.2469 357.78 84.4464 359.301 82.8453C360.581 81.4845 361.222 79.5834 361.222 77.142V73.1199C358.901 75.8415 355.439 77.2023 350.836 77.2023C346.674 77.2023 343.292 75.7014 340.69 72.6997C338.249 69.8983 337.028 66.2561 337.028 61.7735C337.028 56.5705 338.509 52.5485 341.471 49.7068C343.992 47.2254 347.234 45.9847 351.196 45.9847C355.679 45.9847 359.061 47.6657 361.342 51.0277L362.242 46.8852H366.985V77.4425C366.985 81.3644 365.564 84.4464 362.723 86.6874C360.161 88.7685 356.779 89.8093 352.577 89.8093C348.215 89.8093 344.793 88.8288 342.311 86.8674C340.23 85.2265 338.949 83.0053 338.469 80.204ZM343.032 61.8936C343.032 65.2956 344.032 67.9568 346.033 69.8779C347.674 71.4789 349.695 72.2795 352.097 72.2795C355.258 72.2795 357.68 71.2387 359.361 69.1576C360.802 67.3966 361.522 65.0354 361.522 62.0735C361.522 58.2718 360.541 55.3698 358.581 53.3689C356.94 51.728 354.778 50.9075 352.097 50.9075C349.135 50.9075 346.854 51.9279 345.253 53.9691C343.772 55.8901 343.032 58.532 343.032 61.8936ZM396.664 69.0978H402.907C402.027 72.2595 400.286 74.7409 397.685 76.5418C395.243 78.1827 392.322 79.0032 388.92 79.0032C383.997 79.0032 380.155 77.4425 377.393 74.3207C374.872 71.3987 373.611 67.4569 373.611 62.4937C373.611 56.8507 375.212 52.5684 378.414 49.6469C381.055 47.2054 384.457 45.9847 388.62 45.9847C393.502 45.9847 397.185 47.5656 399.666 50.7276C402.067 53.7692 403.268 58.1113 403.268 63.7548H379.494C379.735 67.4369 380.855 70.1785 382.856 71.9794C384.497 73.42 386.578 74.1402 389.1 74.1402C391.061 74.1402 392.762 73.6004 394.203 72.5197C395.404 71.5991 396.224 70.4586 396.664 69.0978ZM388.74 50.6075C386.178 50.6075 384.117 51.408 382.556 53.0086C381.075 54.4895 380.135 56.5506 379.735 59.1919H397.384C397.185 56.1902 396.184 53.9491 394.383 52.4682C392.942 51.2276 391.061 50.6075 388.74 50.6075ZM415.941 78.1025H410.178V46.8852H414.92L415.581 50.8472C417.902 47.6056 421.064 45.9847 425.066 45.9847C428.748 45.9847 431.569 47.1253 433.531 49.4067C435.252 51.4479 436.112 54.2293 436.112 57.7514V78.1025H430.349V57.8112C430.349 53.2089 428.128 50.9075 423.685 50.9075C421.364 50.9075 419.463 51.7081 417.982 53.3086C416.621 54.7497 415.941 56.5905 415.941 58.832V78.1025ZM458.168 73.4803V78.403C456.687 78.8033 455.266 79.0032 453.905 79.0032C451.024 79.0032 448.862 78.1025 447.421 76.3015C446.181 74.8206 445.561 72.8397 445.561 70.3584V51.8078H440.938V46.8852H445.561L445.921 39.381H451.324V46.8852H458.047V51.8078H451.324V70.4785C451.324 72.7999 452.424 73.9603 454.626 73.9603C455.666 73.9603 456.847 73.8003 458.168 73.4803ZM481.884 34.8785H488.009V78.1025H481.884V34.8785ZM524.868 78.1025H520.125L519.104 73.72C516.702 77.2421 513.24 79.0032 508.715 79.0032C504.357 79.0032 500.914 77.4221 498.393 74.2604C496.071 71.3389 494.908 67.4768 494.908 62.6742C494.908 56.8706 496.389 52.5086 499.352 49.5866C501.835 47.1854 505.074 45.9847 509.076 45.9847C513.402 45.9847 516.74 47.6056 519.104 50.8472V34.8785H524.868V78.1025ZM500.914 62.7943C500.914 66.6763 501.873 69.6177 503.796 71.619C505.396 73.2599 507.457 74.0804 509.978 74.0804C513.098 74.0804 515.519 72.8996 517.243 70.5384C518.682 68.4972 519.403 65.9361 519.403 62.8541C519.403 58.8121 518.444 55.7301 516.521 53.6092C514.878 51.8078 512.699 50.9075 509.978 50.9075C506.935 50.9075 504.637 52.0081 503.075 54.2093C501.631 56.2106 500.914 59.0718 500.914 62.7943ZM554.544 69.0978H560.787C559.909 72.2595 558.166 74.7409 555.564 76.5418C553.124 78.1827 550.204 79.0032 546.799 79.0032C541.88 79.0032 538.035 77.4425 535.276 74.3207C532.755 71.3987 531.492 67.4569 531.492 62.4937C531.492 56.8507 533.092 52.5684 536.297 49.6469C538.937 47.2054 542.336 45.9847 546.5 45.9847C551.381 45.9847 555.066 47.5656 557.549 50.7276C559.947 53.7692 561.148 58.1113 561.148 63.7548H537.375C537.617 67.4369 538.737 70.1785 540.736 71.9794C542.379 73.42 544.459 74.1402 546.98 74.1402C548.941 74.1402 550.645 73.6004 552.084 72.5197C553.285 71.5991 554.107 70.4586 554.544 69.0978ZM546.619 50.6075C544.06 50.6075 541.999 51.408 540.437 53.0086C538.956 54.4895 538.016 56.5506 537.617 59.1919H555.265C555.066 56.1902 554.064 53.9491 552.264 52.4682C550.821 51.2276 548.941 50.6075 546.619 50.6075ZM573.821 78.1025H568.061V46.8852H572.8L573.46 50.8472C575.782 47.6056 578.944 45.9847 582.946 45.9847C586.631 45.9847 589.451 47.1253 591.412 49.4067C593.131 51.4479 593.995 54.2293 593.995 57.7514V78.1025H588.231V57.8112C588.231 53.2089 586.009 50.9075 581.565 50.9075C579.243 50.9075 577.344 51.7081 575.862 53.3086C574.504 54.7497 573.821 56.5905 573.821 58.832V78.1025ZM616.05 73.4803V78.403C614.568 78.8033 613.149 79.0032 611.786 79.0032C608.904 79.0032 606.744 78.1025 605.305 76.3015C604.061 74.8206 603.444 72.8397 603.444 70.3584V51.8078H598.819V46.8852H603.444L603.8 39.381H609.203V46.8852H615.931V51.8078H609.203V70.4785C609.203 72.7999 610.305 73.9603 612.508 73.9603C613.548 73.9603 614.73 73.8003 616.05 73.4803ZM627.592 41.6623H621.106V34.8785H627.592V41.6623ZM627.231 78.1025H621.467V46.8852H627.231V78.1025ZM649.585 73.4803V78.403C648.104 78.8033 646.679 79.0032 645.322 79.0032C642.439 79.0032 640.279 78.1025 638.836 76.3015C637.596 74.8206 636.974 72.8397 636.974 70.3584V51.8078H632.355V46.8852H636.974L637.335 39.381H642.739V46.8852H649.462V51.8078H642.739V70.4785C642.739 72.7999 643.84 73.9603 646.043 73.9603C647.083 73.9603 648.261 73.8003 649.585 73.4803ZM681.055 46.8852L670.192 78.5227C668.748 82.7252 667.367 85.5868 666.047 87.1076C664.489 88.9086 662.467 89.8093 659.984 89.8093C658.944 89.8093 657.704 89.6293 656.261 89.269V84.5864C657.382 84.8666 658.383 85.0066 659.267 85.0066C660.506 85.0066 661.465 84.5665 662.144 83.6857C662.828 82.8453 663.687 80.9841 664.727 78.1025H662.866L651.399 46.8852H657.643L666.469 73.42L675.291 46.8852H681.055ZM730.013 66.3962C730.013 64.9551 729.694 63.8146 729.053 62.9742C728.332 61.9738 727.012 61.0532 725.089 60.2128C723.171 59.3724 720.27 58.4118 716.386 57.3312C711.182 55.8901 707.602 54.1092 705.641 51.9882C704.036 50.267 703.238 47.9658 703.238 45.0842C703.238 41.6023 704.758 38.8407 707.801 36.7996C710.603 34.9185 714.244 33.978 718.726 33.978C723.731 33.978 727.79 35.1587 730.915 37.52C733.716 39.6011 735.354 42.3227 735.834 45.6845H729.533C729.172 43.4033 727.971 41.7023 725.929 40.5817C724.13 39.5411 721.727 39.0208 718.726 39.0208C715.365 39.0208 712.882 39.6612 711.281 40.9419C710 41.9425 709.363 43.2432 709.363 44.8441C709.363 45.8847 709.52 46.7452 709.843 47.4255C710.204 48.0658 710.802 48.646 711.642 49.1664C713.204 50.2072 716.224 51.3477 720.706 52.5884C726.95 54.3494 731.171 56.3507 733.374 58.5918C735.216 60.4326 736.138 62.9543 736.138 66.1559C736.138 69.9582 734.476 73.0999 731.152 75.5813C728.033 77.8627 724.068 79.0032 719.268 79.0032C714.263 79.0032 710.123 77.6623 706.842 74.9811C703.998 72.6598 702.298 69.6581 701.738 65.976H708.039C708.442 68.6173 709.7 70.6385 711.823 72.0392C713.746 73.3202 716.186 73.9603 719.144 73.9603C722.829 73.9603 725.649 73.1199 727.61 71.4391C729.21 70.0783 730.013 68.3975 730.013 66.3962ZM764.312 69.0978H770.556C769.673 72.2595 767.935 74.7409 765.333 76.5418C762.888 78.1827 759.968 79.0032 756.568 79.0032C751.645 79.0032 747.803 77.4425 745.04 74.3207C742.519 71.3987 741.256 67.4569 741.256 62.4937C741.256 56.8507 742.861 52.5684 746.061 49.6469C748.701 47.2054 752.105 45.9847 756.265 45.9847C761.15 45.9847 764.83 47.5656 767.313 50.7276C769.716 53.7692 770.917 58.1113 770.917 63.7548H747.143C747.381 67.4369 748.501 70.1785 750.505 71.9794C752.143 73.42 754.228 74.1402 756.749 74.1402C758.71 74.1402 760.41 73.6004 761.848 72.5197C763.049 71.5991 763.871 70.4586 764.312 69.0978ZM756.388 50.6075C753.824 50.6075 751.763 51.408 750.201 53.0086C748.725 54.4895 747.78 56.5506 747.381 59.1919H765.029C764.83 56.1902 763.833 53.9491 762.029 52.4682C760.59 51.2276 758.71 50.6075 756.388 50.6075ZM783.59 78.1025H777.825V46.8852H782.569L783.347 51.5077C785.109 47.8258 787.749 45.9847 791.272 45.9847C792.435 45.9847 793.575 46.1248 794.695 46.405V52.1681C793.333 51.8078 792.112 51.6278 791.035 51.6278C788.713 51.6278 786.889 52.5684 785.569 54.4496C784.25 56.3303 783.59 58.992 783.59 62.4339V78.1025ZM819.276 46.8852H825.277L814.29 78.1025H806.489L795.621 46.8852H801.927L810.568 73.42L819.276 46.8852ZM836.184 41.6623H829.703V34.8785H836.184V41.6623ZM835.823 78.1025H830.059V46.8852H835.823V78.1025ZM864.601 68.077H870.901C870.422 71.4391 868.841 74.1402 866.163 76.1814C863.718 78.0626 860.736 79.0032 857.218 79.0032C852.612 79.0032 848.951 77.4221 846.231 74.2604C843.709 71.3389 842.446 67.4968 842.446 62.734C842.446 57.2111 843.971 52.9288 847.009 49.8867C849.611 47.2854 852.992 45.9847 857.156 45.9847C860.997 45.9847 864.159 47.0053 866.642 49.0463C868.841 50.8472 870.185 53.2089 870.664 56.1304H864.302C863.898 54.4496 863.081 53.1486 861.837 52.2284C860.636 51.3078 859.117 50.8472 857.275 50.8472C854.435 50.8472 852.251 51.9683 850.732 54.2093C849.293 56.2904 848.571 59.1919 848.571 62.9144C848.571 66.7964 849.531 69.7378 851.453 71.7391C852.973 73.3402 854.934 74.1402 857.336 74.1402C859.416 74.1402 861.116 73.5401 862.44 72.3393C863.599 71.299 864.321 69.8779 864.601 68.077ZM898.744 69.0978H904.983C904.105 72.2595 902.362 74.7409 899.76 76.5418C897.32 78.1827 894.4 79.0032 890.995 79.0032C886.076 79.0032 882.23 77.4425 879.472 74.3207C876.951 71.3987 875.688 67.4569 875.688 62.4937C875.688 56.8507 877.288 52.5684 880.493 49.6469C883.133 47.2054 886.537 45.9847 890.696 45.9847C895.582 45.9847 899.262 47.5656 901.745 50.7276C904.143 53.7692 905.344 58.1113 905.344 63.7548H881.57C881.812 67.4369 882.933 70.1785 884.932 71.9794C886.575 73.42 888.654 74.1402 891.176 74.1402C893.137 74.1402 894.841 73.6004 896.28 72.5197C897.481 71.5991 898.302 70.4586 898.744 69.0978ZM890.82 50.6075C888.256 50.6075 886.195 51.408 884.633 53.0086C883.151 54.4895 882.211 56.5506 881.812 59.1919H899.461C899.262 56.1902 898.26 53.9491 896.46 52.4682C895.022 51.2276 893.137 50.6075 890.82 50.6075Z" fill="white"/>
<path d="M581.997 122.228H583.877L584.214 124.787C584.832 123.801 585.634 123.039 586.622 122.505C587.567 122.012 588.625 121.765 589.798 121.765C592.039 121.765 593.777 122.567 595.011 124.17C596.142 125.651 596.707 127.625 596.707 130.092C596.707 133.013 595.947 135.243 594.427 136.786C593.15 138.081 591.536 138.728 589.584 138.728C588.431 138.728 587.391 138.475 586.47 137.973C585.544 137.47 584.813 136.745 584.276 135.798V143.817H581.997V122.228ZM594.304 130.028C594.304 127.807 593.768 126.141 592.699 125.031C591.835 124.146 590.695 123.705 589.276 123.705C587.709 123.705 586.46 124.291 585.511 125.463C584.585 126.595 584.124 128.156 584.124 130.151C584.124 132.393 584.67 134.108 585.758 135.302C586.645 136.289 587.804 136.782 589.243 136.782C590.885 136.782 592.153 136.156 593.036 134.901C593.881 133.729 594.304 132.104 594.304 130.028Z" fill="white"/>
<path d="M599.39 130.247C599.39 127.326 600.225 125.105 601.892 123.585C603.245 122.372 604.964 121.765 607.039 121.765C609.47 121.765 611.369 122.567 612.746 124.17C614.018 125.673 614.659 127.699 614.659 130.247C614.659 133.146 613.847 135.357 612.224 136.878C610.885 138.112 609.161 138.728 607.039 138.728C604.612 138.728 602.699 137.905 601.303 136.261C600.031 134.759 599.39 132.754 599.39 130.247ZM601.768 130.247C601.768 132.489 602.343 134.204 603.492 135.397C604.418 136.363 605.614 136.847 607.072 136.847C608.758 136.847 610.063 136.209 610.989 134.935C611.853 133.784 612.285 132.221 612.285 130.247C612.285 127.964 611.73 126.237 610.619 125.065C609.693 124.118 608.501 123.646 607.039 123.646C605.353 123.646 604.038 124.273 603.093 125.527C602.205 126.7 601.768 128.273 601.768 130.247Z" fill="white"/>
<path d="M637.112 122.228H639.425L634.767 138.266H632.056L627.858 124.726L623.789 138.266H621.012L616.23 122.228H618.604L622.46 135.86L626.501 122.228H629.307L633.409 135.798L637.112 122.228Z" fill="white"/>
<path d="M653.151 133.76H655.616C655.188 135.363 654.3 136.619 652.966 137.522C651.77 138.324 650.345 138.726 648.679 138.726C646.21 138.726 644.277 137.902 642.881 136.258C641.604 134.756 640.968 132.751 640.968 130.244C640.968 127.366 641.77 125.164 643.375 123.643C644.709 122.388 646.404 121.762 648.46 121.762C650.867 121.762 652.719 122.573 654.015 124.198C655.226 125.762 655.834 127.952 655.834 130.768H643.313C643.413 132.887 644.045 134.469 645.194 135.518C646.138 136.36 647.33 136.782 648.769 136.782C649.923 136.782 650.91 136.474 651.732 135.857C652.43 135.302 652.904 134.601 653.151 133.76ZM648.493 123.615C647.012 123.615 645.82 124.118 644.913 125.127C644.049 126.052 643.537 127.316 643.375 128.92H653.488C653.389 127.091 652.809 125.704 651.76 124.757C650.901 123.998 649.809 123.615 648.493 123.615Z" fill="white"/>
<path d="M661.912 138.266H659.628V122.228H661.508L661.817 124.972C662.681 122.835 664.11 121.765 666.104 121.765C666.66 121.765 667.225 121.836 667.799 121.981V124.263C667.144 124.078 666.546 123.986 666.014 123.986C664.756 123.986 663.749 124.541 662.99 125.651C662.273 126.7 661.912 128.097 661.912 129.846V138.266Z" fill="white"/>
<path d="M681.312 133.76H683.777C683.345 135.363 682.461 136.619 681.127 137.522C679.931 138.324 678.502 138.726 676.84 138.726C674.371 138.726 672.438 137.902 671.038 136.258C669.765 134.756 669.129 132.751 669.129 130.244C669.129 127.366 669.931 125.164 671.531 123.643C672.87 122.388 674.565 121.762 676.621 121.762C679.029 121.762 680.88 122.573 682.172 124.198C683.387 125.762 683.995 127.952 683.995 130.768H671.47C671.574 132.887 672.201 134.469 673.355 135.518C674.3 136.36 675.491 136.782 676.93 136.782C678.079 136.782 679.067 136.474 679.893 135.857C680.591 135.302 681.066 134.601 681.312 133.76ZM676.655 123.615C675.173 123.615 673.977 124.118 673.075 125.127C672.21 126.052 671.698 127.316 671.531 128.92H681.65C681.55 127.091 680.971 125.704 679.921 124.757C679.057 123.998 677.97 123.615 676.655 123.615Z" fill="white"/>
<path d="M701.572 138.266H699.692L699.293 135.613C698.694 136.64 697.911 137.424 696.947 137.957C696.021 138.473 694.972 138.728 693.799 138.728C691.62 138.728 689.892 137.926 688.619 136.323C687.446 134.821 686.862 132.838 686.862 130.37C686.862 127.409 687.622 125.158 689.146 123.615C690.376 122.382 691.971 121.765 693.923 121.765C696.33 121.765 698.11 122.73 699.259 124.664V116.059H701.572V138.266ZM689.236 130.401C689.236 132.6 689.782 134.265 690.87 135.397C691.758 136.323 692.888 136.786 694.265 136.786C695.888 136.786 697.17 136.159 698.12 134.904C698.984 133.753 699.416 132.23 699.416 130.339C699.416 128.079 698.88 126.36 697.811 125.188C696.909 124.201 695.736 123.708 694.293 123.708C692.65 123.708 691.387 124.325 690.499 125.558C689.659 126.731 689.236 128.347 689.236 130.401Z" fill="white"/>
<path d="M717.241 138.266H715.36V116.059H717.644V124.849C718.855 122.792 720.697 121.765 723.166 121.765C725.407 121.765 727.145 122.567 728.375 124.17C729.51 125.651 730.075 127.625 730.075 130.092C730.075 133.013 729.31 135.243 727.791 136.786C726.537 138.081 724.932 138.728 722.981 138.728C720.531 138.728 718.731 137.732 717.582 135.737L717.241 138.266ZM727.667 130.028C727.667 127.807 727.136 126.141 726.062 125.031C725.198 124.146 724.059 123.705 722.639 123.705C721.077 123.705 719.824 124.291 718.879 125.463C717.953 126.595 717.487 128.155 717.487 130.151C717.487 132.393 718.033 134.108 719.126 135.302C720.028 136.289 721.2 136.782 722.639 136.782C724.282 136.782 725.55 136.156 726.433 134.901C727.259 133.729 727.667 132.103 727.667 130.028Z" fill="white"/>
<path d="M745.957 122.228L740.311 138.451C739.49 140.795 738.777 142.328 738.184 143.046C737.505 143.87 736.589 144.28 735.44 144.28C734.946 144.28 734.352 144.188 733.65 144.003V142.121C734.267 142.285 734.789 142.368 735.221 142.368C735.838 142.368 736.328 142.121 736.688 141.628C737.049 141.134 737.529 140.015 738.122 138.266H737.32L731.214 122.228H733.683L738.801 136.446L743.644 122.228H745.957Z" fill="white"/>
<path d="M895.763 144.28H756.479V122.995C756.479 115.003 762.96 108.521 770.955 108.521H913.596L895.758 144.28H895.763ZM769.526 121.044L764.232 138.598H772.555L774.227 132.502H779.416V138.598H787.426V114.217H777.327C772.869 114.217 771.126 115.715 769.526 121.044ZM775.865 126.583L777.019 122.475C777.574 120.456 777.821 120.175 779.037 120.175H779.421V126.583H775.865ZM802.72 139.294C805.402 139.294 808.152 138.77 810.279 137.901V124.11H802.615V132.678H802.198C799.41 132.678 797.563 130.378 797.563 126.688C797.563 122.404 800.07 120.315 804.249 120.315C806.827 120.315 808.954 121.152 810.312 122.647V114.67C808.498 113.904 805.92 113.52 803.446 113.52C794.672 113.52 788.993 118.708 788.993 126.896C788.993 134.106 793.803 139.294 802.715 139.294H802.72ZM812.401 138.598H820.24V126.235C825.15 131.074 826.683 134.211 826.683 138.598H834.171V114.217H826.332V122.436L819.262 114.217H812.401V138.598ZM842.11 138.598H850.295V120.836H851.098C853.643 120.836 855.556 121.392 856.667 122.647V114.22H835.738V122.647C836.854 121.395 838.772 120.836 841.307 120.836H842.11V138.598ZM857.37 126.407C857.37 134.036 862.697 139.294 870.361 139.294C872.554 139.294 874.572 138.84 875.688 138.144V130.167C874.819 131.525 873.285 132.221 871.372 132.221C867.991 132.221 865.935 129.991 865.935 126.404C865.935 122.816 867.991 120.587 871.372 120.587C873.285 120.587 874.819 121.283 875.688 122.641V114.664C874.572 113.967 872.554 113.514 870.361 113.514C862.697 113.514 857.37 118.772 857.37 126.401V126.407ZM880.355 138.598H889.063L901.147 114.217H892.372L888.788 122.366L885.236 114.217H876.391L884.467 130.586L880.36 138.598H880.355Z" fill="#187ADC"/>
</g>
<defs>
<clipPath id="clip0_1184_157217">
<rect width="914" height="143.866" fill="white" transform="translate(0 0.53125)"/>
</clipPath>
</defs>
</svg>
