<svg width="650" height="145" viewBox="0 0 650 145" fill="none" xmlns="http://www.w3.org/2000/svg">
    <g>
        <path
            d="M65.21 78.1025H58.426L54.164 67.1767H33.572L29.25 78.1025H22.826L40.596 34.8785H47.5L65.21 78.1025ZM43.958 41.0019L35.553 62.1937H52.182L43.958 41.0019ZM68.469 80.204H74.653C74.933 81.8045 75.733 83.0457 77.054 83.926C78.414 84.8063 80.195 85.2469 82.397 85.2469C85.479 85.2469 87.78 84.4464 89.301 82.8453C90.581 81.4845 91.222 79.5834 91.222 77.142V73.1199C88.901 75.8415 85.439 77.2023 80.836 77.2023C76.674 77.2023 73.292 75.7014 70.69 72.6997C68.249 69.8983 67.028 66.2561 67.028 61.7735C67.028 56.5705 68.509 52.5485 71.471 49.7068C73.992 47.2254 77.234 45.9847 81.196 45.9847C85.679 45.9847 89.061 47.6657 91.342 51.0277L92.242 46.8852H96.985V77.4425C96.985 81.3644 95.564 84.4464 92.723 86.6874C90.161 88.7685 86.779 89.8093 82.577 89.8093C78.215 89.8093 74.793 88.8288 72.311 86.8674C70.23 85.2265 68.949 83.0053 68.469 80.204ZM73.032 61.8936C73.032 65.2956 74.032 67.9568 76.033 69.8779C77.674 71.4789 79.695 72.2795 82.097 72.2795C85.258 72.2795 87.68 71.2387 89.361 69.1576C90.802 67.3966 91.522 65.0354 91.522 62.0735C91.522 58.2718 90.541 55.3698 88.581 53.3689C86.94 51.728 84.778 50.9075 82.097 50.9075C79.135 50.9075 76.854 51.9279 75.253 53.9691C73.772 55.8901 73.032 58.532 73.032 61.8936ZM126.664 69.0978H132.907C132.027 72.2595 130.286 74.7409 127.685 76.5418C125.243 78.1827 122.322 79.0032 118.92 79.0032C113.997 79.0032 110.155 77.4425 107.393 74.3207C104.872 71.3987 103.611 67.4569 103.611 62.4937C103.611 56.8507 105.212 52.5684 108.414 49.6469C111.055 47.2054 114.457 45.9847 118.62 45.9847C123.502 45.9847 127.185 47.5656 129.666 50.7276C132.067 53.7692 133.268 58.1113 133.268 63.7548H109.494C109.735 67.4369 110.855 70.1785 112.856 71.9794C114.497 73.42 116.578 74.1402 119.1 74.1402C121.061 74.1402 122.762 73.6004 124.203 72.5197C125.404 71.5991 126.224 70.4586 126.664 69.0978ZM118.74 50.6075C116.178 50.6075 114.117 51.408 112.556 53.0086C111.075 54.4895 110.135 56.5506 109.735 59.1919H127.384C127.185 56.1902 126.184 53.9491 124.383 52.4682C122.942 51.2276 121.061 50.6075 118.74 50.6075ZM145.941 78.1025H140.178V46.8852H144.92L145.581 50.8472C147.902 47.6056 151.064 45.9847 155.066 45.9847C158.748 45.9847 161.569 47.1253 163.531 49.4067C165.252 51.4479 166.112 54.2293 166.112 57.7514V78.1025H160.349V57.8112C160.349 53.2089 158.128 50.9075 153.685 50.9075C151.364 50.9075 149.463 51.7081 147.982 53.3086C146.621 54.7497 145.941 56.5905 145.941 58.832V78.1025ZM188.168 73.4803V78.403C186.687 78.8033 185.266 79.0032 183.905 79.0032C181.024 79.0032 178.862 78.1025 177.421 76.3015C176.181 74.8206 175.561 72.8397 175.561 70.3584V51.8078H170.938V46.8852H175.561L175.921 39.381H181.324V46.8852H188.047V51.8078H181.324V70.4785C181.324 72.7999 182.424 73.9603 184.626 73.9603C185.666 73.9603 186.847 73.8003 188.168 73.4803ZM211.884 34.8785H218.009V78.1025H211.884V34.8785ZM254.868 78.1025H250.125L249.104 73.72C246.702 77.2421 243.24 79.0032 238.715 79.0032C234.357 79.0032 230.914 77.4221 228.393 74.2604C226.071 71.3389 224.908 67.4768 224.908 62.6742C224.908 56.8706 226.389 52.5086 229.352 49.5866C231.835 47.1854 235.074 45.9847 239.076 45.9847C243.402 45.9847 246.74 47.6056 249.104 50.8472V34.8785H254.868V78.1025ZM230.914 62.7943C230.914 66.6763 231.873 69.6177 233.796 71.619C235.396 73.2599 237.457 74.0804 239.978 74.0804C243.098 74.0804 245.519 72.8996 247.243 70.5384C248.682 68.4972 249.403 65.9361 249.403 62.8541C249.403 58.8121 248.444 55.7301 246.521 53.6092C244.878 51.8078 242.699 50.9075 239.978 50.9075C236.935 50.9075 234.637 52.0081 233.075 54.2093C231.631 56.2106 230.914 59.0718 230.914 62.7943ZM284.544 69.0978H290.787C289.909 72.2595 288.166 74.7409 285.564 76.5418C283.124 78.1827 280.204 79.0032 276.799 79.0032C271.88 79.0032 268.035 77.4425 265.276 74.3207C262.755 71.3987 261.492 67.4569 261.492 62.4937C261.492 56.8507 263.092 52.5684 266.297 49.6469C268.937 47.2054 272.336 45.9847 276.5 45.9847C281.381 45.9847 285.066 47.5656 287.549 50.7276C289.947 53.7692 291.148 58.1113 291.148 63.7548H267.375C267.617 67.4369 268.737 70.1785 270.736 71.9794C272.379 73.42 274.459 74.1402 276.98 74.1402C278.941 74.1402 280.645 73.6004 282.084 72.5197C283.285 71.5991 284.107 70.4586 284.544 69.0978ZM276.619 50.6075C274.06 50.6075 271.999 51.408 270.437 53.0086C268.956 54.4895 268.016 56.5506 267.617 59.1919H285.265C285.066 56.1902 284.064 53.9491 282.264 52.4682C280.821 51.2276 278.941 50.6075 276.619 50.6075ZM303.821 78.1025H298.061V46.8852H302.8L303.46 50.8472C305.782 47.6056 308.944 45.9847 312.946 45.9847C316.631 45.9847 319.451 47.1253 321.412 49.4067C323.131 51.4479 323.995 54.2293 323.995 57.7514V78.1025H318.231V57.8112C318.231 53.2089 316.009 50.9075 311.565 50.9075C309.243 50.9075 307.344 51.7081 305.862 53.3086C304.504 54.7497 303.821 56.5905 303.821 58.832V78.1025ZM346.05 73.4803V78.403C344.568 78.8033 343.149 79.0032 341.786 79.0032C338.904 79.0032 336.744 78.1025 335.305 76.3015C334.061 74.8206 333.444 72.8397 333.444 70.3584V51.8078H328.819V46.8852H333.444L333.8 39.381H339.203V46.8852H345.931V51.8078H339.203V70.4785C339.203 72.7999 340.305 73.9603 342.508 73.9603C343.548 73.9603 344.73 73.8003 346.05 73.4803ZM357.592 41.6623H351.106V34.8785H357.592V41.6623ZM357.231 78.1025H351.467V46.8852H357.231V78.1025ZM379.585 73.4803V78.403C378.104 78.8033 376.679 79.0032 375.322 79.0032C372.439 79.0032 370.279 78.1025 368.836 76.3015C367.596 74.8206 366.974 72.8397 366.974 70.3584V51.8078H362.355V46.8852H366.974L367.335 39.381H372.739V46.8852H379.462V51.8078H372.739V70.4785C372.739 72.7999 373.84 73.9603 376.043 73.9603C377.083 73.9603 378.261 73.8003 379.585 73.4803ZM411.055 46.8852L400.192 78.5227C398.748 82.7252 397.367 85.5868 396.047 87.1076C394.489 88.9086 392.467 89.8093 389.984 89.8093C388.944 89.8093 387.704 89.6293 386.261 89.269V84.5864C387.382 84.8666 388.383 85.0066 389.267 85.0066C390.506 85.0066 391.465 84.5665 392.144 83.6857C392.828 82.8453 393.687 80.9841 394.727 78.1025H392.866L381.399 46.8852H387.643L396.469 73.42L405.291 46.8852H411.055ZM460.013 66.3962C460.013 64.9551 459.694 63.8146 459.053 62.9742C458.332 61.9738 457.012 61.0532 455.089 60.2128C453.171 59.3724 450.27 58.4118 446.386 57.3312C441.182 55.8901 437.602 54.1092 435.641 51.9882C434.036 50.267 433.238 47.9658 433.238 45.0842C433.238 41.6023 434.758 38.8407 437.801 36.7996C440.603 34.9185 444.244 33.978 448.726 33.978C453.731 33.978 457.79 35.1587 460.915 37.52C463.716 39.6011 465.354 42.3227 465.834 45.6845H459.533C459.172 43.4033 457.971 41.7023 455.929 40.5817C454.13 39.5411 451.727 39.0208 448.726 39.0208C445.365 39.0208 442.882 39.6612 441.281 40.9419C440 41.9425 439.363 43.2432 439.363 44.8441C439.363 45.8847 439.52 46.7452 439.843 47.4255C440.204 48.0658 440.802 48.646 441.642 49.1664C443.204 50.2072 446.224 51.3477 450.706 52.5884C456.95 54.3494 461.171 56.3507 463.374 58.5918C465.216 60.4326 466.138 62.9543 466.138 66.1559C466.138 69.9582 464.476 73.0999 461.152 75.5813C458.033 77.8627 454.068 79.0032 449.268 79.0032C444.263 79.0032 440.123 77.6623 436.842 74.9811C433.998 72.6598 432.298 69.6581 431.738 65.976H438.039C438.442 68.6173 439.7 70.6385 441.823 72.0392C443.746 73.3202 446.186 73.9603 449.144 73.9603C452.829 73.9603 455.649 73.1199 457.61 71.4391C459.21 70.0783 460.013 68.3975 460.013 66.3962ZM494.312 69.0978H500.556C499.673 72.2595 497.935 74.7409 495.333 76.5418C492.888 78.1827 489.968 79.0032 486.568 79.0032C481.645 79.0032 477.803 77.4425 475.04 74.3207C472.519 71.3987 471.256 67.4569 471.256 62.4937C471.256 56.8507 472.861 52.5684 476.061 49.6469C478.701 47.2054 482.105 45.9847 486.265 45.9847C491.15 45.9847 494.83 47.5656 497.313 50.7276C499.716 53.7692 500.917 58.1113 500.917 63.7548H477.143C477.381 67.4369 478.501 70.1785 480.505 71.9794C482.143 73.42 484.228 74.1402 486.749 74.1402C488.71 74.1402 490.41 73.6004 491.848 72.5197C493.049 71.5991 493.871 70.4586 494.312 69.0978ZM486.388 50.6075C483.824 50.6075 481.763 51.408 480.201 53.0086C478.725 54.4895 477.78 56.5506 477.381 59.1919H495.029C494.83 56.1902 493.833 53.9491 492.029 52.4682C490.59 51.2276 488.71 50.6075 486.388 50.6075ZM513.59 78.1025H507.825V46.8852H512.569L513.347 51.5077C515.109 47.8258 517.749 45.9847 521.272 45.9847C522.435 45.9847 523.575 46.1248 524.695 46.405V52.1681C523.333 51.8078 522.112 51.6278 521.035 51.6278C518.713 51.6278 516.889 52.5684 515.569 54.4496C514.25 56.3303 513.59 58.992 513.59 62.4339V78.1025ZM549.276 46.8852H555.277L544.29 78.1025H536.489L525.621 46.8852H531.927L540.568 73.42L549.276 46.8852ZM566.184 41.6623H559.703V34.8785H566.184V41.6623ZM565.823 78.1025H560.059V46.8852H565.823V78.1025ZM594.601 68.077H600.901C600.422 71.4391 598.841 74.1402 596.163 76.1814C593.718 78.0626 590.736 79.0032 587.218 79.0032C582.612 79.0032 578.951 77.4221 576.231 74.2604C573.709 71.3389 572.446 67.4968 572.446 62.734C572.446 57.2111 573.971 52.9288 577.009 49.8867C579.611 47.2854 582.992 45.9847 587.156 45.9847C590.997 45.9847 594.159 47.0053 596.642 49.0463C598.841 50.8472 600.185 53.2089 600.664 56.1304H594.302C593.898 54.4496 593.081 53.1486 591.837 52.2284C590.636 51.3078 589.117 50.8472 587.275 50.8472C584.435 50.8472 582.251 51.9683 580.732 54.2093C579.293 56.2904 578.571 59.1919 578.571 62.9144C578.571 66.7964 579.531 69.7378 581.453 71.7391C582.973 73.3402 584.934 74.1402 587.336 74.1402C589.416 74.1402 591.116 73.5401 592.44 72.3393C593.599 71.299 594.321 69.8779 594.601 68.077ZM628.744 69.0978H634.983C634.105 72.2595 632.362 74.7409 629.76 76.5418C627.32 78.1827 624.4 79.0032 620.995 79.0032C616.076 79.0032 612.23 77.4425 609.472 74.3207C606.951 71.3987 605.688 67.4569 605.688 62.4937C605.688 56.8507 607.288 52.5684 610.493 49.6469C613.133 47.2054 616.537 45.9847 620.696 45.9847C625.582 45.9847 629.262 47.5656 631.745 50.7276C634.143 53.7692 635.344 58.1113 635.344 63.7548H611.57C611.812 67.4369 612.933 70.1785 614.932 71.9794C616.575 73.42 618.654 74.1402 621.176 74.1402C623.137 74.1402 624.841 73.6004 626.28 72.5197C627.481 71.5991 628.302 70.4586 628.744 69.0978ZM620.82 50.6075C618.256 50.6075 616.195 51.408 614.633 53.0086C613.151 54.4895 612.211 56.5506 611.812 59.1919H629.461C629.262 56.1902 628.26 53.9491 626.46 52.4682C625.022 51.2276 623.137 50.6075 620.82 50.6075Z"
            fill="white" />
        <path
            d="M311.997 122.228H313.877L314.214 124.787C314.832 123.801 315.634 123.039 316.622 122.505C317.567 122.012 318.625 121.765 319.798 121.765C322.039 121.765 323.777 122.567 325.011 124.17C326.142 125.651 326.707 127.625 326.707 130.092C326.707 133.013 325.947 135.243 324.427 136.786C323.15 138.081 321.536 138.728 319.584 138.728C318.431 138.728 317.391 138.475 316.47 137.973C315.544 137.47 314.813 136.745 314.276 135.798V143.817H311.997V122.228ZM324.304 130.028C324.304 127.807 323.768 126.141 322.699 125.031C321.835 124.146 320.695 123.705 319.276 123.705C317.709 123.705 316.46 124.291 315.511 125.463C314.585 126.595 314.124 128.156 314.124 130.151C314.124 132.393 314.67 134.108 315.758 135.302C316.645 136.289 317.804 136.782 319.243 136.782C320.885 136.782 322.153 136.156 323.036 134.901C323.881 133.729 324.304 132.104 324.304 130.028Z"
            fill="white" />
        <path
            d="M329.39 130.247C329.39 127.326 330.225 125.105 331.892 123.585C333.245 122.372 334.964 121.765 337.039 121.765C339.47 121.765 341.369 122.567 342.746 124.17C344.018 125.673 344.659 127.699 344.659 130.247C344.659 133.146 343.847 135.357 342.224 136.878C340.885 138.112 339.161 138.728 337.039 138.728C334.612 138.728 332.699 137.905 331.303 136.261C330.031 134.759 329.39 132.754 329.39 130.247ZM331.768 130.247C331.768 132.489 332.343 134.204 333.492 135.397C334.418 136.363 335.614 136.847 337.072 136.847C338.758 136.847 340.063 136.209 340.989 134.935C341.853 133.784 342.285 132.221 342.285 130.247C342.285 127.964 341.73 126.237 340.619 125.065C339.693 124.118 338.501 123.646 337.039 123.646C335.353 123.646 334.038 124.273 333.093 125.527C332.205 126.7 331.768 128.273 331.768 130.247Z"
            fill="white" />
        <path
            d="M367.112 122.228H369.425L364.767 138.266H362.056L357.858 124.726L353.789 138.266H351.012L346.23 122.228H348.604L352.46 135.86L356.501 122.228H359.307L363.409 135.798L367.112 122.228Z"
            fill="white" />
        <path
            d="M383.151 133.76H385.616C385.188 135.363 384.3 136.619 382.966 137.522C381.77 138.324 380.345 138.726 378.679 138.726C376.21 138.726 374.277 137.902 372.881 136.258C371.604 134.756 370.968 132.751 370.968 130.244C370.968 127.366 371.77 125.164 373.375 123.643C374.709 122.388 376.404 121.762 378.46 121.762C380.867 121.762 382.719 122.573 384.015 124.198C385.226 125.762 385.834 127.952 385.834 130.768H373.313C373.413 132.887 374.045 134.469 375.194 135.518C376.138 136.36 377.33 136.782 378.769 136.782C379.923 136.782 380.91 136.474 381.732 135.857C382.43 135.302 382.904 134.601 383.151 133.76ZM378.493 123.615C377.012 123.615 375.82 124.118 374.913 125.127C374.049 126.052 373.537 127.316 373.375 128.92H383.488C383.389 127.091 382.809 125.704 381.76 124.757C380.901 123.998 379.809 123.615 378.493 123.615Z"
            fill="white" />
        <path
            d="M391.912 138.266H389.628V122.228H391.508L391.817 124.972C392.681 122.835 394.11 121.765 396.104 121.765C396.66 121.765 397.225 121.836 397.799 121.981V124.263C397.144 124.078 396.546 123.986 396.014 123.986C394.756 123.986 393.749 124.541 392.99 125.651C392.273 126.7 391.912 128.097 391.912 129.846V138.266Z"
            fill="white" />
        <path
            d="M411.312 133.76H413.777C413.345 135.363 412.461 136.619 411.127 137.522C409.931 138.324 408.502 138.726 406.84 138.726C404.371 138.726 402.438 137.902 401.038 136.258C399.765 134.756 399.129 132.751 399.129 130.244C399.129 127.366 399.931 125.164 401.531 123.643C402.87 122.388 404.565 121.762 406.621 121.762C409.029 121.762 410.88 122.573 412.172 124.198C413.387 125.762 413.995 127.952 413.995 130.768H401.47C401.574 132.887 402.201 134.469 403.355 135.518C404.3 136.36 405.491 136.782 406.93 136.782C408.079 136.782 409.067 136.474 409.893 135.857C410.591 135.302 411.066 134.601 411.312 133.76ZM406.655 123.615C405.173 123.615 403.977 124.118 403.075 125.127C402.21 126.052 401.698 127.316 401.531 128.92H411.65C411.55 127.091 410.971 125.704 409.921 124.757C409.057 123.998 407.97 123.615 406.655 123.615Z"
            fill="white" />
        <path
            d="M431.572 138.266H429.692L429.293 135.613C428.694 136.64 427.911 137.424 426.947 137.957C426.021 138.473 424.972 138.728 423.799 138.728C421.62 138.728 419.892 137.926 418.619 136.323C417.446 134.821 416.862 132.838 416.862 130.37C416.862 127.409 417.622 125.158 419.146 123.615C420.376 122.382 421.971 121.765 423.923 121.765C426.33 121.765 428.11 122.73 429.259 124.664V116.059H431.572V138.266ZM419.236 130.401C419.236 132.6 419.782 134.265 420.87 135.397C421.758 136.323 422.888 136.786 424.265 136.786C425.888 136.786 427.17 136.159 428.12 134.904C428.984 133.753 429.416 132.23 429.416 130.339C429.416 128.079 428.88 126.36 427.811 125.188C426.909 124.201 425.736 123.708 424.293 123.708C422.65 123.708 421.387 124.325 420.499 125.558C419.659 126.731 419.236 128.347 419.236 130.401Z"
            fill="white" />
        <path
            d="M447.241 138.266H445.36V116.059H447.644V124.849C448.855 122.792 450.697 121.765 453.166 121.765C455.407 121.765 457.145 122.567 458.375 124.17C459.51 125.651 460.075 127.625 460.075 130.092C460.075 133.013 459.31 135.243 457.791 136.786C456.537 138.081 454.932 138.728 452.981 138.728C450.531 138.728 448.731 137.732 447.582 135.737L447.241 138.266ZM457.667 130.028C457.667 127.807 457.136 126.141 456.062 125.031C455.198 124.146 454.059 123.705 452.639 123.705C451.077 123.705 449.824 124.291 448.879 125.463C447.953 126.595 447.487 128.155 447.487 130.151C447.487 132.393 448.033 134.108 449.126 135.302C450.028 136.289 451.2 136.782 452.639 136.782C454.282 136.782 455.55 136.156 456.433 134.901C457.259 133.729 457.667 132.103 457.667 130.028Z"
            fill="white" />
        <path
            d="M475.957 122.228L470.311 138.451C469.49 140.795 468.777 142.328 468.184 143.046C467.505 143.87 466.589 144.28 465.44 144.28C464.946 144.28 464.352 144.188 463.65 144.003V142.121C464.267 142.285 464.789 142.368 465.221 142.368C465.838 142.368 466.328 142.121 466.688 141.628C467.049 141.134 467.529 140.015 468.122 138.266H467.32L461.214 122.228H463.683L468.801 136.446L473.644 122.228H475.957Z"
            fill="white" />
        <path
            d="M625.763 144.28H486.479V122.995C486.479 115.003 492.96 108.521 500.955 108.521H643.596L625.758 144.28H625.763ZM499.526 121.044L494.232 138.598H502.555L504.227 132.502H509.416V138.598H517.426V114.217H507.327C502.869 114.217 501.126 115.715 499.526 121.044ZM505.865 126.583L507.019 122.475C507.574 120.456 507.821 120.175 509.037 120.175H509.421V126.583H505.865ZM532.72 139.294C535.402 139.294 538.152 138.77 540.279 137.901V124.11H532.615V132.678H532.198C529.41 132.678 527.563 130.378 527.563 126.688C527.563 122.404 530.07 120.315 534.249 120.315C536.827 120.315 538.954 121.152 540.312 122.647V114.67C538.498 113.904 535.92 113.52 533.446 113.52C524.672 113.52 518.993 118.708 518.993 126.896C518.993 134.106 523.803 139.294 532.715 139.294H532.72ZM542.401 138.598H550.24V126.235C555.15 131.074 556.683 134.211 556.683 138.598H564.171V114.217H556.332V122.436L549.262 114.217H542.401V138.598ZM572.11 138.598H580.295V120.836H581.098C583.643 120.836 585.556 121.392 586.667 122.647V114.22H565.738V122.647C566.854 121.395 568.772 120.836 571.307 120.836H572.11V138.598ZM587.37 126.407C587.37 134.036 592.697 139.294 600.361 139.294C602.554 139.294 604.572 138.84 605.688 138.144V130.167C604.819 131.525 603.285 132.221 601.372 132.221C597.991 132.221 595.935 129.991 595.935 126.404C595.935 122.816 597.991 120.587 601.372 120.587C603.285 120.587 604.819 121.283 605.688 122.641V114.664C604.572 113.967 602.554 113.514 600.361 113.514C592.697 113.514 587.37 118.772 587.37 126.401V126.407ZM610.355 138.598H619.063L631.147 114.217H622.372L618.788 122.366L615.236 114.217H606.391L614.467 130.586L610.36 138.598H610.355Z"
            fill="#187ADC" />
    </g>
    <defs>
        <clipPath id="clip0_1184_157217">
            <rect width="914" height="143.866" fill="white" transform="translate(0 0.53125)" />
        </clipPath>
    </defs>
</svg>