<svg width="24" height="24" viewBox="0 0 24 24" fill="currentColor" xmlns="http://www.w3.org/2000/svg">
    <path
        d="M19.8398 14.5C20.3018 14.5 20.7042 14.8166 20.8125 15.2656V15.2676L20.8135 15.2715L20.8154 15.2803L20.8223 15.3086C20.8273 15.3314 20.834 15.3626 20.8418 15.4014C20.8575 15.4791 20.8777 15.5884 20.8984 15.7227C20.9397 15.9901 20.9834 16.3646 20.9961 16.7998C21.0208 17.6505 20.9292 18.8329 20.3682 19.9062C19.8145 20.9655 19.0347 21.6057 18.3945 21.9785C18.0756 22.1643 17.7885 22.2852 17.5752 22.3613C17.4683 22.3994 17.3785 22.4267 17.3115 22.4453C17.278 22.4546 17.2495 22.4624 17.2275 22.4678L17.1992 22.4736L17.1885 22.4766L17.1846 22.4775H17.1826C17.1815 22.4748 17.169 22.4237 16.9727 21.5L17.1807 22.4785C17.0152 22.5137 16.8425 22.5053 16.6807 22.4561H16.6787L16.6406 22.4434C16.6195 22.4365 16.5912 22.4272 16.5566 22.415C16.4874 22.3908 16.3923 22.3552 16.2783 22.3086C16.0517 22.2159 15.7421 22.0748 15.4102 21.8779C14.7752 21.5013 13.9119 20.8367 13.5254 19.7891C13.093 18.617 12.9941 17.5041 13 16.6924C13.003 16.2847 13.0328 15.9463 13.0625 15.7051C13.0774 15.5842 13.0926 15.4868 13.1045 15.417C13.1104 15.3822 13.1151 15.3539 13.1191 15.333L13.124 15.3076L13.126 15.2979L13.1279 15.292C13.2262 14.8303 13.6334 14.5001 14.1055 14.5H19.8398ZM15 16.707C14.9953 17.3524 15.0758 18.2116 15.4023 19.0967C15.5534 19.5062 15.9447 19.8705 16.4297 20.1582C16.64 20.2829 16.8417 20.3772 16.9971 20.4424C17.1046 20.3992 17.2391 20.3365 17.3877 20.25C17.7779 20.0228 18.2533 19.6345 18.5957 18.9795C18.9306 18.3388 19.0172 17.5495 18.9971 16.8574C18.9934 16.7311 18.9867 16.6112 18.9775 16.5H15.0049C15.0025 16.5658 15.0005 16.6349 15 16.707ZM12.5 1.5C12.7652 1.5 13.0195 1.60543 13.207 1.79297L17.707 6.29297C17.8946 6.4805 18 6.73478 18 7V11.5C18 12.0523 17.5523 12.5 17 12.5C16.4477 12.5 16 12.0523 16 11.5V7.41406L12.0859 3.5H5V17.5H10.5C11.0523 17.5 11.5 17.9477 11.5 18.5C11.5 19.0523 11.0523 19.5 10.5 19.5H4C3.44772 19.5 3 19.0523 3 18.5V2.5C3 1.94772 3.44772 1.5 4 1.5H12.5ZM13 11.5C13.5523 11.5 14 11.9477 14 12.5C14 13.0523 13.5523 13.5 13 13.5H8C7.44772 13.5 7 13.0523 7 12.5C7 11.9477 7.44772 11.5 8 11.5H13ZM13 7.5C13.5523 7.5 14 7.94772 14 8.5C14 9.05228 13.5523 9.5 13 9.5H8C7.44772 9.5 7 9.05228 7 8.5C7 7.94772 7.44772 7.5 8 7.5H13Z"
        fill="currentColor" />
</svg>