<svg width="24" height="24" viewBox="0 0 24 24" fill="none" xmlns="http://www.w3.org/2000/svg">
<path fill-rule="evenodd" clip-rule="evenodd" d="M13.1901 0.166667L12.7022 6.24667C12.4715 6.22 12.2407 6.20667 12.0034 6.20667C11.7067 6.20667 11.4166 6.22667 11.1331 6.27333L10.8562 3.32667C10.8497 3.23333 10.9222 3.15333 11.0145 3.15333H11.5089L11.2716 0.173333C11.265 0.08 11.3375 0 11.4232 0H13.0385C13.1308 0 13.2033 0.08 13.1901 0.173333V0.166667ZM9.11575 0.466667C9.08937 0.38 8.99708 0.326667 8.91137 0.36L7.39502 0.92C7.30932 0.953333 7.26976 1.05333 7.30932 1.13333L8.54217 3.85333L8.07408 4.02667C7.98838 4.06 7.94882 4.16 7.98838 4.24L9.2476 6.91333C9.70251 6.66 10.197 6.46667 10.7178 6.34667L9.12234 0.466667H9.11575ZM5.39741 2.16L8.885 7.13333C8.44328 7.42667 8.04112 7.77333 7.69829 8.17333L5.60838 6.09333C5.54245 6.02667 5.54904 5.92 5.61497 5.86L5.99735 5.54L3.92062 3.41333C3.85469 3.34667 3.86128 3.24 3.9338 3.18L5.16666 2.13333C5.23918 2.07333 5.33807 2.08667 5.39081 2.16H5.39741ZM2.4702 5.04C2.39768 4.98667 2.2922 5.01333 2.24605 5.09333L1.44172 6.50667C1.39557 6.58667 1.42854 6.68667 1.50765 6.72667L4.18433 8.00667L3.9338 8.44C3.88765 8.52 3.92062 8.62667 4.00632 8.66L6.66982 9.89333C6.86101 9.39333 7.11813 8.92667 7.43458 8.50667L2.4702 5.04ZM0.498954 8.88C0.512139 8.78667 0.604438 8.73333 0.690145 8.75333L6.52477 10.2933C6.37314 10.7933 6.28743 11.32 6.27425 11.8667L3.35364 11.6267C3.26134 11.62 3.19541 11.5333 3.21519 11.44L3.30089 10.9467L0.353912 10.6667C0.261613 10.66 0.202277 10.5733 0.215463 10.48L0.492361 8.87333L0.498954 8.88ZM0.281391 12.8667C0.189092 12.8733 0.129757 12.96 0.142942 13.0533L0.426433 14.66C0.439618 14.7533 0.531918 14.8067 0.617624 14.7867L3.4789 14.0333L3.56461 14.5267C3.57779 14.62 3.67009 14.6733 3.7558 14.6533L6.57752 13.8667C6.4127 13.3733 6.30721 12.8467 6.28084 12.3067L0.274798 12.8667H0.281391ZM1.21757 17.0933C1.17142 17.0133 1.20438 16.9133 1.2835 16.8733L6.72915 14.26C6.93353 14.7533 7.21043 15.2133 7.54007 15.6267L5.15347 17.3467C5.08095 17.4 4.97547 17.38 4.92932 17.3L4.67879 16.86L2.24605 18.56C2.17353 18.6133 2.06804 18.5867 2.02189 18.5067L1.21098 17.0933H1.21757ZM7.81696 15.9467L3.57779 20.2867C3.51186 20.3533 3.51846 20.46 3.59098 20.52L4.83042 21.5667C4.90295 21.6267 5.00184 21.6133 5.05458 21.54L6.76871 19.1L7.15109 19.4267C7.22361 19.4867 7.3291 19.4733 7.38184 19.3933L9.04323 16.9533C8.59492 16.6733 8.17957 16.3333 7.82356 15.9467H7.81696ZM6.97968 22.9133C6.89397 22.88 6.85441 22.78 6.89397 22.7L9.40583 17.1533C9.86733 17.3933 10.3684 17.5733 10.8892 17.6733L10.1508 20.54C10.131 20.6267 10.0321 20.68 9.94644 20.6467L9.47835 20.4733L8.69381 23.36C8.66744 23.4467 8.57514 23.5 8.48943 23.4667L6.97309 22.9067L6.97968 22.9133ZM11.3046 17.7467L10.8167 23.8267C10.8101 23.92 10.8826 24 10.9683 24H12.5836C12.6759 24 12.7484 23.92 12.7352 23.8267L12.4979 20.8467H12.9923C13.0846 20.8467 13.1571 20.7667 13.1505 20.6733L12.8736 17.7267C12.5902 17.7733 12.3001 17.7933 12.0034 17.7933C11.7661 17.7933 11.5353 17.78 11.3046 17.7467ZM17.1194 1.28667C17.159 1.2 17.1194 1.10667 17.0337 1.07333L15.5174 0.513333C15.4317 0.48 15.3394 0.533333 15.313 0.62L14.5284 3.50667L14.0603 3.33333C13.9746 3.3 13.8823 3.35333 13.856 3.44L13.1176 6.30667C13.645 6.41333 14.1395 6.59333 14.601 6.82667L17.1194 1.28667ZM20.429 3.70667L16.1898 8.04667C15.8338 7.66 15.4251 7.32 14.9702 7.04L16.6315 4.6C16.6843 4.52667 16.7898 4.50667 16.8623 4.56667L17.2447 4.89333L18.9588 2.45333C19.0115 2.38 19.117 2.36667 19.183 2.42667L20.4224 3.47333C20.4949 3.53333 20.4949 3.64 20.4356 3.70667H20.429ZM22.7233 7.12C22.809 7.08 22.8354 6.98 22.7892 6.9L21.9783 5.48667C21.9322 5.40667 21.8267 5.38667 21.7542 5.43333L19.3214 7.13333L19.0709 6.7C19.0247 6.62 18.9192 6.59333 18.8467 6.65333L16.4601 8.37333C16.7898 8.78667 17.0601 9.24667 17.271 9.74L22.7167 7.12667L22.7233 7.12ZM23.5804 9.33333L23.8573 10.94C23.8704 11.0333 23.8111 11.1133 23.7188 11.1267L17.7128 11.6933C17.6864 11.1467 17.5809 10.6267 17.4161 10.1333L20.2378 9.34667C20.3235 9.32 20.4158 9.38 20.429 9.47333L20.5147 9.96667L23.376 9.21333C23.4617 9.19333 23.554 9.24667 23.5672 9.34L23.5804 9.33333ZM23.3101 15.2333C23.3958 15.2533 23.4881 15.2 23.5012 15.1067L23.7781 13.5C23.7913 13.4067 23.732 13.3267 23.6397 13.3133L20.6927 13.0333L20.7784 12.54C20.7916 12.4467 20.7323 12.3667 20.64 12.3533L17.7194 12.1133C17.7062 12.66 17.6205 13.1867 17.4688 13.6867L23.3035 15.2267L23.3101 15.2333ZM21.7542 18.9C21.708 18.98 21.6025 19 21.53 18.9533L16.5656 15.4867C16.8821 15.0667 17.1392 14.6 17.3304 14.1L19.9939 15.3333C20.0796 15.3733 20.1125 15.4733 20.0664 15.5533L19.8159 15.9867L22.4925 17.2667C22.5717 17.3067 22.6046 17.4067 22.5585 17.4867L21.7542 18.9ZM15.1152 16.8533L18.6028 21.8267C18.6555 21.9 18.761 21.9133 18.8269 21.8533L20.0598 20.8067C20.1323 20.7467 20.1323 20.64 20.073 20.5733L17.9963 18.4467L18.3786 18.1267C18.4512 18.0667 18.4512 17.96 18.3852 17.8933L16.2953 15.8133C15.9459 16.2133 15.5503 16.5667 15.1086 16.8533H15.1152ZM15.0822 23.6267C14.9965 23.66 14.9042 23.6067 14.8779 23.52L13.2824 17.64C13.8032 17.52 14.2977 17.3267 14.7526 17.0733L16.0118 19.7467C16.0514 19.8333 16.0118 19.9333 15.9261 19.96L15.458 20.1333L16.6909 22.8533C16.7304 22.94 16.6909 23.0333 16.6052 23.0667L15.0888 23.6267H15.0822Z" fill="#191919"/>
</svg>
