<svg width="32" height="32" viewBox="0 0 32 32" fill="none" xmlns="http://www.w3.org/2000/svg">
<path fill-rule="evenodd" clip-rule="evenodd" d="M16.0001 17.724C16.7365 17.724 17.3334 18.3209 17.3334 19.0573V21.724H28.0001C28.7365 21.724 29.3334 22.3209 29.3334 23.0573V27.0573C29.3334 27.7937 28.7365 28.3906 28.0001 28.3906C27.2637 28.3906 26.6667 27.7937 26.6667 27.0573V24.3906H17.3334V27.0573C17.3334 27.7937 16.7365 28.3906 16.0001 28.3906C15.2637 28.3906 14.6667 27.7937 14.6667 27.0573V24.3906H5.33341V27.0573C5.33341 27.7937 4.73646 28.3906 4.00008 28.3906C3.2637 28.3906 2.66675 27.7937 2.66675 27.0573V23.0573C2.66675 22.3209 3.2637 21.724 4.00008 21.724H14.6667V19.0573C14.6667 18.3209 15.2637 17.724 16.0001 17.724Z" fill="#4F628D"/>
<path d="M17.4143 13.8046L19.0573 15.4476C19.578 15.9683 20.4222 15.9683 20.9429 15.4476L25.724 10.6666C26.2447 10.1459 26.2447 9.30165 25.724 8.78095L20.9429 3.9999C20.4222 3.4792 19.578 3.4792 19.0573 3.9999L17.4143 5.64288L19.1382 7.36674C19.1925 7.42111 19.2446 7.47689 19.2945 7.53396L20.0001 6.82833L22.8955 9.72376L20.0001 12.6192L19.2945 11.9136C19.2446 11.9706 19.1925 12.0264 19.1382 12.0808L17.4143 13.8046Z" fill="#4F628D"/>
<path d="M11.0571 4.00022C11.5778 3.47952 12.422 3.47952 12.9427 4.00022L17.7237 8.78127C18.2444 9.30197 18.2444 10.1462 17.7237 10.6669L12.9427 15.4479C12.422 15.9686 11.5778 15.9686 11.0571 15.4479L6.27602 10.6669C5.75532 10.1462 5.75532 9.30197 6.27602 8.78127L11.0571 4.00022Z" fill="#00142B"/>
</svg>
