<svg width="356" height="322" viewBox="0 0 356 322" fill="none" xmlns="http://www.w3.org/2000/svg">
<path d="M0.176344 182.881C0.200101 189.771 5.90156 195.282 12.7908 195.258L137.391 194.997C144.376 194.973 149.911 189.39 149.887 182.501C149.863 175.659 144.257 170.077 137.273 170.124L12.672 170.386C5.78278 170.409 0.152588 176.016 0.176344 182.881Z" fill="#00BCEB"/>
<path d="M84.7766 283.11C88.245 289.049 95.9182 290.997 101.881 287.529L154.572 256.789C160.606 253.273 162.625 245.671 159.157 239.732C155.712 233.793 148.087 231.797 142.053 235.313L89.3615 266.054C83.3987 269.522 81.332 277.195 84.7766 283.134V283.11Z" fill="#00BCEB"/>
<path d="M167.367 319.454C173.353 322.875 180.955 320.713 184.376 314.727L200.768 291.374C204.236 285.317 202.17 277.715 196.207 274.294C190.244 270.897 182.642 272.963 179.174 279.021L162.782 302.397C159.361 308.384 161.404 316.081 167.343 319.478L167.367 319.454Z" fill="#00BCEB"/>
<path d="M349.035 2.00157C343.048 -1.41931 335.446 0.742493 332.002 6.72904L269.951 114.772C266.482 120.83 268.549 128.432 274.512 131.829C280.475 135.226 288.077 133.159 291.545 127.101L353.596 19.0822C357.017 13.0957 354.974 5.39869 349.035 2.00157Z" fill="#74BF4B"/>
<path d="M139.668 99.2783C134.394 103.697 133.777 111.584 138.195 116.882L154.421 140.376C158.887 145.722 166.726 146.434 172.024 142.016C177.298 137.621 178.011 129.757 173.497 124.412L157.271 100.918C152.829 95.6199 144.918 94.8597 139.668 99.2783Z" fill="#FF6D2D"/>
<path d="M221.701 32.2576C214.812 32.2814 209.301 37.9829 209.324 44.8721L209.586 105.878C209.609 112.862 215.192 118.397 222.081 118.374C228.923 118.35 234.506 112.743 234.458 105.759L234.197 44.7534C234.173 37.8641 228.567 32.2339 221.701 32.2576Z" fill="#0051AF"/>
<path d="M229.98 230.364C213.185 230.364 199.573 216.752 199.573 199.957C199.573 183.161 213.185 169.549 229.98 169.549C246.776 169.549 260.388 183.161 260.388 199.957C260.388 216.752 246.776 230.364 229.98 230.364ZM229.98 148.263C201.426 148.263 178.287 171.402 178.287 199.957C178.287 228.511 201.426 251.65 229.98 251.65C258.535 251.65 281.674 228.511 281.674 199.957C281.674 171.402 258.535 148.263 229.98 148.263Z" fill="white"/>
</svg>
