<svg width="24" height="24" viewBox="0 0 24 24" fill="none" xmlns="http://www.w3.org/2000/svg">
<path d="M16.9502 2.49512C18.2614 2.49512 19.3777 3.31857 19.8174 4.47559H20.9111C21.5125 4.47574 22 4.96305 22 5.56445C22 6.16584 21.5125 6.65316 20.9111 6.65332H19.8174C19.3777 7.8103 18.2614 8.63379 16.9502 8.63379C15.6391 8.63368 14.5237 7.81014 14.084 6.65332H3.08887C2.48749 6.65319 2.00002 6.16585 2 5.56445C2 4.96304 2.48748 4.47572 3.08887 4.47559H14.084C14.5237 3.31873 15.6391 2.49523 16.9502 2.49512ZM16.9502 4.67285C16.4582 4.67299 16.0596 5.07241 16.0596 5.56445C16.0596 6.05648 16.4582 6.45494 16.9502 6.45508C17.4423 6.45508 17.8418 6.05657 17.8418 5.56445C17.8418 5.07232 17.4423 4.67285 16.9502 4.67285Z" fill="#59616B"/>
<path d="M7.0498 8.43555C5.73854 8.43555 4.62227 9.25898 4.18262 10.416H3.08887C2.48746 10.4161 2 10.9034 2 11.5049C2.00007 12.1063 2.4875 12.5936 3.08887 12.5938H4.18262C4.62233 13.7507 5.73863 14.5742 7.0498 14.5742C8.36079 14.5741 9.47632 13.7505 9.91602 12.5938H20.9111C21.5124 12.5936 21.9999 12.1062 22 11.5049C22 10.9035 21.5125 10.4162 20.9111 10.416H9.91699C9.47744 9.25896 8.361 8.4357 7.0498 8.43555ZM7.0498 10.6133C7.54177 10.6135 7.94043 11.0129 7.94043 11.5049C7.94036 11.9968 7.54173 12.3953 7.0498 12.3955C6.55771 12.3955 6.15827 11.997 6.1582 11.5049C6.1582 11.0127 6.55767 10.6133 7.0498 10.6133Z" fill="#59616B"/>
<path d="M16.9502 15.3662C18.2615 15.3662 19.3777 16.1896 19.8174 17.3467H20.9111C21.5125 17.3468 22 17.8341 22 18.4355C21.9999 19.0369 21.5125 19.5243 20.9111 19.5244H19.8174C19.3777 20.6814 18.2614 21.5049 16.9502 21.5049C15.6392 21.5048 14.5237 20.6812 14.084 19.5244H3.08887C2.48752 19.5243 2.00006 19.0369 2 18.4355C2 17.8341 2.48748 17.3468 3.08887 17.3467H14.083C14.5226 16.1896 15.639 15.3663 16.9502 15.3662ZM16.9502 17.5439C16.4582 17.5441 16.0596 17.9435 16.0596 18.4355C16.0596 18.9275 16.4582 19.326 16.9502 19.3262C17.4423 19.3262 17.8417 18.9276 17.8418 18.4355C17.8418 17.9434 17.4423 17.5439 16.9502 17.5439Z" fill="#59616B"/>
<path fill-rule="evenodd" clip-rule="evenodd" d="M13.8809 5.56442C13.8809 3.86929 15.255 2.49512 16.9502 2.49512C18.6453 2.49512 20.0195 3.86929 20.0195 5.56442C20.0195 7.25954 18.6453 8.63372 16.9502 8.63372C15.255 8.63372 13.8809 7.25954 13.8809 5.56442Z" fill="#9EA2A8"/>
<path d="M10.1187 11.5048C10.1187 9.80972 8.74448 8.43555 7.04935 8.43555C5.35423 8.43555 3.98005 9.80972 3.98005 11.5048C3.98005 13.2 5.35423 14.5741 7.04935 14.5741C8.74448 14.5741 10.1187 13.2 10.1187 11.5048Z" fill="#9EA2A8"/>
<path d="M13.8809 18.4355C13.8809 16.7404 15.255 15.3662 16.9502 15.3662C18.6453 15.3662 20.0195 16.7404 20.0195 18.4355C20.0195 20.1306 18.6453 21.5048 16.9502 21.5048C15.255 21.5048 13.8809 20.1306 13.8809 18.4355Z" fill="#9EA2A8"/>
</svg>
