<svg width="138" height="15" viewBox="0 0 138 15" fill="none" xmlns="http://www.w3.org/2000/svg">
<path d="M0 5.70414H0.782478L0.922789 6.76938C1.17967 6.35877 1.51359 6.04163 1.9246 5.81953C2.31782 5.61423 2.75845 5.51147 3.24651 5.51147C4.17917 5.51147 4.9024 5.84522 5.41615 6.5127C5.88643 7.12881 6.12156 7.95042 6.12156 8.97714C6.12156 10.1928 5.8054 11.1209 5.17309 11.7627C4.64155 12.3017 3.96973 12.5712 3.1576 12.5712C2.67744 12.5712 2.24472 12.4659 1.86138 12.2569C1.47606 12.0476 1.17176 11.7459 0.948477 11.3519V14.6891H0V5.70414ZM5.12173 8.95026C5.12173 8.0261 4.89845 7.33293 4.45385 6.87095C4.09423 6.50243 3.61998 6.31886 3.02916 6.31886C2.37709 6.31886 1.85742 6.56289 1.46223 7.05056C1.07691 7.52164 0.885233 8.17114 0.885233 9.00164C0.885233 9.9347 1.11248 10.6484 1.56498 11.1452C1.93449 11.556 2.41662 11.7613 3.01534 11.7613C3.69903 11.7613 4.22661 11.5007 4.59414 10.9784C4.94586 10.4905 5.12173 9.81416 5.12173 8.95026Z" fill="#272E37"/>
<path d="M7.23828 9.04135C7.23828 7.82593 7.58606 6.90177 8.27962 6.26886C8.84278 5.7644 9.55807 5.51147 10.4216 5.51147C11.4333 5.51147 12.2237 5.84522 12.7967 6.5127C13.3263 7.1379 13.593 7.98124 13.593 9.04135C13.593 10.2479 13.2551 11.1683 12.5793 11.801C12.0221 12.3146 11.3048 12.5712 10.4216 12.5712C9.41185 12.5712 8.61554 12.2286 8.0346 11.5443C7.50504 10.9193 7.23828 10.0849 7.23828 9.04135ZM8.22825 9.04135C8.22825 9.97461 8.46734 10.6883 8.94553 11.1849C9.33084 11.5868 9.82877 11.7884 10.4354 11.7884C11.1369 11.7884 11.6803 11.5226 12.0656 10.9924C12.4252 10.5137 12.605 9.86297 12.605 9.04135C12.605 8.0915 12.3738 7.37284 11.9115 6.88498C11.5261 6.49097 11.0302 6.29455 10.4216 6.29455C9.7201 6.29455 9.17275 6.55518 8.77953 7.07743C8.41002 7.5653 8.22825 8.21994 8.22825 9.04135Z" fill="#272E37"/>
<path d="M22.9374 5.7041H23.8997L21.9613 12.3787H20.833L19.0862 6.74386L17.3928 12.3787H16.2369L14.2471 5.7041H15.2351L16.8395 11.3775L18.5211 5.7041H19.6889L21.3962 11.3518L22.9374 5.7041Z" fill="#272E37"/>
<path d="M29.6114 10.5036H30.6369C30.4591 11.1711 30.0896 11.6935 29.5343 12.0695C29.0364 12.4033 28.4436 12.5703 27.75 12.5703C26.7225 12.5703 25.9183 12.2274 25.3373 11.5433C24.8058 10.9181 24.541 10.0839 24.541 9.04038C24.541 7.84274 24.875 6.92628 25.5428 6.29338C26.0981 5.77113 26.8035 5.5105 27.6591 5.5105C28.6609 5.5105 29.4315 5.848 29.971 6.52457C30.4749 7.17526 30.7278 8.08658 30.7278 9.25853H25.5172C25.5587 10.1404 25.8215 10.7988 26.2996 11.2353C26.6929 11.5856 27.1888 11.7615 27.7876 11.7615C28.2677 11.7615 28.6787 11.6333 29.0206 11.3764C29.311 11.1454 29.5086 10.8539 29.6114 10.5036ZM27.673 6.28192C27.0565 6.28192 26.5605 6.49118 26.1831 6.91087C25.8234 7.29599 25.61 7.82219 25.5428 8.48967H29.7517C29.7102 7.72853 29.4691 7.15095 29.0324 6.75695C28.6747 6.44118 28.2203 6.28192 27.673 6.28192Z" fill="#272E37"/>
<path d="M33.2571 12.3788H32.3066V5.70414H33.0891L33.2176 6.84644C33.5772 5.95706 34.172 5.51147 35.0019 5.51147C35.2331 5.51147 35.4682 5.54111 35.7073 5.60138V6.55123C35.4346 6.47417 35.1856 6.43583 34.9643 6.43583C34.4407 6.43583 34.0218 6.66683 33.7056 7.12881C33.4072 7.5653 33.2571 8.14683 33.2571 8.87458V12.3788Z" fill="#272E37"/>
<path d="M41.3321 10.5036H42.3576C42.1778 11.1711 41.8103 11.6935 41.255 12.0695C40.7571 12.4033 40.1623 12.5703 39.4707 12.5703C38.4432 12.5703 37.639 12.2274 37.0561 11.5433C36.5265 10.9181 36.2617 10.0839 36.2617 9.04038C36.2617 7.84274 36.5956 6.92628 37.2615 6.29338C37.8188 5.77113 38.5242 5.5105 39.3798 5.5105C40.3816 5.5105 41.1522 5.848 41.6897 6.52457C42.1956 7.17526 42.4485 8.08658 42.4485 9.25853H37.2359C37.2793 10.1404 37.5402 10.7988 38.0203 11.2353C38.4136 11.5856 38.9095 11.7615 39.5082 11.7615C39.9864 11.7615 40.3974 11.6333 40.7412 11.3764C41.0317 11.1454 41.2293 10.8539 41.3321 10.5036ZM39.3936 6.28192C38.7771 6.28192 38.2792 6.49118 37.9037 6.91087C37.5441 7.29599 37.3307 7.82219 37.2615 8.48967H41.4724C41.4309 7.72853 41.1898 7.15095 40.7531 6.75695C40.3935 6.44118 39.941 6.28192 39.3936 6.28192Z" fill="#272E37"/>
<path d="M49.7632 12.3788H48.9807L48.8147 11.2748C48.5657 11.7022 48.2397 12.0283 47.8386 12.2504C47.4533 12.4648 47.0166 12.5713 46.5285 12.5713C45.6215 12.5713 44.9023 12.2375 44.3727 11.57C43.8846 10.945 43.6416 10.1197 43.6416 9.09275C43.6416 7.86053 43.9578 6.92352 44.5921 6.28172C45.1038 5.76837 45.7677 5.51149 46.5799 5.51149C47.5817 5.51149 48.3227 5.91341 48.8009 6.71822V3.13696H49.7632V12.3788ZM44.6296 9.10559C44.6296 10.0209 44.8568 10.7138 45.3093 11.1849C45.6788 11.57 46.1491 11.7627 46.7221 11.7627C47.3979 11.7627 47.9314 11.5021 48.3266 10.9796C48.6863 10.5008 48.8661 9.86674 48.8661 9.0799C48.8661 8.13914 48.6428 7.42404 48.1982 6.93637C47.8228 6.52556 47.3347 6.32026 46.734 6.32026C46.0503 6.32026 45.5247 6.57694 45.1552 7.0903C44.8055 7.57816 44.6296 8.25079 44.6296 9.10559Z" fill="#272E37"/>
<path d="M56.2835 12.3788H55.501V3.13696H56.4514V6.79509C56.9553 5.9391 57.722 5.51149 58.7495 5.51149C59.6821 5.51149 60.4054 5.84523 60.9171 6.51272C61.3894 7.12883 61.6245 7.95044 61.6245 8.97716C61.6245 10.1928 61.3064 11.1209 60.6741 11.7627C60.1524 12.3017 59.4845 12.5713 58.6724 12.5713C57.6528 12.5713 56.9039 12.1567 56.4257 11.3262L56.2835 12.3788ZM60.6227 8.95028C60.6227 8.02612 60.4014 7.33295 59.9548 6.87097C59.5952 6.50245 59.121 6.31888 58.5301 6.31888C57.88 6.31888 57.3584 6.56291 56.9652 7.05058C56.5799 7.52165 56.3862 8.17115 56.3862 9.00166C56.3862 9.93471 56.6134 10.6484 57.0679 11.1452C57.4433 11.556 57.9314 11.7613 58.5301 11.7613C59.2138 11.7613 59.7414 11.5007 60.1089 10.9784C60.4528 10.4906 60.6227 9.81418 60.6227 8.95028Z" fill="#272E37"/>
<path d="M68.234 5.7041L65.8846 12.4556C65.5427 13.4311 65.2463 14.0692 64.9993 14.3682C64.7168 14.711 64.3354 14.8817 63.8573 14.8817C63.6518 14.8817 63.4048 14.8432 63.1123 14.7661V13.9832C63.3692 14.0512 63.5865 14.0858 63.7663 14.0858C64.0232 14.0858 64.2268 13.9832 64.3769 13.7777C64.5271 13.5724 64.7267 13.1065 64.9737 12.3787H64.6397L62.0986 5.7041H63.1261L65.2562 11.6214L67.2717 5.7041H68.234Z" fill="#272E37"/>
<path d="M130.578 14.8819H72.6133V6.02376C72.6133 2.6974 75.3105 0 78.638 0H138L130.576 14.8819H130.578ZM78.0433 5.21143L75.84 12.5168H79.3039L79.9995 9.98005H82.1592V12.5168H85.4927V2.37038H81.2898C79.4344 2.37038 78.7092 2.99399 78.0433 5.21143ZM80.6812 7.51661L81.1613 5.80699C81.3925 4.96681 81.4953 4.84983 82.0011 4.84983H82.1612V7.51661H80.6812ZM91.8573 12.8065C92.9737 12.8065 94.1178 12.5885 95.0031 12.2269V6.48772H91.8138V10.0532H91.6399C90.48 10.0532 89.7114 9.096 89.7114 7.56047C89.7114 5.77775 90.7547 4.90832 92.4936 4.90832C93.5665 4.90832 94.4517 5.25669 95.0169 5.87872V2.55909C94.2621 2.24016 93.1891 2.0805 92.1596 2.0805C88.508 2.0805 86.1447 4.23965 86.1447 7.64702C86.1447 10.6475 88.1464 12.8065 91.8553 12.8065H91.8573ZM95.8863 12.5168H99.1486V7.37177C101.192 9.38588 101.83 10.6914 101.83 12.5168H104.946V2.37038H101.684V5.79099L98.7416 2.37038H95.8863V12.5168ZM108.25 12.5168H111.657V5.12508H111.99C113.05 5.12508 113.846 5.35628 114.308 5.87872V2.37176H105.598V5.87872C106.063 5.35766 106.861 5.12508 107.916 5.12508H108.25V12.5168ZM114.601 7.44349C114.601 10.6183 116.818 12.8065 120.007 12.8065C120.92 12.8065 121.76 12.6178 122.224 12.3279V9.00827C121.862 9.5734 121.224 9.86308 120.428 9.86308C119.021 9.86308 118.165 8.93516 118.165 7.44231C118.165 5.94926 119.021 5.02135 120.428 5.02135C121.224 5.02135 121.862 5.31122 122.224 5.87615V2.55652C121.76 2.26664 120.92 2.07793 120.007 2.07793C116.818 2.07793 114.601 4.26613 114.601 7.44092V7.44349ZM124.166 12.5168H127.79L132.819 2.37038H129.168L127.676 5.76174L126.198 2.37038H122.517L125.878 9.18255L124.168 12.5168H124.166Z" fill="#187ADC"/>
</svg>
